<svg width="121" height="121" viewBox="0 0 121 121" fill="none" xmlns="http://www.w3.org/2000/svg">
  <g id="AI-Icon-v01 1">
    <g id="Group">
      <path id="Vector"
        d="M41.0055 58.2592C42.3052 60.4305 48.4941 60.6568 51.1449 60.9481C51.2278 62.9357 51.2278 62.9357 51.313 64.9254C53.7912 65.1988 54.0422 64.2644 53.8898 66.606C51.7902 66.8682 52.523 68.0065 52.0972 69.1268C52.0569 69.2344 51.9605 69.519 51.7611 69.4629C34.2295 69.519 34.2295 69.519 16.6958 69.575C16.6868 69.519 16.4627 69.1918 16.3596 68.5106C15.8465 65.1069 15.916 61.6853 16.0235 58.2592C23.7698 58.5438 31.59 57.9276 39.325 58.1472C39.753 58.1584 39.6432 58.0352 39.6611 58.0352C39.8336 58.0419 39.7395 58.2547 39.8292 58.2592C40.2034 58.2772 40.6694 58.2122 41.0055 58.2592Z"
        fill="#EF6D6C" />
      <path id="Vector_2"
        d="M81.3366 58.2592C81.5181 58.2368 81.7131 58.2704 81.8968 58.2592C87.7205 57.8827 98.5209 58.5415 105.086 58.2592C105.14 59.6574 105.248 61.0623 105.198 62.4606C105.196 62.5457 104.979 62.4875 104.974 62.5726C104.936 63.5518 104.983 64.8156 104.974 65.8217C104.643 66.9084 104.737 67.919 104.526 69.1268C92.9034 69.1828 92.9033 69.1828 81.2806 69.2388C78.7598 69.6309 71.4617 69.4494 70.0769 69.687C70.059 69.6892 69.7946 69.8416 69.7968 69.911C69.6108 69.8729 69.3352 69.9379 69.1246 69.911C69.0686 69.855 69.0686 69.855 69.0126 69.799C69.0843 68.8893 68.9028 68.9475 68.9005 68.9027C68.8288 67.7487 69.6848 66.3886 67.6681 66.774C67.6659 66.7628 67.4687 66.8143 67.4441 66.718C67.4015 66.5454 67.4306 65.1427 67.5001 65.0934C68.7594 65.0105 68.7594 65.0105 70.0209 64.9254C70.0478 62.9378 70.0478 62.9378 70.0769 60.9481C73.3484 60.7464 76.6221 60.3095 79.6561 59.0434C80.3664 58.7477 80.0661 58.4138 81.3366 58.2592Z"
        fill="#F88C5A" />
    </g>
    <g id="Group_2">
      <path id="Vector_3"
        d="M59.2653 22.0736C55.7496 21.677 56.0902 16.6689 58.7052 15.4634C41.5993 15.6583 26.1987 26.1405 19.4944 41.8481C19.4429 41.9669 19.3936 42.0901 19.3443 42.2111C23.7362 42.3926 28.128 42.5091 32.5199 42.1506C32.7888 39.8919 33.3512 38.0568 34.3394 37.6467C34.969 37.3845 37.3868 37.2792 37.5324 37.0305C38.7939 24.7759 48.8862 23.2365 59.2653 22.7458C59.2833 22.571 59.29 22.2394 59.2653 22.0736Z"
        fill="#B17FB5" />
      <path id="Vector_4"
        d="M19.3443 42.2112C17.9125 45.6686 16.5434 50.4459 16.1333 54.058C15.9742 55.4629 16.0661 56.8611 16.0213 58.2594C23.7675 58.5439 31.5877 57.9277 39.3228 58.1473C38.7334 57.8964 38.4444 54.9475 38.0343 54.7862C35.3163 54.7459 33.7904 54.7974 32.9367 51.9293C32.3966 50.1165 32.1053 45.6305 32.5176 42.1484C28.128 42.5092 23.7362 42.3927 19.3443 42.2112Z"
        fill="#E68CAA" />
      <path id="Vector_5"
        d="M71.269 16.4561C84.8322 19.8799 95.0388 28.0385 100.941 40.7815C94.6668 40.8376 94.6668 40.8376 88.3927 40.8936C88.2538 40.1653 87.9961 38.1375 87.3284 37.7565C85.3969 37.3935 85.3969 37.3935 83.4631 37.0283C83.1449 33.945 82.2979 30.8864 80.214 28.5135C74.8945 22.4523 63.655 23.2321 62.7945 22.8556C62.1044 22.5531 63.3659 22.0557 63.7468 21.5672C64.6767 20.3706 59.42 16.8123 58.7052 15.4612C62.38 15.5329 66.6643 15.571 71.269 16.4561Z"
        fill="#B17FB5" />
      <path id="Vector_6"
        d="M105.086 58.2593C98.5209 58.5416 87.7183 57.8828 81.8969 58.2593C82.894 52.7269 83.6491 55.5973 86.5464 54.338C89.493 53.0585 88.9036 43.5398 88.395 40.8935C94.6691 40.8375 94.6691 40.8375 100.943 40.7815C103.746 46.8405 104.824 51.5953 105.086 58.2593Z"
        fill="#E68CAA" />
    </g>
    <path id="Vector_7"
      d="M101.165 79.8801C92.9302 79.8801 92.9302 79.8801 84.6955 79.8801C84.7695 71.307 76.0194 71.2106 69.7946 69.9088C69.7924 69.8393 70.0568 69.6869 70.0747 69.6847C71.4595 69.4472 78.7576 69.6287 81.2784 69.2365C92.9011 69.1805 92.9011 69.1805 104.524 69.1245C104.622 70.3211 103.713 71.3787 104.076 71.9815C103.908 72.1495 103.908 72.1495 103.74 72.3176C103.294 74.9392 102.485 77.6326 101.165 79.8801Z"
      fill="#F1D411" />
    <path id="Vector_8"
      d="M51.7589 69.4629C51.9404 69.7273 51.9673 69.9962 51.9829 70.0231C51.779 70.0343 51.9359 70.2987 51.8149 70.3592C51.546 70.4891 46.7822 71.2107 45.9329 71.3675C43.9835 71.726 40.8285 72.0016 39.2667 72.936C37.0775 74.2469 35.76 77.431 35.7376 79.8823C27.7269 79.9384 27.7269 79.9384 19.7163 79.9944C18.8536 78.0808 18.2979 76.082 17.5876 74.1124C17.3187 72.5932 16.9602 71.0964 16.6913 69.5749C34.2273 69.5189 34.2273 69.5189 51.7589 69.4629Z"
      fill="#F1D411" />
    <g id="Group_3">
      <path id="Vector_9"
        d="M41.0056 92.3164C41.0549 92.4979 40.9832 93.067 41.0056 93.4367C39.5872 94.2143 40.0241 96.5357 40.7815 97.6381C42.4531 100.074 46.6926 99.4106 47.0556 96.3497C48.716 96.4774 54.0467 96.1772 54.7861 96.3497C55.2791 96.464 55.2522 96.8561 55.5704 97.134C55.6017 97.6516 55.6578 98.1849 55.6824 98.7025C55.0192 100.746 53.8562 103.374 56.9708 103.632C57.1837 103.746 57.3428 104.835 57.8111 105.313C45.5296 105.14 34.8659 99.9013 26.7791 90.7478C28.7734 90.6112 38.9911 90.9293 39.6073 90.7478C39.7014 90.721 39.6118 90.5081 39.7754 90.5238C39.818 91.4492 39.7844 92.3186 41.0056 92.3164Z"
        fill="#35B8D3" />
      <path id="Vector_10"
        d="M81.4487 90.7478C85.6142 90.6828 89.8223 91.0301 93.9968 90.8598C92.3252 92.7129 89.2622 95.7581 87.3306 97.2459C81.0969 102.043 71.1727 105.514 63.3009 105.201C64.0583 104.484 64.0717 103.686 64.1412 103.632C64.363 103.46 67.2222 103.867 65.4296 99.2066C65.3938 98.9556 65.5506 98.9579 65.5417 98.7024C65.5372 98.5837 65.6291 96.6073 65.6537 96.3496C65.8733 96.3317 65.9495 96.2242 66.2139 96.2376C68.9835 96.381 71.7351 96.3631 74.5046 96.3496C75.1029 100.235 82.8312 100.244 81.0028 93.1006C80.651 91.7292 80.3373 91.7113 80.3306 90.9159C81.2134 90.8912 80.9602 90.6425 81.0028 90.6358C81.0566 90.629 81.0947 90.7545 81.4487 90.7478Z"
        fill="#35B8D3" />
    </g>
    <path id="Vector_11"
      d="M101.165 79.8801C101.277 79.907 101.277 79.907 101.389 79.9361C99.3612 83.5953 97.7187 86.4545 95.0029 89.6834C94.9402 89.7596 94.9066 90.1136 94.8909 90.1315C94.3755 90.7298 94.0327 90.8172 93.9946 90.8598C89.8223 91.0301 85.6142 90.6827 81.4464 90.7477C81.3904 88.8162 81.3904 88.8162 81.3344 86.8824C83.5752 84.7851 84.6686 83.0082 84.6955 79.8801C92.9302 79.8801 92.9302 79.8801 101.165 79.8801Z"
      fill="#9DCE4D" />
    <path id="Vector_12"
      d="M35.7398 79.8801C35.7129 83.0328 37.203 85.6254 39.9972 87.1065C40.0488 88.256 39.7171 89.3741 39.7732 90.5236C39.6096 90.508 39.6992 90.7208 39.6051 90.7477C38.9889 90.9292 28.7711 90.611 26.7769 90.7477C24.2426 87.8796 21.287 83.4698 19.7185 79.9922C27.7292 79.9361 27.7292 79.9361 35.7398 79.8801Z"
      fill="#9DCE4D" />
    <g id="Group_4">
      <path id="Vector_13"
        d="M72.0219 65.5327C75.2979 65.9696 72.3334 72.1137 69.6131 67.7734C69.5436 67.7981 69.3509 67.9953 69.333 67.9975C68.7773 68.0782 68.2754 68.2193 67.7645 68.4457C67.7533 68.4255 67.6502 68.3986 67.4284 68.1095C67.7107 67.6995 69.6288 67.2894 69.7251 67.2132C69.8461 67.1169 70.2181 65.2929 72.0219 65.5327Z"
        fill="#0D0D0B" />
      <path id="Vector_14"
        d="M74.2626 67.5494C74.1775 70.3235 69.5055 71.0428 69.333 67.9976C69.3509 67.9954 69.5436 67.7982 69.6131 67.7735C72.3334 72.1138 75.2979 65.9697 72.0219 65.5328C73.0907 64.8897 74.294 66.5254 74.2626 67.5494Z"
        fill="#F3E9EE" />
    </g>
    <path id="Vector_15"
      d="M79.6561 59.0435C76.6221 60.3096 73.3484 60.7465 70.0769 60.9482C70.05 62.9357 70.05 62.9357 70.0209 64.9255C68.7616 65.0084 68.7616 65.0084 67.5001 65.0935C67.4306 65.1428 67.4015 66.5455 67.444 66.7181C67.4687 66.8144 67.6659 66.7629 67.6681 66.7741C67.881 67.5046 67.9146 67.0721 68.0042 67.4463C66.0145 67.6749 66.8032 67.1864 66.6598 64.4773C67.8362 64.4213 67.8362 64.4213 69.0126 64.3653C68.9857 62.994 68.9857 62.994 68.9565 61.6204C63.413 62.3038 57.8133 62.1604 52.263 61.6204C52.2361 62.9357 52.2361 62.9357 52.207 64.2533C53.4954 64.3653 53.4954 64.3653 54.7839 64.4773C54.7234 64.8941 54.8645 67.164 54.7839 67.2783C54.4993 67.6816 52.9823 66.2789 53.3274 69.3509C53.249 69.3375 53.0831 69.0104 52.095 69.1269C52.5185 68.0087 51.7858 66.8682 53.8876 66.606C54.0399 64.2645 53.789 65.1989 51.3107 64.9255C51.2278 62.9379 51.2278 62.9379 51.1427 60.9482C48.4919 60.6569 42.3052 60.4306 41.0033 58.2593C42.4284 58.4587 45.2988 59.5701 47.5575 59.9398C54.6203 61.0961 68.7302 61.0535 75.6765 59.4917C78.8808 58.7724 80.2566 57.4436 79.6561 59.0435Z"
      fill="#F3E9EE" />
    <path id="Vector_16"
      d="M53.3274 69.3508C53.7486 69.427 54.199 69.6152 54.6158 69.3508C54.8623 69.5233 54.7839 69.781 54.7839 70.023C54.4702 71.4145 54.4545 70.3323 54.1677 70.2471C53.6075 70.0813 52.1353 70.4062 52.039 70.3591C51.9224 70.3031 52.0166 70.0835 51.9829 70.023C51.9673 69.9961 51.9404 69.7273 51.7589 69.4628C51.9583 69.5189 52.0546 69.2343 52.095 69.1267C53.0854 69.0102 53.249 69.3351 53.3274 69.3508Z"
      fill="#C2B7B2" />
    <path id="Vector_17"
      d="M68.9005 68.9028C67.6973 69.0395 68.0423 68.6183 68.0042 67.4464C67.9146 67.0722 67.881 67.5046 67.6681 66.7741C69.6848 66.3865 68.8288 67.7489 68.9005 68.9028Z"
      fill="#F8E4D2" />
    <path id="Vector_18"
      d="M54.7839 93.4366C54.8287 93.9632 55.0169 95.1799 55.0079 95.5653C55.0079 95.6057 54.8332 96.1995 54.7839 96.3496C54.0444 96.177 48.7137 96.4773 47.0533 96.3496C47.1273 95.7334 47.2841 91.6597 46.4931 91.7561C46.6097 91.3796 46.9614 91.1152 46.8292 90.4116C48.7339 93.235 51.7141 93.0826 54.7839 93.4366Z"
      fill="#9DCE4D" />
    <path id="Vector_19"
      d="M75.0626 93.5487C74.3993 93.8467 74.4105 95.7581 74.5024 96.3496C71.7328 96.3631 68.9812 96.381 66.2116 96.2376C66.4626 94.8371 66.4626 94.8371 66.7158 93.4366C69.4809 93.2663 72.6134 92.7375 74.5024 90.5237C75.4121 90.9181 74.9371 91.7942 75.0626 93.5487Z"
      fill="#9DCE4D" />
    <g id="Group_5">
      <path id="Vector_20"
        d="M65.5394 98.7024C65.5484 98.9578 65.3915 98.9556 65.4274 99.2066C67.22 103.867 64.3608 103.457 64.139 103.632C64.0695 103.686 64.0561 104.484 63.2987 105.201C61.9318 106.491 59.1488 106.673 57.8089 105.313C57.3406 104.835 57.1815 103.746 56.9686 103.632C53.854 103.374 55.0169 100.748 55.6802 98.7024C55.6847 98.7943 56.0477 98.5836 55.9043 100.439C55.8886 100.641 54.4836 103.101 57.5288 102.96C58.5125 106.31 62.4965 106.003 63.8029 102.96C67.0519 102.449 64.1143 98.7943 65.5394 98.7024Z"
        fill="#DDE1EA" />
      <path id="Vector_21"
        d="M69.7968 69.9112C76.0216 71.2131 84.7717 71.3094 84.6978 79.8825C84.6709 83.0083 83.5774 84.7875 81.3367 86.8848C81.3927 88.8163 81.3927 88.8163 81.4487 90.7501C81.0969 90.7546 81.0588 90.6291 81.0005 90.638C81.005 89.9636 81.1305 89.6656 80.5524 89.2376C81.1462 88.3547 80.7989 87.2209 80.8885 86.2126C84.3885 83.443 85.2154 78.1123 82.2329 74.6728C78.8315 70.7515 67.713 70.924 62.8528 70.9195C62.8528 70.8411 62.8237 70.7246 62.9088 70.6955C63.4488 70.5072 68.7504 70.9218 69.0708 70.6955C69.268 70.5565 68.9655 70.1084 69.1269 69.9112C69.3352 69.9381 69.6086 69.8709 69.7968 69.9112Z"
        fill="#F5F4ED" />
      <path id="Vector_22"
        d="M69.0126 69.7991C69.0686 69.8551 69.0686 69.8551 69.1246 69.9112C68.9633 70.1083 69.2658 70.5565 69.0686 70.6954C68.7504 70.9217 63.4466 70.5072 62.9066 70.6954C62.8214 70.7245 62.8505 70.8411 62.8505 70.9195C61.04 70.9172 57.4235 71.1951 57.1927 71.0315C57.1008 70.9665 57.1008 69.528 57.1927 69.463C57.6767 69.1202 67.5942 69.6557 69.0126 69.7991Z"
        fill="#BABBBF" />
      <path id="Vector_23"
        d="M45.9352 71.3677C44.4742 71.6881 44.9067 72.0085 44.7588 72.0399C44.5863 72.078 42.4889 72.1542 41.2856 72.488C40.9025 72.5934 39.8157 72.9832 39.7731 73.3843C35.4866 76.0329 35.5225 84.1309 40.2213 86.4367C40.4409 87.9447 40.1653 90.9876 40.2213 91.2542C40.358 91.8973 40.9182 92.0004 41.0056 92.3186C39.7844 92.3208 39.818 91.4514 39.7731 90.526C39.7171 89.3765 40.0488 88.2584 39.9972 87.1089C37.203 85.6278 35.7129 83.0352 35.7398 79.8825C35.7622 77.4311 37.0798 74.247 39.269 72.9362C40.8308 71.9996 43.9857 71.7262 45.9352 71.3677Z"
        fill="#F5F4ED" />
      <path id="Vector_24"
        d="M54.7839 70.0232C54.7839 70.1845 54.8309 70.7335 54.7278 70.8075C54.5486 70.9352 51.006 71.0539 50.3584 71.1436C48.6375 71.3856 46.9166 71.836 45.2047 72.1519C43.2485 72.5127 41.6128 72.246 39.7709 73.3843C39.8135 72.9832 40.9002 72.5956 41.2834 72.488C42.4867 72.1541 44.584 72.078 44.7566 72.0399C44.9044 72.0085 44.472 71.6881 45.9329 71.3676C46.7822 71.2108 51.546 70.4893 51.8149 70.3593C51.9359 70.2988 51.779 70.0344 51.9829 70.0232C52.0166 70.0837 51.9224 70.3033 52.039 70.3593C52.1353 70.4064 53.6075 70.0815 54.1677 70.2473C54.4545 70.3324 54.4702 71.4147 54.7839 70.0232Z"
        fill="#F5F4ED" />
      <path id="Vector_25"
        d="M47.0556 96.3496C46.6926 99.4104 42.4553 100.074 40.7815 97.638C40.0241 96.5356 39.5872 94.2142 41.0056 93.4366C41.1042 95.1127 40.526 97.5013 42.7421 98.1422C43.9006 98.4761 45.4602 98.1198 46.1593 97.0778C46.7755 96.1614 46.8584 93.0423 46.2713 92.1482C46.2108 91.8009 46.4887 91.7785 46.4954 91.7561C47.2864 91.6597 47.1273 95.7334 47.0556 96.3496Z"
        fill="#DDE1EA" />
      <path id="Vector_26"
        d="M74.5024 90.5237C72.6157 92.7376 69.4809 93.2664 66.7158 93.4367C66.4648 94.8371 66.4648 94.8371 66.2116 96.2376C65.9472 96.2242 65.8711 96.3317 65.6515 96.3496C65.7075 95.7962 66.0458 95.5318 66.0996 95.1732C66.1937 94.5593 66.0324 93.5218 66.0996 92.8205C66.3192 92.3253 72.5888 92.9011 73.9422 89.1232C74.5987 85.966 75.0066 86.3559 74.7265 89.3473C74.7197 89.4145 74.0318 89.4683 74.5024 90.5237Z"
        fill="#F5F4ED" />
      <path id="Vector_27"
        d="M74.5024 96.3497C74.4105 95.7581 74.3971 93.8468 75.0626 93.5487C75.0715 93.6697 75.2172 93.7392 75.2867 93.8288C74.2178 98.8122 79.0444 98.9444 80.2163 96.8538C81.014 95.431 80.0101 94.2792 81.0005 93.1006C82.829 100.242 75.1007 100.235 74.5024 96.3497Z"
        fill="#F5F4ED" />
      <path id="Vector_28"
        d="M54.7839 93.4367C51.7141 93.0827 48.7339 93.235 46.8292 90.4117C46.8494 89.9792 46.6388 89.381 46.7172 88.5631C46.9839 85.8003 47.19 88.8073 47.5015 89.5714C48.4896 91.9892 52.4535 92.4866 54.7279 92.5404C55.1312 92.9281 54.7816 93.3919 54.7839 93.4367Z"
        fill="#F5F4ED" />
      <g id="Group_6">
        <path id="Vector_29"
          d="M68.0042 67.4463C68.0423 68.616 67.6972 69.0395 68.9005 68.9028C68.9028 68.9476 69.0843 68.8893 69.0126 69.7991C67.5942 69.6579 57.6767 69.1201 57.1927 69.463C57.1008 69.5279 57.1008 70.9665 57.1927 71.0315C57.4235 71.195 61.04 70.9172 62.8505 70.9194C67.7129 70.9239 78.8315 70.7514 82.2307 74.6727C85.2131 78.1122 84.3863 83.4429 80.8863 86.2125C80.7966 87.2208 81.1439 88.3546 80.5501 89.2375C81.1283 89.6655 81.0028 89.9635 80.9983 90.638C80.9557 90.6447 81.2089 90.8934 80.3261 90.918C80.3328 91.7135 80.6465 91.7314 80.9983 93.1028C80.0079 94.2814 81.0117 95.4331 80.214 96.856C79.0444 98.9466 74.2156 98.8144 75.2844 93.831C75.2149 93.7414 75.0693 93.6719 75.0603 93.5509C74.9348 91.7964 75.4099 90.9203 74.5001 90.5259C74.0318 89.4705 74.7175 89.4167 74.7242 89.3495C75.0043 86.3581 74.5965 85.9682 73.94 89.1255C72.5866 92.9011 66.317 92.3275 66.0974 92.8227C66.0301 93.524 66.1915 94.5615 66.0974 95.1755C66.0436 95.534 65.7052 95.7984 65.6492 96.3518C65.6246 96.6095 65.5327 98.5859 65.5372 98.7046C64.1121 98.7965 67.0497 102.451 63.8006 102.962C62.4943 106.005 58.5102 106.312 57.5265 102.962C54.4814 103.103 55.8863 100.643 55.902 100.441C56.0454 98.5859 55.6824 98.7965 55.6779 98.7046C55.6533 98.187 55.5972 97.6537 55.5659 97.1361C55.5367 96.6588 56.1507 96.2376 55.0057 95.5676C55.0147 95.1822 54.8264 93.9655 54.7816 93.4389C54.7771 93.3941 55.1267 92.9302 54.7256 92.5426C52.4512 92.4888 48.4874 91.9914 47.4992 89.5736C47.1878 88.8095 46.9816 85.8024 46.715 88.5653C46.6365 89.3831 46.8472 89.9814 46.827 90.4139C46.9592 91.1175 46.6074 91.3819 46.4909 91.7583C46.4842 91.7807 46.2063 91.8031 46.2668 92.1505C46.8539 93.0445 46.771 96.1636 46.1548 97.0801C45.4557 98.122 43.8961 98.4783 42.7376 98.1444C40.5215 97.5036 41.0997 95.115 41.0011 93.4389C40.9787 93.0692 41.0504 92.5 41.0011 92.3185C40.9137 92.0003 40.3535 91.8972 40.2168 91.2542C40.1608 90.9897 40.4364 87.9446 40.2168 86.4366C35.518 84.1331 35.4821 76.0328 39.7687 73.3842C41.6105 72.246 43.2463 72.5126 45.2025 72.1518C46.9144 71.8359 48.6353 71.3855 50.3562 71.1435C51.0037 71.0539 54.5463 70.9351 54.7256 70.8074C54.8287 70.7335 54.7816 70.1845 54.7816 70.0231C54.7816 69.7811 54.86 69.5235 54.6136 69.3509C54.1968 69.6153 53.7464 69.4271 53.3251 69.3509C52.9801 66.2789 54.497 67.6816 54.7816 67.2782C54.8623 67.164 54.7211 64.8963 54.7816 64.4773C53.4932 64.3653 53.4932 64.3653 52.2048 64.2532C52.2317 62.9379 52.2317 62.9379 52.2608 61.6204C57.8111 62.1604 63.4085 62.3038 68.9543 61.6204C68.9812 62.9917 68.9812 62.9917 69.0103 64.3653C67.8339 64.4213 67.8339 64.4213 66.6576 64.4773C66.8032 67.1864 66.0145 67.6726 68.0042 67.4463Z"
          fill="#0D0D0B" />
        <g id="Group_7">
          <g id="Group_8">
            <path id="Vector_30"
              d="M64.7552 65.4297C64.7776 65.7344 65.0868 67.0497 64.6992 67.2223C60.7218 67.2223 60.7218 67.2223 56.7445 67.2223C56.6504 67.1551 56.6728 65.6807 56.6885 65.4297C60.7218 65.4297 60.7218 65.4297 64.7552 65.4297Z"
              fill="#C11F7B" />
            <path id="Vector_31"
              d="M64.7553 65.4297C60.722 65.4297 60.722 65.4297 56.6887 65.4297C56.7089 65.1137 56.6752 64.7933 56.6887 64.4774C57.0763 64.0314 57.8023 64.5334 57.8651 64.5334C60.1372 64.5199 62.4227 64.3115 64.6993 64.4213C65.0937 64.7799 64.7509 65.3781 64.7553 65.4297Z"
              fill="#570835" />
          </g>
          <g id="Group_9">
            <path id="Vector_32"
              d="M55.5681 97.1339C55.2499 96.8561 55.2768 96.464 54.7839 96.3497C54.8332 96.1996 55.0079 95.6058 55.0079 95.5654C56.153 96.2354 55.5412 96.6567 55.5681 97.1339Z"
              fill="#E8F1DD" />
            <path id="Vector_33"
              d="M57.4167 92.4282C60.5538 92.4282 60.5538 92.4282 63.6908 92.4282C63.776 93.8556 63.776 93.8556 63.8589 95.2852C60.6389 95.3703 60.6389 95.3703 57.4167 95.4532C57.4167 93.9407 57.4167 93.9407 57.4167 92.4282Z"
              fill="#0168B6" />
            <path id="Vector_34"
              d="M57.7529 96.2376C57.9859 96.0718 62.7295 96.3631 63.4667 96.2376C64.6879 98.9466 61.2977 97.6134 57.8649 97.9181C57.5826 97.7926 57.6856 96.2869 57.7529 96.2376Z"
              fill="#98318B" />
            <path id="Vector_35"
              d="M58.313 99.0386C60.7778 99.0386 60.7778 99.0386 63.2427 99.0386C63.9082 101.839 62.0483 100.56 58.4251 100.831C58.0285 100.715 58.0374 99.1596 58.313 99.0386Z"
              fill="#0168B6" />
            <path id="Vector_36"
              d="M42.294 86.6023C43.5824 86.6023 43.5824 86.6023 44.8708 86.6023C45.1151 86.7099 45.0725 88.0364 45.0389 88.1148C44.947 88.3187 40.9428 89.0089 42.294 86.6023Z"
              fill="#98318B" />
            <path id="Vector_37"
              d="M42.7421 91.8681C46.278 91.2384 46.278 94.2903 42.7421 93.6607C42.7421 92.7644 42.7421 92.7644 42.7421 91.8681Z"
              fill="#5C1084" />
            <path id="Vector_38"
              d="M43.9745 89.5154C44.2389 89.5266 44.6535 89.7081 45.2069 89.6275C46.8965 91.5792 42.22 91.0167 42.1259 90.8039C41.5702 89.5603 42.9841 89.4751 43.9745 89.5154Z"
              fill="#5C1084" />
            <path id="Vector_39"
              d="M42.7421 94.7811C46.0674 94.2949 45.2338 96.13 44.3106 96.3496C43.1275 96.632 42.052 96.1099 42.7421 94.7811Z"
              fill="#490664" />
            <path id="Vector_40"
              d="M60.3297 102.064C61.1162 101.9 62.129 102.117 61.7302 103.128C61.2551 104.333 58.2346 102.501 60.3297 102.064Z"
              fill="#7E1996" />
            <g id="Group_10">
              <path id="Vector_41"
                d="M42.6861 74.8408C44.7319 74.9663 43.2911 75.466 43.2463 76.7455C41.1736 76.9964 40.3423 79.8422 41.6778 81.6191C42.8519 83.1786 45.5565 83.2772 46.4954 81.451C47.7614 82.3204 47.255 80.008 47.8398 80.2186C47.5171 83.7007 43.6115 86.0109 40.6134 83.8038C37.5772 81.5675 38.7827 75.2598 42.6861 74.8408Z"
                fill="#01849D" />
              <path id="Vector_42"
                d="M47.8398 80.2163C47.255 80.0057 47.7614 82.3182 46.4954 81.4488C47.7054 79.096 45.9419 76.4161 43.2463 76.7432C43.2911 75.4637 44.7319 74.9641 42.6861 74.8386C45.9419 74.489 48.1311 77.0569 47.8398 80.2163Z"
                fill="#35B8D3" />
              <g id="Group_11">
                <path id="Vector_43"
                  d="M43.2463 76.7455C45.9419 76.4184 47.7054 79.0983 46.4954 81.4511C45.5565 83.2773 42.8519 83.1787 41.6778 81.6191C40.3423 79.8422 41.1736 76.9942 43.2463 76.7455Z"
                  fill="#C0EBE7" />
                <path id="Vector_44"
                  d="M43.3023 77.6395C45.8836 77.2742 46.7732 80.8392 44.5347 81.5608C41.373 82.5781 40.9249 77.9778 43.3023 77.6395Z"
                  fill="#0D0D0B" />
              </g>
            </g>
            <g id="Group_12">
              <path id="Vector_45"
                d="M76.7992 90.8597C78.296 90.9493 79.7323 90.3556 79.208 92.0361C78.9637 92.8181 75.7931 92.9638 76.7992 90.8597Z"
                fill="#8B3FAC" />
              <g id="Group_13">
                <path id="Vector_46"
                  d="M79.208 87.7227C79.2348 88.0252 79.5351 89.2329 79.1519 89.4032C77.8635 89.4032 77.8635 89.4032 76.5751 89.4032C76.4899 89.3427 76.4944 87.94 76.5191 87.7227C77.8635 87.7227 77.8635 87.7227 79.208 87.7227Z"
                  fill="#BA1C8F" />
                <path id="Vector_47"
                  d="M79.208 87.7227C77.8635 87.7227 77.8635 87.7227 76.5191 87.7227C76.5594 87.3597 76.5639 86.916 76.6871 86.8264C77.9195 86.8264 77.9195 86.8264 79.1519 86.8264C79.5351 87.1312 79.1878 87.5166 79.208 87.7227Z"
                  fill="#570835" />
              </g>
              <path id="Vector_48"
                d="M77.5834 93.9968C77.8747 94.1447 78.603 93.8109 78.7598 94.1649C79.45 95.7155 76.2771 95.6819 77.5834 93.9968Z"
                fill="#283095" />
              <g id="Group_14">
                <path id="Vector_49"
                  d="M75.2867 78.1996C73.037 80.2588 75.6676 84.2765 78.8718 82.7931C78.0473 83.8171 79.2304 84.0166 78.3677 84.3616C77.5117 84.7045 76.1605 84.3056 75.2867 84.2496C71.632 82.5041 72.7434 76.3084 76.6311 75.3987C76.2412 76.3151 75.0603 77.6551 75.2867 78.1996Z"
                  fill="#01849D" />
                <path id="Vector_50"
                  d="M81.5607 80.3283C80.9445 80.1043 80.9445 80.1043 80.3283 79.8802C80.0684 77.4938 76.9403 76.6871 75.2867 78.1996C75.0603 77.6551 76.2412 76.3129 76.6311 75.3987C79.9183 74.6301 81.8027 77.2787 81.5607 80.3283Z"
                  fill="#35B8D3" />
                <path id="Vector_51"
                  d="M81.5607 80.3283C81.312 83.4653 78.2377 85.659 75.2867 84.2496C76.1605 84.3056 77.5117 84.7044 78.3677 84.3616C79.2304 84.0165 78.0472 83.8171 78.8718 82.7931C80.0124 82.2643 80.456 81.0632 80.3283 79.8801C80.9445 80.1042 80.9445 80.1042 81.5607 80.3283Z"
                  fill="#1395AE" />
                <g id="Group_15">
                  <path id="Vector_52"
                    d="M80.3283 79.8801C80.456 81.0632 80.0124 82.2642 78.8718 82.793C75.6676 84.2786 73.037 80.2588 75.2867 78.1995C76.9381 76.6893 80.0684 77.4959 80.3283 79.8801Z"
                    fill="#E0F4F4" />
                  <path id="Vector_53"
                    d="M76.9112 78.1996C79.6494 77.8052 79.9721 81.6369 77.8075 82.0088C74.8497 82.5197 74.5876 78.5357 76.9112 78.1996Z"
                    fill="#0D0D0B" />
                </g>
              </g>
            </g>
            <g id="Group_16">
              <path id="Vector_54"
                d="M55.3441 89.8514C53.8271 89.7819 52.1756 89.838 50.6945 89.4033C47.6583 88.5114 49.5248 87.3283 48.0616 85.4259C50.2822 83.3152 50.9231 79.8218 50.1903 76.9111C49.5764 74.4732 47.7009 74.2827 49.4061 73.9421C54.6315 79.2191 48.7585 85.6007 55.3441 89.8514Z"
                fill="#01849D" />
              <g id="Group_17">
                <path id="Vector_55"
                  d="M55.3441 89.8515C48.7563 85.6008 54.6315 79.2192 49.4061 73.9422C52.8949 73.2454 66.7181 73.2722 70.5228 73.7182C75.5062 74.3007 72.6717 74.0319 71.4752 76.9112C70.301 79.7368 70.6483 83.6222 73.1557 85.6501C73.2274 85.8921 72.4051 87.2948 73.0437 88.1149C70.7559 90.3781 59.2071 90.0285 55.3441 89.8515Z"
                  fill="#35B8D3" />
                <g id="Group_18">
                  <path id="Vector_56"
                    d="M55.9603 79.2081C56.4801 79.0938 66.0951 79.0535 66.6038 79.2081C67.518 79.4882 67.2603 84.1579 67.1079 84.5298C67.0071 84.7763 66.606 85.0945 66.3797 85.146C65.8554 85.2648 57.1613 85.0475 55.6242 85.034C54.7727 84.8615 54.4612 79.5397 55.9603 79.2081Z"
                    fill="#0D0D0B" />
                  <g id="Group_19">
                    <path id="Vector_57"
                      d="M64.6431 80.6645C64.6476 80.8953 64.6924 81.2337 64.7552 81.4488C64.5669 81.5362 64.2734 81.4824 64.0829 81.4488C63.702 81.3816 63.2628 81.3614 63.2427 80.8886C62.9895 82.9725 62.911 82.1501 62.2904 83.1294C62.2702 83.1607 61.9766 82.9523 62.0663 83.6895C60.8092 83.7075 59.5118 83.7456 58.257 83.6895C58.0733 83.5461 57.9478 83.4363 57.8089 83.2414C57.708 80.8864 60.0474 83.0644 59.3774 81.5608C59.5074 81.572 59.6104 81.5832 59.6015 81.4488C59.7157 81.5407 60.7084 82.2174 60.7779 82.2331C60.9011 82.2599 61.9049 82.2599 62.0103 82.2331C63.5653 81.8364 61.2282 80.3732 64.6431 80.6645Z"
                      fill="#9DCE4D" />
                    <path id="Vector_58"
                      d="M59.6015 81.4488C59.6104 81.5832 59.5074 81.572 59.3774 81.5608C58.1562 81.46 56.7423 81.7602 57.8089 83.2414C57.9478 83.4363 58.0733 83.5461 58.257 83.6895C58.0307 83.6783 56.9932 83.7478 56.9126 83.6335C56.9126 82.289 56.9126 82.289 56.9126 80.9446C59.8031 80.3127 59.3034 81.2113 59.6015 81.4488Z"
                      fill="#C0EBE7" />
                    <path id="Vector_59"
                      d="M64.8672 83.6894C64.8806 83.5819 64.8448 83.4586 64.8672 83.3533C65.0801 82.3539 64.9994 82.2755 64.7552 81.4487C64.6924 81.2336 64.6476 80.8952 64.6431 80.6644C64.986 80.6935 65.3467 80.5524 65.5394 80.8325C65.5394 82.2329 65.5394 82.2329 65.5394 83.6334C65.4565 83.7499 65.0285 83.6715 64.8672 83.6894Z"
                      fill="#59BCC3" />
                    <path id="Vector_60"
                      d="M60.4417 80.7766C63.7446 80.3957 62.2881 82.0494 60.8899 81.6729C60.5202 81.5743 60.2289 81.1419 60.4417 80.7766Z"
                      fill="#A0CEC3" />
                    <path id="Vector_61"
                      d="M63.4107 83.1293C63.4869 83.1651 63.7737 83.7455 64.8672 83.3534C64.8448 83.4587 64.8807 83.5819 64.8672 83.6895C64.2062 83.7679 62.9111 83.6783 62.0663 83.6895C61.9767 82.9523 62.2702 83.1607 62.2904 83.1293C62.4024 83.3914 62.8573 82.8021 62.9066 82.7932C63.2853 82.7237 63.2404 83.0464 63.4107 83.1293Z"
                      fill="#6BCA95" />
                    <path id="Vector_62"
                      d="M64.083 81.4487C64.2734 81.4824 64.567 81.5361 64.7552 81.4487C64.9994 82.2756 65.0801 82.354 64.8672 83.3534C63.7737 83.7455 63.4869 83.1652 63.4107 83.1293C63.5228 82.5176 63.0365 81.3479 64.083 81.4487Z"
                      fill="#E0A40E" />
                    <path id="Vector_63"
                      d="M59.3774 81.5607C60.0474 83.0643 57.708 80.8863 57.8089 83.2413C56.7423 81.7624 58.1562 81.4621 59.3774 81.5607Z"
                      fill="#081721" />
                    <path id="Vector_64"
                      d="M64.083 81.4489C63.0365 81.348 63.5228 82.5177 63.4107 83.1294C63.2404 83.0465 63.2852 82.7238 62.9066 82.7933C62.8573 82.8023 62.4024 83.3916 62.2904 83.1294C62.911 82.1502 62.9895 82.9726 63.2427 80.8887C63.2628 81.3615 63.702 81.3839 64.083 81.4489Z"
                      fill="#212721" />
                  </g>
                </g>
              </g>
            </g>
          </g>
        </g>
      </g>
    </g>
    <path id="Vector_65"
      d="M63.8589 16.6958C64.0807 16.9849 64.1838 17.0117 64.195 17.0319C64.9098 18.3831 64.679 20.3729 63.7468 21.5694C63.3659 22.0579 62.1044 22.5553 62.7945 22.8578C63.6572 23.2343 74.8945 22.4545 80.214 28.5157C82.2957 30.8886 83.1449 33.945 83.4631 37.0305C85.3946 37.3935 85.3946 37.3935 87.3284 37.7588C87.9961 38.1374 88.2538 40.1676 88.3927 40.8958C88.9014 43.5399 89.4907 53.0585 86.5441 54.3402C83.6469 55.5995 82.894 52.7292 81.8946 58.2615C81.7109 58.2727 81.5159 58.2391 81.3344 58.2615C81.8946 56.274 81.8946 56.274 82.4548 54.2842C82.7752 53.9705 86.1117 54.4052 87.1603 52.7157C88.2897 50.8962 88.2135 43.6385 87.8326 41.4C87.1603 37.463 86.1318 38.6819 82.7909 37.8148C82.2173 25.5266 72.5641 23.8415 62.2343 23.5301C61.5509 21.4103 62.5906 21.9055 63.2987 21.0092C65.0128 18.8402 63.4398 15.022 59.8816 15.7995C57.6431 16.2902 56.4913 19.4116 58.201 21.0652C58.9741 21.8114 59.1175 21.0742 59.2653 22.0736C55.7496 21.677 56.0902 16.6689 58.7052 15.4634C60.4664 14.6545 62.678 15.1564 63.8589 16.6958Z"
      fill="#F3E9EE" />
    <path id="Vector_66"
      d="M59.2653 22.7458C48.884 23.2366 38.7939 24.776 37.5324 37.0306C37.3867 37.2793 34.9712 37.3846 34.3393 37.6468C33.3534 38.0546 32.7887 39.892 32.5199 42.1507C32.1076 45.6328 32.3989 50.1187 32.9389 51.9315C33.7926 54.7996 35.3185 54.7481 38.0366 54.7884C38.4466 54.9498 38.7357 57.8986 39.325 58.1496C39.753 58.1608 39.6432 58.0375 39.6611 58.0375C39.1569 56.106 39.1569 56.106 38.6528 54.1722C38.2405 53.7174 35.3746 54.5128 34.1713 52.9398C32.6274 50.9232 32.4795 39.6298 34.8995 38.431C35.6659 38.0523 38.1083 37.9515 38.2046 37.8148C39.1412 25.3563 48.5882 23.7251 59.2093 23.5301C59.3258 23.4472 59.2474 22.9206 59.2653 22.7458Z"
      fill="#F3E9EE" />
    <path id="Vector_67"
      d="M81.3366 58.2592C80.0661 58.4138 80.3686 58.7477 79.6561 59.0434C80.2566 57.4436 78.8808 58.7723 75.6788 59.4916C68.7325 61.0534 54.6225 61.096 47.5597 59.9397C45.3011 59.57 42.4329 58.4586 41.0056 58.2592C40.6694 58.2121 40.2034 58.2771 39.8292 58.2592C39.7395 58.2547 39.8336 58.0418 39.6611 58.0351C39.1569 56.1036 39.1569 56.1036 38.6528 54.1698C38.2405 53.715 35.3746 54.5104 34.1713 52.9374C32.6274 50.9208 32.4795 39.6274 34.8995 38.4286C35.6659 38.0499 38.1083 37.9491 38.2046 37.8124C39.1413 25.3539 48.5882 23.7226 59.2093 23.5277C59.3258 23.4448 59.2474 22.9182 59.2653 22.7434C59.2833 22.5687 59.29 22.2348 59.2653 22.0712C59.1175 21.0718 58.9741 21.8091 58.201 21.0629C56.4913 19.4092 57.6431 16.2879 59.8816 15.7971C63.4398 15.0196 65.0128 18.8378 63.2987 21.0069C62.5906 21.9032 61.5509 21.408 62.2343 23.5277C72.5641 23.8369 82.2173 25.522 82.7909 37.8124C86.1318 38.6773 87.1603 37.4606 87.8326 41.3976C88.2135 43.6361 88.2897 50.8916 87.1603 52.7134C86.1117 54.4029 82.7752 53.9682 82.4548 54.2819C81.8968 56.2716 81.8968 56.2716 81.3366 58.2592Z"
      fill="#0D0D0B" />
    <path id="Vector_68"
      d="M60.2177 17.8161C61.7346 17.3142 61.9005 19.9471 60.3297 19.4967C59.7493 19.3309 59.5947 18.0223 60.2177 17.8161Z"
      fill="#F5F4ED" />
    <path id="Vector_69"
      d="M51.8709 26.7791C47.2886 29.7346 43.0782 33.1002 42.1237 38.823C41.0033 45.5408 43.0222 51.5997 49.6862 54.2281C57.6251 57.3584 76.6961 56.2358 80.6622 46.6096C80.5726 49.4822 80.5188 52.3638 79.8779 55.1804C71.4684 59.4065 49.9596 59.3034 41.3955 55.2365C39.9569 50.2508 39.809 38.3009 41.4515 33.6716C43.132 28.9346 47.4342 27.7045 51.8709 26.7791Z"
      fill="#1395AE" />
    <path id="Vector_70"
      d="M85.7039 48.7361C84.3034 49.0722 84.3034 49.0722 82.9029 49.4083C82.8223 46.278 83.1046 43.1298 83.071 39.9972C86.2999 39.3676 85.9705 46.7956 85.7039 48.7361Z"
      fill="#1084D3" />
    <path id="Vector_71"
      d="M85.7039 48.7361C85.5604 49.787 85.2691 51.2838 84.1914 51.7611C82.457 52.5274 82.9567 51.4496 82.9029 49.4083C84.3034 49.0722 84.3034 49.0722 85.7039 48.7361Z"
      fill="#025AA0" />
    <path id="Vector_72"
      d="M37.9806 49.0723C37.156 49.3502 36.3336 49.0768 35.5157 48.9603C35.0945 46.1056 35.1258 39.054 37.9806 40.2774C37.9357 43.2083 38.0411 46.1437 37.9806 49.0723Z"
      fill="#1084D3" />
    <path id="Vector_73"
      d="M37.9806 49.0722C37.9626 49.9484 37.994 50.829 37.9806 51.7051C36.0356 52.328 35.7197 50.3427 35.5157 48.9602C36.3336 49.079 37.1537 49.3501 37.9806 49.0722Z"
      fill="#025AA0" />
    <path id="Vector_74"
      d="M80.6644 46.6073C76.6983 56.2335 57.6274 57.3561 49.6884 54.2258C43.0222 51.5974 41.0056 45.5407 42.1259 38.823C43.0805 33.1001 47.2908 29.7345 51.8731 26.779C58.5438 25.3875 74.3859 25.011 78.6478 31.5406C80.9759 35.1078 80.7944 42.444 80.6644 46.6073Z"
      fill="#B2D3B4" />
    <path id="Vector_75"
      d="M51.7028 35.742C55.0684 35.5269 58.6402 38.0545 59.0413 41.5119C59.8524 48.512 52.2048 51.4294 47.8936 47.954C43.6519 44.5324 45.4624 36.1386 51.7028 35.742Z"
      fill="#E8F1DD" />
    <path id="Vector_76"
      d="M51.2547 36.4143C59.6395 35.4127 60.8092 47.6718 53.3834 48.6264C44.3689 49.7848 44.4204 37.23 51.2547 36.4143Z"
      fill="#0D0D0B" />
    <g id="Group_20">
      <path id="Vector_77"
        d="M54.3357 39.5513C58.2861 42.1617 54.2013 48.5142 50.0783 45.1531C52.933 46.213 50.1052 44.9156 49.6302 43.9767C48.0415 40.8375 52.0255 38.0612 54.5038 40.3355C55.604 41.3439 55.3642 42.6816 55.4561 42.9684C55.6555 43.5868 55.8482 42.285 55.4561 41.1758C55.2343 40.5417 54.6046 40.1451 54.3357 39.5513Z"
        fill="#01617D" />
      <path id="Vector_78"
        d="M54.3357 39.5514C54.6024 40.1474 55.232 40.544 55.4561 41.1759C55.8482 42.2851 55.6555 43.587 55.4561 42.9685C55.3642 42.6817 55.604 41.3462 54.5038 40.3356C52.0255 38.0613 48.0415 40.8376 49.6302 43.9768C50.1052 44.9157 52.933 46.2131 50.0783 45.1532C46.6276 42.3366 50.6139 37.0888 54.3357 39.5514Z"
        fill="#1395AE" />
      <path id="Vector_79"
        d="M51.9269 40.3355C55.102 39.8583 55.5928 44.2792 52.9353 44.705C49.7982 45.2047 49.359 40.721 51.9269 40.3355Z"
        fill="#35B8D3" />
    </g>
    <path id="Vector_80"
      d="M71.4214 35.6301C79.0377 34.7428 81.4845 45.1981 75.2306 48.5144C68.9745 51.8307 62.6601 44.1808 66.8839 38.375C67.8071 37.1045 69.8663 35.8116 71.4214 35.6301Z"
      fill="#E8F1DD" />
    <path id="Vector_81"
      d="M71.1973 36.3021C76.5527 35.5582 80.1401 41.5208 77.0792 45.9933C74.7645 49.3769 69.4114 49.4037 67.22 45.8813C64.8201 42.025 67.4732 36.8197 71.1973 36.3021Z"
      fill="#0D0D0B" />
    <path id="Vector_82"
      d="M71.4214 38.7671C77.1173 37.8193 77.0972 46.9167 71.4214 45.9375C67.8093 45.3123 67.7578 39.3766 71.4214 38.7671Z"
      fill="#1395AE" />
    <path id="Vector_83"
      d="M71.9816 39.6634C75.0133 39.3609 75.8334 44.425 72.7658 44.8171C69.1941 45.272 68.8602 39.9749 71.9816 39.6634Z"
      fill="#1F1226" />
    <path id="Vector_84"
      d="M71.6454 40.3356C74.4262 39.7261 75.2373 43.6116 72.9899 44.2569C70.2562 45.0412 69.5347 40.7972 71.6454 40.3356Z"
      fill="#35B8D3" />
    <path id="Vector_85"
      d="M60.5 108.857C87.2071 108.857 108.857 87.2071 108.857 60.5C108.857 33.7929 87.2071 12.1426 60.5 12.1426C33.7929 12.1426 12.1426 33.7929 12.1426 60.5C12.1426 87.2071 33.7929 108.857 60.5 108.857Z"
      stroke="#A3A3A3" stroke-width="3" stroke-miterlimit="10" />
  </g>
</svg>
