<svg width="132" height="123" viewBox="0 0 132 123" fill="none" xmlns="http://www.w3.org/2000/svg">
  <path
    d="M86.2726 115.233C85.9072 115.162 85.7326 115.127 85.378 115.032C85.2603 115 85.1376 114.985 85.0202 114.951C83.8102 114.609 82.7278 114.017 81.564 113.61C81.713 113.362 81.713 113.362 81.8637 113.113C82.7342 113.739 83.4265 113.479 83.5365 112.362C85.0902 113.768 87.4699 114.04 86.2726 115.233Z"
    fill="#291406" />
  <path
    d="M73.7199 109.214C73.4925 109.401 73.2025 109.58 73.0222 109.809C72.9954 109.842 72.5238 109.718 72.7025 110.394C73.7416 112.459 73.7416 112.459 74.7804 114.526C74.6014 114.486 74.6014 114.486 74.4225 114.445C73.2517 114.247 72.8642 113.914 72.6737 113.864C67.7281 106.361 67.9807 107.622 65.1746 99.5859C66.0169 98.9948 67.0728 98.6314 67.9432 98.1412C70.8314 103.678 70.8314 103.678 73.7199 109.214Z"
    fill="#090806" />
  <path
    d="M73.2592 110.426C74.1022 111.588 74.5768 112.979 75.2187 114.249C75.1933 114.246 75.0968 114.546 74.7803 114.526C73.7413 112.461 73.7413 112.461 72.7025 110.394C72.5238 109.718 72.9953 109.842 73.0222 109.809C72.7904 110.528 73.0581 110.149 73.2592 110.426Z"
    fill="#674632" />
  <path
    d="M68.8585 97.4087C68.56 97.5706 68.2386 97.9744 67.9416 98.1422C67.0712 98.6324 66.0169 98.9948 65.173 99.587C64.8995 98.8024 64.6437 97.9573 64.4036 97.1583C65.2211 96.8359 65.8817 96.2601 66.5952 95.7717C68.6345 94.8791 67.2548 97.0904 68.8585 97.4087Z"
    fill="#944A01" />
  <path
    d="M70.9294 96.5588C70.6526 96.5939 69.3764 97.0889 69.2969 97.1314C69.7195 96.6735 68.4585 95.4239 68.7869 94.3851C69.1687 94.1335 69.5316 93.7582 69.923 93.5129C70.2639 94.3456 70.5803 95.6283 70.9294 96.5588Z"
    fill="#D88D08" />
  <path
    d="M69.2969 97.1314C69.1593 97.2061 69.0243 97.3184 68.8586 97.4087C67.2549 97.0904 68.6346 94.8791 66.5953 95.7717C67.3217 95.2752 68.0623 94.8615 68.7869 94.3851C68.4585 95.4239 69.7196 96.6735 69.2969 97.1314Z"
    fill="#AD6202" />
  <path
    d="M29.3865 89.0924C28.8223 89.5815 28.125 90.2478 27.394 90.4291C28.0255 90.6837 26.6768 91.9156 26.6054 91.8487C26.4677 91.7231 26.7919 91.0016 26.4489 90.8737C26.002 90.7073 19.3014 95.2491 18.2929 95.8042C17.5977 96.187 17.3687 96.5581 16.978 96.6362C16.1991 96.793 15.4224 96.2506 15.428 96.0062C15.4336 95.7921 18.9161 93.815 18.9745 93.6101C19.009 93.4875 18.0452 91.6242 18.2052 91.1814C18.2743 90.9898 21.2291 88.6868 21.2552 88.4855C21.3227 87.9601 20.6634 88.2316 20.6201 87.9667C20.6079 87.8926 21.6054 87.7891 21.7039 87.7413C22.6954 87.2619 23.3089 86.5108 23.8457 86.1555C24.5673 85.6799 25.7831 85.1549 26.4354 84.6705C27.9111 86.8808 27.9111 86.8808 29.3865 89.0924Z"
    fill="#090806" />
  <path
    d="M30.7417 88.0815C30.3214 88.4617 29.8074 88.7275 29.3865 89.0924C27.911 86.8808 27.9111 86.8808 26.4354 84.6705C26.5145 84.6115 26.3573 84.4622 27.8711 83.3018C29.3049 85.692 29.3049 85.692 30.7417 88.0815Z"
    fill="#AD6202" />
  <path
    d="M37.9711 45.9214C37.9089 46.1365 38.1649 46.2613 38.2484 46.3597C39.7539 48.1568 39.8919 48.5679 43.2522 49.1771C43.7261 52.6507 48.1531 56.3728 47.472 62.9987C46.7599 69.9264 43.4239 71.2833 41.3396 73.5529C37.7334 77.4764 36.7893 78.3918 35.0283 84.0668C33.6121 85.422 32.1966 86.7679 30.7427 88.0831C29.3076 85.6926 29.3076 85.6926 27.8721 83.3034C28.8353 82.5652 35.69 77.2225 35.7445 76.712C35.8059 76.14 34.918 76.452 34.7515 76.1127C36.7342 70.4711 32.6145 81.6962 26.8301 74.9878C22.6999 70.1964 20.1475 60.2636 23.4737 54.407C23.3754 54.2162 22.8381 54.1708 22.5992 54.117C17.4787 52.965 13.3147 58.758 11.9761 62.909C11.1 65.6261 12.331 65.2225 11.6679 66.7856C10.7173 69.029 7.42787 68.0379 8.39062 65.4844C8.78172 64.4473 10.1466 64.5705 10.3631 64.2364C11.2045 62.9357 12.4435 51.4398 24.0445 53.1264C24.9988 51.5191 25.9569 49.9318 27.387 48.71C25.3016 40.397 14.8653 46.4623 14.4051 47.1052C14.291 47.2647 13.999 50.1241 11.7067 48.659C8.79082 46.7943 20.7096 42.7569 22.0638 42.7199C23.4399 42.6838 24.7443 43.1062 25.8293 43.943C26.7154 44.6267 28.3612 47.8741 28.5932 47.9468C32.0558 46.7529 32.0558 46.7529 35.5198 45.5592C36.288 47.2673 36.9607 47.9304 36.1653 45.6112C36.4162 45.3987 37.5964 45.9647 37.9711 45.9214Z"
    fill="#090806" />
  <path
    d="M40.8685 55.5943C42.7675 62.6744 33.9518 63.4996 31.5007 56.3063C32.284 55.1118 33.1387 54.0995 34.4121 53.3913C34.9809 53.6564 35.0898 53.9773 35.8517 54.0911C36.1255 54.1307 37.739 53.252 40.8685 55.5943Z"
    fill="#3B404D" />
  <path
    d="M37.9939 52.504C37.5966 53.2392 37.0983 51.8923 34.4125 53.39C33.1401 54.0998 32.284 55.1118 31.5011 56.305C29.4291 59.4651 28.3389 63.5608 30.0012 67.1495C33.3031 74.2749 42.8758 71.3836 43.2619 60.8305C44.2591 60.7283 43.4779 58.2544 43.8475 57.3923C46.3754 71.4589 30.8093 76.6939 28.7932 64.9994C27.7793 59.1145 32.3008 50.8171 37.9939 52.504Z"
    fill="#B4AFA6" />
  <path
    d="M43.8474 57.3923C43.4776 58.2557 44.2587 60.7296 43.2619 60.8305C43.3824 57.5565 42.6733 55.6038 40.8065 52.9488C40.7006 52.7974 37.6345 50.1127 39.3617 50.1802C39.798 50.1988 43.0896 53.1743 43.8474 57.3923Z"
    fill="#70757C" />
  <path
    d="M40.8686 55.5943C37.7391 53.252 36.1242 54.1304 35.8508 54.0895C35.0888 53.9757 34.9786 53.6545 34.4112 53.3897C37.0983 51.8923 37.5966 53.2392 37.9925 52.5037C39.63 52.9887 40.4503 54.0321 40.8686 55.5943Z"
    fill="#70757C" />
  <path
    d="M80.5821 25.2521C75.3805 23.5701 74.2973 32.5134 74.9748 36.3936C76.3466 33.3696 76.9043 33.1713 79.7589 31.8323C79.8686 31.9544 79.506 33.5782 79.4049 33.8203C79.3481 33.957 79.354 34.1258 79.3045 34.2669C78.3314 34.3718 80.1568 32.863 79.0209 32.6061C78.8185 32.5605 76.9359 33.5186 76.1614 34.8756C75.7786 35.5468 75.0504 37.9418 75.077 38.8602C75.0956 39.5215 74.9682 39.3804 75.3723 40.0544C75.1853 40.2209 74.964 40.5333 74.6343 40.8282C73.4269 41.5965 73.6623 36.3055 73.2363 35.3453C73.098 35.0329 72.7272 35.2417 72.5007 35.2731C72.3249 35.298 72.0459 35.6112 72.0423 35.6392C71.9989 35.9299 72.4564 41.2328 72.604 41.4978C72.6223 41.5322 73.1916 41.5326 73.0199 42.1553C70.9605 43.9668 69.1725 45.6939 66.9611 47.3697C67.3049 46.7199 66.4437 46.5837 66.4264 46.4042C66.4162 46.3032 67.5231 45.5973 68.0208 45.1659C70.5096 43.001 70.2686 42.7245 67.8821 44.9467C67.662 44.7175 64.3727 42.342 64.171 42.2322C64.557 40.4064 65.1748 38.6973 65.9149 36.9869C67.1563 34.116 73.8835 23.0522 77.1965 23.176C78.926 23.2399 79.6742 23.9818 80.5821 25.2521Z"
    fill="#DAD4C9" />
  <path
    d="M80.5821 25.2521C82.6552 28.1552 81.8746 30.9115 80.3411 33.8429C80.2049 33.9605 80.0266 34.3141 79.9527 34.3194C79.9053 34.3225 79.7268 33.75 79.4076 33.8209C79.5087 33.5788 79.8713 31.955 79.7616 31.8329C76.9057 33.1716 76.3493 33.3702 74.9774 36.3942C74.2971 32.5147 75.3806 23.5701 80.5821 25.2521Z"
    fill="#DAD4C9" />
  <path
    d="M80.3411 33.8429C81.8742 30.9128 82.6549 28.1565 80.5821 25.2521C79.6745 23.9805 78.926 23.2399 77.1968 23.1747C73.8838 23.0509 67.1566 34.1147 65.9153 36.9856C66.4742 35.2084 67.2969 33.485 68.1959 31.8611C69.6044 29.3145 74.2313 22.4211 77.4965 22.6782C82.2999 23.0564 83.4664 31.1599 80.3411 33.8429Z"
    fill="#1C191B" />
  <path
    d="M79.2008 36.4045C77.8893 37.5748 76.6987 38.8724 75.3726 40.0531C74.9685 39.3791 75.0959 39.5202 75.0773 38.8588C77.1747 37.2631 77.1747 37.2631 79.2717 35.6686C79.2353 36.0377 79.2353 36.0377 79.2008 36.4045Z"
    fill="#DAD4C9" />
  <path
    d="M74.6342 40.8282C74.1175 41.2895 73.5346 41.7031 73.0196 42.1566C73.1913 41.5339 72.622 41.5335 72.6036 41.4992C72.552 38.3868 72.552 38.3868 72.5003 35.2744C72.7269 35.243 73.0977 35.0342 73.2359 35.3466C73.6623 36.3055 73.4285 41.5955 74.6342 40.8282Z"
    fill="#DAD4C9" />
  <path
    d="M72.502 35.2734C72.5537 38.3858 72.5537 38.3858 72.6053 41.4981C72.4578 41.2331 72 35.9315 72.0437 35.6395C72.0473 35.6115 72.325 35.298 72.502 35.2734Z"
    fill="#B4AFA6" />
  <path
    d="M68.0208 45.1659C68.0895 44.9522 67.9034 44.968 67.8821 44.9467C70.2689 42.7232 70.5099 42.9997 68.0208 45.1659Z"
    fill="#090806" />
  <path
    d="M57.9153 84.2354C57.1638 84.2036 55.3693 88.9051 55.8538 89.2213C55.6053 89.2463 53.9996 90.2242 53.3446 90.3485C53.958 87.1648 54.8647 86.086 56.3856 83.5154C57.8746 83.1602 57.6418 83.8899 57.9153 84.2354Z"
    fill="#090806" />
  <path
    d="M57.9154 84.2354C57.9475 84.2756 58.6886 84.7318 58.7095 84.8833C58.8712 86.1037 56.874 89.0776 58.296 90.8985C57.1937 89.9741 57.0263 89.1023 55.8538 89.2213C55.3693 88.9051 57.1638 84.2035 57.9154 84.2354Z"
    fill="#52584D" />
  <path
    d="M58.0906 93.4825C57.1728 95.9583 56.5146 97.0848 55.2712 99.3309C55.0354 99.7567 55.3374 100.11 55.2488 100.266C54.3938 101.761 52.1537 104.266 50.8607 105.573C50.1801 106.263 49.4521 106.895 48.7272 107.537C48.3331 107.886 47.9693 108.265 47.5509 108.588C47.1494 108.5 45.7904 108.321 45.822 107.918C46.5398 107.594 46.7784 107.125 46.9781 106.957C47.2643 106.715 47.7164 106.621 48.5525 105.807C48.5874 105.774 49.371 105.474 49.4088 105.343C49.4581 105.173 48.9574 104.41 48.9144 104.198C48.6801 103.026 48.2814 103.633 48.8025 101.354C49.0462 100.289 50.1324 97.6686 50.6449 96.5065C51.1405 95.3832 51.9413 92.6711 53.2611 92.3973C54.2098 92.1991 56.9684 93.0736 58.0906 93.4825Z"
    fill="#090806" />
  <path
    d="M46.3687 21.1263C46.5706 21.479 46.4847 21.5379 46.9839 21.7339C46.8522 22.0939 46.5141 22.0412 46.8029 22.5383C48.906 26.174 51.5908 29.3588 53.5464 33.0765C48.5353 29.511 42.6559 27.4941 37.3712 24.3638C37.3274 23.8147 37.5461 23.2574 37.7335 22.7536C42.44 25.2763 38.7145 20.9423 36.2461 21.0099C36.5019 21.2636 36.5864 21.7052 36.7808 21.9753C36.5777 21.9818 36.2149 22.5271 36.0831 22.5702C32.783 16.9914 27.004 13.4302 33.1201 7.33965C36.9833 3.49316 43.2054 5.67639 47.3065 8.18234C49.7709 9.68757 50.0119 9.7322 49.4614 12.801C49.2305 12.8822 47.0187 10.4679 46.5062 10.0686C41.9435 6.52853 45.8033 10.0888 47.0787 11.7011C49.155 14.3278 52.2256 20.7618 51.5686 20.9803C44.9793 20.8013 46.3639 18.4525 42.2362 15.6867C40.0936 14.2512 35.2128 11.9485 32.6684 12.6891C34.1112 13.2346 35.7341 13.4062 37.1698 13.983C40.1845 15.195 44.745 18.2872 46.3687 21.1263Z"
    fill="url(#paint0_linear_6_2356)" />
  <path
    d="M61.3267 27.3095C61.8916 30.9888 61.859 37.1102 61.2918 40.8325C60.8732 40.8028 60.2688 40.6353 59.8605 40.5105C59.9038 35.3052 59.9038 35.3052 59.9471 30.0999C59.252 22.6513 56.3239 15.035 50.314 10.268C49.7928 15.1765 50.8073 14.613 51.9636 17.9684C53.443 22.2541 54.9273 26.4996 56.2055 30.8566C56.1167 30.8366 56.1167 30.8366 56.0266 30.8163C54.9862 27.8602 53.8032 24.9405 52.4396 22.1161C49.4035 21.6211 49.4035 21.621 46.3675 21.126C44.7438 18.2869 40.1832 15.1947 37.1685 13.9827C35.7342 13.4062 34.1102 13.233 32.6672 12.6888C35.2115 11.9482 40.0924 14.2509 42.2349 15.6864C46.3636 18.4538 44.9793 20.8013 51.5674 20.9801C52.2243 20.7615 49.1538 14.3275 47.0775 11.7008C45.8033 10.0888 41.9423 6.52824 46.5049 10.0683C47.019 10.4666 49.2306 12.8822 49.4602 12.8008C50.0107 9.73191 49.7696 9.68728 47.3052 8.18205C43.2028 5.67581 36.982 3.49287 33.1188 7.33936C27.0028 13.4299 32.7818 16.9911 36.0818 22.5699C35.7409 22.6826 33.5701 20.0676 33.117 19.4593C26.0057 9.91552 32.9672 3.14667 41.0312 4.32699C51.6839 5.88664 59.7708 17.1798 61.3267 27.3095Z"
    fill="#090806" />
  <path
    d="M57.8924 40.0678C56.6562 39.7691 56.5738 39.5804 56.5014 39.5669C55.2273 36.3688 53.2658 33.3481 50.218 31.5758C46.4787 29.401 41.9761 28.8078 38.4995 26.0267C40.5203 30.7537 45.6108 30.9537 49.158 33.7809C50.198 34.6103 53.1164 37.9396 53.0216 39.1599C52.8341 39.1576 52.5118 39.0535 51.9079 39.0973C49.2466 32.7101 44.9181 33.2702 41.3901 30.7176C39.6957 29.4912 37.5403 26.4969 37.3699 24.3635C42.6529 27.4948 48.5337 29.5121 53.5451 33.0762C51.5891 29.3598 48.9044 26.175 46.8016 22.5381C46.8174 22.3152 46.8673 22.1179 47.1498 22.2405C48.2458 22.7175 58.9706 37.0257 57.8924 40.0678Z"
    fill="#090806" />
  <path
    d="M37.7336 22.7536C37.3271 22.5359 37.0536 22.355 36.7809 21.9753C36.5865 21.7052 36.5023 21.2623 36.2462 21.0099C38.7146 20.9423 42.4401 25.2763 37.7336 22.7536Z"
    fill="#090806" />
  <path
    d="M59.8605 40.5106C59.2262 40.3171 58.5404 40.2246 57.8924 40.0678C58.9706 37.0257 48.2458 22.7175 47.1509 22.2421C46.8684 22.1195 46.8185 22.3169 46.8026 22.5397C46.5142 22.0412 46.8522 22.0939 46.9836 21.7352C46.4857 21.5395 46.5707 21.4791 46.3685 21.1276C49.4045 21.6227 49.4045 21.6227 52.4405 22.1177C53.8028 24.9419 54.9874 27.8605 56.0275 30.8179C56.5212 32.2214 56.7364 33.7352 57.4183 35.0767C57.4081 33.5913 56.6085 32.2301 56.2064 30.8582C54.9293 26.5028 53.4437 22.257 51.9646 17.9701C50.8069 14.6144 49.7925 15.1778 50.315 10.2696C56.3235 15.0364 59.2529 22.6529 59.948 30.1015C59.9037 35.3052 59.9037 35.3052 59.8605 40.5106Z"
    fill="#B4AFA6" />
  <path
    d="M56.0278 30.8166C56.1166 30.8366 56.1166 30.8366 56.2068 30.8569C56.6088 32.2288 57.4084 33.59 57.4186 35.0754C56.7367 33.7338 56.5219 32.2188 56.0278 30.8166Z"
    fill="#474441" />
  <path
    d="M56.5015 39.5669C55.7457 39.4257 53.6782 39.1691 53.023 39.1602C53.1178 37.9399 50.1997 34.6093 49.1594 33.7812C49.3989 32.6799 50.6127 32.6881 50.2194 31.5761C53.2669 33.3497 55.2274 36.3688 56.5015 39.5669Z"
    fill="#C3C5B6" />
  <path
    d="M50.2194 31.5761C50.6127 32.6881 49.3989 32.6799 49.1594 33.7812C45.6122 30.954 40.5214 30.7553 38.5009 26.0269C41.9775 28.8081 46.4788 29.401 50.2194 31.5761Z"
    fill="#C4BD9C" />
  <path
    d="M70.9294 96.5588C71.7048 98.6253 72.939 101.604 73.4959 103.526C73.6264 103.976 73.8296 104.519 73.9298 104.939C74.0587 105.483 74.2056 106.159 74.2832 106.71C74.304 106.862 74.3664 106.957 74.3816 107.108C74.6648 109.905 74.3436 108.698 73.7197 109.215C70.8312 103.679 70.8312 103.679 67.9414 98.1435C68.2384 97.9757 68.5598 97.572 68.8583 97.41C69.0237 97.321 69.1591 97.2074 69.2966 97.1327C69.3764 97.0889 70.651 96.595 70.9294 96.5588Z"
    fill="#090806" />
  <path
    d="M95.3125 80.0578C95.3717 81.3196 95.6415 82.0046 95.1653 83.2187C94.9874 83.674 93.9152 85.226 93.3494 85.4417C94.6451 83.2746 93.8064 80.416 93.2199 78.0833C92.9601 78.4392 92.6955 78.7309 92.3528 79.016C92.9146 77.8486 93.702 77.2149 94.0119 75.8193C94.6629 77.9387 94.6629 77.9387 95.3125 80.0578Z"
    fill="#090806" />
  <path
    d="M87.9162 64.4871C87.3746 65.9005 86.9055 67.1011 86.0962 68.3995C84.9515 70.237 83.5195 71.1318 81.9695 72.5448C81.7906 72.5045 81.7906 72.5045 81.6117 72.4643C80.3933 70.7811 80.3933 70.7811 79.1753 69.0967C80.4526 67.7184 82.0375 66.4793 82.6278 64.6117C83.2145 62.7543 82.9679 61.8193 82.3412 60.0374C84.9546 61.2826 86.0729 62.3738 87.9162 64.4871Z"
    fill="#F6D007" />
  <path
    d="M90.0357 75.1114C88.9379 76.5698 87.5492 77.51 86.0701 78.5411C85.9813 78.5211 85.9813 78.5211 85.8912 78.5008C83.9297 75.5227 83.9297 75.5227 81.9694 72.5448C83.521 71.1308 84.9527 70.2373 86.0961 68.3995C87.7752 70.425 89.2508 72.5749 90.0357 75.1114Z"
    fill="#555C64" />
  <path
    d="M88.2875 82.0473C88.2675 82.1361 88.2675 82.1361 88.2472 82.2263C85.0505 83.3908 81.7498 84.2673 78.3386 84.5069C77.8926 83.3912 77.3708 82.0637 76.8756 80.9837C80.0012 80.7758 83.0727 79.8383 85.891 78.5021C85.9798 78.5221 85.9798 78.5221 86.0699 78.5424C87.1792 80.2956 87.1792 80.2957 88.2875 82.0473Z"
    fill="#D88D08" />
  <path
    d="M82.6262 64.6127C82.0359 66.4803 80.451 67.7194 79.1736 69.0977C79.0848 69.0777 79.0848 69.0777 78.9947 69.0574C78.6644 67.8786 74.6609 64.994 74.6326 64.2234C74.5401 61.7193 79.6792 58.3368 82.6262 64.6127Z"
    fill="#555C64" />
  <path
    d="M76.8755 80.9837C77.3706 82.0637 77.8908 83.3922 78.3384 84.5069C79.1899 86.6316 79.8102 89.0336 80.5874 91.2143C80.8753 92.02 81.2498 92.7765 81.3568 93.643C81.2539 93.6487 81.1871 93.5431 80.979 93.6513C80.9648 93.6591 81.1584 93.8357 81.0976 93.9593C81.0257 93.8704 80.2737 93.8466 80.2031 93.758C79.162 92.4578 78.5789 90.7076 76.9323 89.9214C76.6861 89.5217 75.5002 82.5718 74.8488 80.8076C73.7703 77.8868 71.3046 75.6802 72.3467 75.6402C73.3882 75.6029 75.6923 78.4001 76.8755 80.9837Z"
    fill="#444D51" />
  <path
    d="M79.1737 69.0977C80.3921 70.7809 80.3921 70.7809 81.6101 72.4653C79.5105 73.992 76.9857 74.8838 74.4241 75.1705C74.1405 73.5097 74.1405 73.5097 73.8557 71.8486C75.6478 71.0361 77.3116 70.0686 78.9932 69.0584C79.0849 69.0777 79.0849 69.0777 79.1737 69.0977Z"
    fill="#D88D08" />
  <path
    d="M70.7499 89.0012C70.1382 87.3598 69.4947 85.6949 68.8531 84.0646C71.3299 83.9166 71.3299 83.9166 73.8052 83.7696C74.4645 86.2669 74.4645 86.2669 75.125 88.7644C72.9375 88.8828 72.9375 88.8828 70.7499 89.0012Z"
    fill="#944A01" />
  <path
    d="M58.296 90.8985C58.5107 91.0785 58.6573 91.2377 58.9714 91.2384C58.7877 91.9146 58.6848 92.6159 58.5086 93.2952C58.2404 93.5299 58.0982 93.4608 58.0906 93.4824C56.9683 93.0735 54.2097 92.1991 53.2613 92.396C53.0898 91.6947 53.2129 91.0377 53.3462 90.3474C54.0012 90.2231 55.6069 89.2453 55.8554 89.2202C57.0262 89.1022 57.1937 89.9741 58.296 90.8985Z"
    fill="#F6D007" />
  <path
    d="M74.4253 75.1708C71.6468 75.4828 69.6186 75.1061 66.8298 74.6831C69.22 73.8406 71.5484 72.895 73.8572 71.8475C74.1418 73.51 74.1417 73.51 74.4253 75.1708Z"
    fill="#944A01" />
  <path
    d="M79.7242 94.2156C81.0028 95.631 81.0028 95.631 82.2814 97.0465C82.0022 97.7876 81.4716 97.9015 80.7473 98.0171C80.2614 96.3835 80.1169 97.6722 79.9831 97.6572C78.5331 97.4915 77.742 95.6287 78.8878 94.5913C79.7251 94.047 79.6828 94.2351 79.7242 94.2156Z"
    fill="#E7D807" />
  <path
    d="M67.6285 81.1589C64.7576 80.1371 64.7576 80.1371 61.8867 79.1153C63.3885 78.5874 64.9082 78.0101 66.5332 78.093C66.7707 78.2329 67.4265 80.6662 67.6285 81.1589Z"
    fill="#8F7417" />
  <path
    d="M82.3396 60.0384C82.966 61.8216 83.2129 62.7553 82.6262 64.6127C79.6793 58.3368 74.5402 61.7193 74.6326 64.2234C74.661 64.994 78.6648 67.8773 78.9948 69.0574C77.3129 70.0689 75.6494 71.0351 73.8572 71.8475C71.5485 72.8949 69.2201 73.8406 66.8298 74.6831C69.6187 75.106 71.6455 75.4825 74.4254 75.1708C76.9869 74.8841 79.5118 73.9923 81.6114 72.4656C81.7903 72.5058 81.7903 72.5058 81.9692 72.5461C83.9308 75.5242 83.9308 75.5242 85.891 78.5021C83.0737 79.8399 80.0011 80.7758 76.8756 80.9837C75.6924 78.4002 73.3883 75.6029 72.3449 75.6425C71.3031 75.6812 73.7685 77.8891 74.847 80.8099C75.4984 82.5741 76.6843 89.524 76.9305 89.9238C78.5771 90.7099 79.1602 92.4601 80.2013 93.7604C80.1184 93.8666 79.7532 94.2029 79.7227 94.2166C79.6813 94.2361 79.7236 94.048 78.8863 94.5923C75.7861 96.6087 77.7782 98.4934 80.7471 98.0184C81.4701 97.9025 82.0016 97.7902 82.2812 97.0478C82.6524 96.0625 81.7351 94.7489 81.0958 93.9616C81.1569 93.8368 80.9631 93.6614 80.9772 93.6536C81.1853 93.5454 81.2521 93.651 81.355 93.6453C85.7537 93.3768 88.5014 93.7631 92.677 90.9308C93.655 90.2673 94.5402 89.8024 95.0699 88.6497C95.696 87.9646 94.8509 91.9344 94.4014 93.2917C92.7536 98.2623 88.7485 102.465 83.7137 104.042C83.6202 104.22 83.8842 104.657 83.8906 104.927C83.9143 106.066 84.121 107.196 84.0609 108.347C83.8261 112.843 81.87 110.859 83.5335 112.363C83.4236 113.479 82.7312 113.739 81.8607 113.114C81.608 112.932 78.9938 108.574 78.5339 107.856C78.4445 107.716 78.343 107.558 78.2566 107.418C77.0335 105.426 75.9723 103.343 74.7329 101.363C74.7896 101.154 74.6091 100.498 74.9362 99.6239C73.0801 97.6532 71.8654 92.0016 70.7481 89.0035C72.9356 88.8851 72.9356 88.8851 75.1232 88.7667C74.4639 86.2694 74.4639 86.2694 73.8033 83.7719C71.3265 83.9199 71.3265 83.9199 68.8512 84.0669C68.4715 83.102 68.0213 82.1268 67.6256 81.1596C67.4237 80.6669 66.7678 78.2336 66.5304 78.0938C64.9067 78.0111 63.3856 78.5881 61.8839 79.116C61.8362 79.1327 60.8065 78.9285 60.8888 79.3614C65.0058 82.1138 68.0253 88.8848 69.9197 93.5149C69.5284 93.7602 69.1654 94.1355 68.7837 94.3871C68.0591 94.8634 67.3184 95.2772 66.5921 95.7737C65.8788 96.2608 65.218 96.838 64.4004 97.1603C64.0399 95.9637 62.875 93.7562 62.5475 91.1991C61.9293 86.3911 63.7592 82.9227 60.6831 81.9467C60.0403 85.0235 59.7953 88.1981 58.9685 91.2391C58.6545 91.2384 58.5078 91.0792 58.2931 90.8992C56.8711 89.0783 58.868 86.1057 58.7066 84.884C58.6871 84.7328 57.9446 84.2763 57.9125 84.2361C57.6377 83.8903 57.8704 83.1606 56.3828 83.516C56.5842 83.1758 56.8588 82.4857 57.0626 82.1653C57.4615 81.5388 58.0198 81.46 58.3597 80.5774C58.9179 79.1266 57.2396 76.835 56.9011 75.3635C56.816 74.9918 56.4632 73.3826 56.9861 73.315C56.7322 75.6328 60.029 74.2122 60.5591 72.0512C61.4359 74.1611 63.0438 72.2891 62.0166 73.5069C61.1262 74.562 58.4854 75.4387 62.3724 74.4321C62.0976 73.8846 61.3724 74.1262 62.0166 73.5069C63.2601 73.6879 65.2371 72.5905 64.9662 71.2577C66.4451 71.1912 70.0841 68.0667 69.312 66.9737C73.1625 64.9217 69.8804 65.484 70.1528 64.9073C70.2029 64.8006 70.7454 65.0543 72.2639 63.8785C70.3721 59.865 72.1491 63.2545 72.7246 62.6664C73.7813 59.7073 74.7616 58.6066 72.6148 58.977C72.318 58.5521 73.3783 58.3338 73.7106 58.2837C76.4474 57.8704 79.8946 58.8737 82.3396 60.0384Z"
    fill="#090806" />
  <path
    d="M81.7324 98.2373C82.4483 98.5068 84.0175 105.113 83.6996 106.197C81.7974 105.614 79.2548 101.109 79.1131 99.4331C79.0195 98.3062 81.5755 98.1787 81.7324 98.2373Z"
    fill="#1C191B" />
  <path
    d="M80.749 98.0161C77.7801 98.4911 75.788 96.6064 78.8882 94.59C77.7424 95.6274 78.5335 97.4902 79.9835 97.6559C80.1183 97.6725 80.2628 96.3838 80.749 98.0161Z"
    fill="#B09508" />
  <path
    d="M81.0974 93.9606C81.7369 94.7466 82.654 96.0615 82.2828 97.0468C81.0042 95.6313 81.0042 95.6313 79.7256 94.2159C79.7561 94.2022 80.1213 93.8659 80.2042 93.7597C80.2735 93.848 81.0255 93.8717 81.0974 93.9606Z"
    fill="#FEFCDD" />
  <path
    d="M62.0205 73.5078C61.3763 74.1271 62.1015 73.8855 62.3762 74.433C58.4895 75.4383 61.1314 74.5632 62.0205 73.5078Z"
    fill="#E4A903" />
  <path
    d="M60.6212 72.6291C60.7144 72.6171 60.9454 73.3894 60.8868 73.534C60.5405 74.3905 60.3019 72.6698 60.6212 72.6291Z"
    fill="#D1A047" />
  <path
    d="M94.0118 75.8193C93.7016 77.2162 92.9142 77.8499 92.3527 79.016C91.0447 80.0979 89.9006 81.3716 88.2887 82.0476C87.1794 80.2943 87.1794 80.2943 86.0701 78.541C87.5492 77.51 88.9393 76.5701 90.0358 75.1113C90.9403 73.9085 91.7581 72.56 92.075 71.0603C92.9851 71.5888 94.2602 74.6966 94.0118 75.8193Z"
    fill="#F6D007" />
  <path
    d="M92.075 71.0603C91.7582 72.56 90.9403 73.9085 90.0358 75.1114C89.2499 72.5733 87.7756 70.4237 86.0961 68.3995C86.9042 67.1009 87.3745 65.9005 87.9162 64.4871C88.8728 65.5831 92.1672 69.9491 92.075 71.0603Z"
    fill="#090806" />
  <path
    d="M88.2471 82.2263C89.4364 84.2706 90.6181 87.9157 91.6545 87.1267C91.5016 87.2515 91.333 87.4701 91.1759 87.5829C90.7215 87.9074 88.7198 88.8277 88.0092 89.1261C83.7183 90.9281 81.429 90.6875 80.7567 90.8765C80.5925 90.9233 80.6156 91.089 80.5874 91.2143C79.8103 89.0336 79.19 86.6316 78.3385 84.5069C81.7497 84.2673 85.0504 83.3908 88.2471 82.2263Z"
    fill="#090806" />
  <path
    d="M93.3493 85.4417C92.962 86.09 92.2343 86.6535 91.6542 87.128C90.6168 87.9154 89.4361 84.2719 88.2468 82.2276C88.2668 82.1388 88.2668 82.1388 88.2871 82.0486C89.9006 81.3717 91.0446 80.0979 92.3511 79.017C92.6948 78.7335 92.9584 78.4402 93.2182 78.0843C93.8063 80.416 94.6463 83.2749 93.3493 85.4417Z"
    fill="#303537" />
  <path
    d="M95.0717 88.6473C94.5424 89.7987 93.6568 90.2649 92.6788 90.9285C92.4338 90.6456 92.3637 90.719 91.9229 90.9464C92.4525 89.7388 91.5262 88.7154 91.1756 87.5842C91.3327 87.4714 91.5013 87.2527 91.6542 87.128C92.234 86.6547 92.962 86.09 93.3493 85.4417C93.9148 85.2273 94.9857 83.675 95.1652 83.2187C96.0047 83.8782 95.5711 87.5619 95.0717 88.6473Z"
    fill="#F6D007" />
  <path
    d="M91.9243 90.9467C92.3651 90.7193 92.4351 90.6459 92.6801 90.9288C88.5045 93.7611 85.7566 93.3761 81.3581 93.6433C81.2509 92.7781 80.8764 92.0216 80.5887 91.2146C80.6183 91.0895 80.5952 90.9238 80.7581 90.8768C81.4306 90.6864 83.7199 90.9271 88.0106 89.1264C89.6177 91.6914 85.6879 94.1632 91.9243 90.9467Z"
    fill="#D88D08" />
  <path
    d="M91.9243 90.9467C85.6879 94.1633 89.6177 91.6914 88.0119 89.1267C88.7225 88.8283 90.7241 87.908 91.1785 87.5835C91.5275 88.7157 92.4542 89.7378 91.9243 90.9467Z"
    fill="#E4A903" />
  <path
    d="M58.3625 80.5767C58.0227 81.4593 57.4646 81.5368 57.0655 82.1645C55.6565 80.9077 55.6565 80.9077 54.2489 79.6512C54.2904 79.5398 54.2866 79.4045 54.3294 79.2934C56.346 79.935 56.346 79.935 58.3625 80.5767Z"
    fill="#AA8012" />
  <path
    d="M56.9053 75.3631C57.2422 76.8356 58.9208 79.1259 58.3638 80.577C56.3472 79.9353 56.3472 79.9354 54.3307 79.2937C54.5482 78.7294 54.475 77.6702 55.0009 77.5648C55.1832 77.529 56.8707 77.9196 57.4758 77.8403C57.0116 76.5615 57.0116 76.5615 56.5475 75.2826C56.6632 75.3169 56.7873 75.3325 56.9053 75.3631Z"
    fill="#764D08" />
  <path
    d="M57.5802 79.4622C58.4446 79.4619 58.6663 80.5682 57.1016 79.9185C57.1658 79.8163 57.5474 79.4617 57.5802 79.4622Z"
    fill="#92690C" />
  <path
    d="M42.5516 89.0468C41.9924 90.2943 40.6778 92.7289 39.9534 93.9119C38.6191 96.0923 37.0169 97.4386 36.8607 97.6326C36.72 97.8068 37.2493 98.0946 35.8612 99.5687C33.7481 101.442 33.7481 101.442 31.6362 103.316C31.1368 103.291 28.7067 103.506 28.4955 103.079C28.1255 102.333 30.4402 101.96 31.0649 101.684C31.286 101.585 32.0075 101.513 32.06 101.438C32.2533 100.963 32.0272 100.48 32.0039 100.017C31.955 99.0082 31.3659 97.9125 31.892 97.172C32.6087 95.9804 33.6103 94.7487 33.5131 93.3081C35.9064 90.6045 35.9064 90.6045 38.2993 87.9021C40.4247 88.475 40.4247 88.475 42.5516 89.0468Z"
    fill="#090806" />
  <path
    d="M43.4324 86.8027C43.1317 87.5418 42.8755 88.3266 42.5513 89.0481C40.4244 88.4763 40.4244 88.4763 38.299 87.9034C37.3305 86.5001 38.635 85.6233 39.0232 84.6843C41.2273 85.7427 41.2273 85.7427 43.4324 86.8027Z"
    fill="#D88D08" />
  <path
    d="M56.2299 75.0232C56.2484 75.0328 56.0717 75.1413 56.5475 75.2826C57.0117 76.5615 57.0117 76.5615 57.4758 77.8404C56.8708 77.9196 55.1833 77.529 55.0009 77.5648C54.4738 77.6699 54.5472 78.7278 54.3307 79.2937C54.2879 79.4048 54.2918 79.5401 54.2502 79.6515C53.7701 80.932 52.6208 84.5343 52.2871 85.0355C49.3264 82.1138 49.3264 82.1138 46.3667 79.1937C45.8163 79.085 45.7606 80.0521 45.6383 80.3456C44.7661 82.4297 44.2874 84.7038 43.4337 86.803C41.2286 85.743 41.2286 85.743 39.0248 84.6833C39.07 84.5741 39.0592 84.4331 39.1053 84.3255C39.4895 84.5697 40.8784 85.0372 41.1219 84.9672C41.4093 84.885 43.7678 79.177 41.064 80.6323C42.2286 78.7553 43.6588 77.1123 44.8968 75.293C45.0862 75.3535 45.3474 75.0157 45.4239 75.0357C45.7464 75.1206 48.1053 75.8996 48.2462 75.8586C48.8385 75.2935 48.7937 74.4863 48.9969 73.7719C49.4691 72.1123 49.2393 73.3531 49.2742 74.2102C49.2939 74.6962 48.9206 75.2516 49.3989 75.742C50.7138 74.91 50.7138 74.91 52.0288 74.0781C51.5426 77.776 52.4159 73.3941 53.7732 76.3502C54.3788 74.7014 54.3788 74.7014 54.9843 73.0526C55.4617 73.9983 54.278 76.2044 56.2299 75.0232Z"
    fill="#090806" />
  <path
    d="M52.2858 85.0352C52.2277 85.1223 52.2427 85.3424 52.1853 85.4818C48.8412 84.6485 47.7085 82.8406 45.636 80.3437C45.7583 80.0502 45.8136 79.0844 46.3643 79.1918C49.3261 82.1151 49.3261 82.1151 52.2858 85.0352Z"
    fill="#877D59" />
  <path
    d="M39.1027 84.3249C39.6892 82.9559 40.2765 81.8943 41.0613 80.6317C43.7651 79.1764 41.4066 84.8844 41.1192 84.9666C40.8757 85.0366 39.4865 84.5704 39.1027 84.3249Z"
    fill="#1C191B" />
  <path
    d="M122.071 45.4866C121.6 45.714 121.897 45.3692 121.377 44.3908C121.33 44.3006 121.643 43.7343 120.577 42.5191C118.355 39.9858 112.464 38.327 109.214 37.8951C104.04 37.2072 98.9444 38.9831 93.7998 38.7491C100.357 34.4851 103.847 28.7861 112.293 27.9696C106.147 27 101.408 31.1323 97.3391 35.1288C93.3475 38.3935 88.1542 39.3641 83.5915 41.5262C80.2806 43.0945 71.3266 48.2914 66.7735 50.7095C66.6055 50.7979 66.4709 50.9145 66.3352 50.9868C65.4562 51.4545 65.0051 51.9594 64.4529 52.255C64.4061 52.2802 63.5539 52.3053 63.389 52.3916C79.5601 42.1134 93.8743 17.1401 116.191 24.4314C120.196 25.7401 125.663 29.7016 126.934 33.8951C128.493 39.0384 125.276 42.0807 122.071 45.4866Z"
    fill="url(#paint1_linear_6_2356)" />
  <path
    d="M117.971 47.0064C118.119 47.3335 118.014 47.5594 118.029 47.5834C117.984 47.7228 117.981 47.9073 117.948 47.9412C117.818 48.082 114.911 49.7398 114.612 49.8222C109.008 51.3699 103.365 44.3434 93.2972 44.7456C96.6612 35.4098 116.215 37.4945 120.78 44.539C118.434 46.5866 114.597 46.9129 111.597 46.5138C109.929 46.2922 107.064 44.9491 108.477 46.1876C110.278 47.766 115.683 47.7266 117.971 47.0064Z"
    fill="#B0A77F" />
  <path
    d="M121.377 44.3908C120.83 45.8826 119.371 46.5654 117.969 47.0061C115.682 47.7264 110.277 47.7658 108.476 46.186C107.064 44.9478 109.928 46.2906 111.596 46.5122C114.596 46.9113 118.433 46.585 120.779 44.5374C116.213 37.4926 96.6602 35.4083 93.2962 44.744C103.362 44.3428 109.006 51.368 114.611 49.8206C114.91 49.7382 117.817 48.0804 117.947 47.9396C116.326 49.8511 112.762 50.9604 110.587 52.6733C108.388 53.4119 106.145 54.0776 103.872 54.5445C104.181 53.773 105.516 54.4672 105.267 53.3547C107.69 53.0245 110.09 52.4338 112.104 50.9468C106.681 50.1784 103.267 45.9802 95.7909 45.7731C90.5208 45.6275 85.1831 49.0695 80.2466 50.5452C77.4255 51.3882 71.8118 52.1476 70.6459 52.7071C69.9113 52.6612 67.5459 53.3323 67.2339 53.2553C66.6283 53.1053 67.3838 52.9488 67.4032 52.9174C71.168 51.9479 75.0999 51.3699 78.8153 50.2232C83.4715 48.786 87.7689 46.2542 92.5302 45.2275C94.173 42.731 94.1731 42.731 95.8146 40.2341C88.4472 38.8785 80.7754 44.8893 74.6662 47.7846C72.5024 48.8098 70.2022 49.5628 67.9683 50.4117C67.6352 50.5384 67.2263 50.6303 66.953 50.7472C66.8642 50.7272 66.8642 50.7272 66.7741 50.7069C71.3281 48.2904 80.2811 43.0919 83.592 41.5236C88.1547 39.3615 93.3493 38.3912 97.3396 35.1262C101.408 31.1284 106.148 26.9974 112.293 27.967C103.847 28.7835 100.357 34.4825 93.8003 38.7465C98.9452 38.9792 104.041 37.2046 109.215 37.8925C112.464 38.3244 118.356 39.9819 120.578 42.5165C121.643 43.7344 121.33 44.3006 121.377 44.3908Z"
    fill="#0E131B" />
  <path
    d="M117.948 47.9412C117.981 47.9073 117.984 47.7228 118.029 47.5834C118.098 47.6922 118.346 47.3392 118.407 47.5751C118.377 47.9278 117.967 47.9193 117.948 47.9412Z"
    fill="#746658" />
  <path
    d="M105.267 53.3573C98.1544 54.3256 90.8304 52.704 83.7218 52.6441C81.6472 52.6261 72.9453 53.1654 70.3071 53.3841C69.8902 53.0173 70.1853 52.9314 70.647 52.7087C71.8129 52.1492 77.4265 51.3898 80.2477 50.5468C85.1842 49.0711 90.5203 45.6301 95.7919 45.7747C103.268 45.9817 106.683 50.1799 112.105 50.9484C110.088 52.4361 107.688 53.0268 105.267 53.3573Z"
    fill="#D1C285" />
  <path
    d="M67.4043 52.919C67.3837 52.95 66.6294 53.1069 67.235 53.2569C67.547 53.3339 69.9124 52.6628 70.6471 52.7087C70.1857 52.9301 69.8903 53.0173 70.3072 53.3841C68.9482 53.4969 67.5614 53.4469 66.2197 53.5924C60.894 54.1696 55.1539 56.6622 63.3891 52.3916C63.554 52.3052 64.4061 52.2802 64.453 52.255C65.0052 51.9594 65.456 51.4558 66.3353 50.9868C66.7574 51.16 66.9223 50.7622 66.9525 50.7498C67.2258 50.6329 67.6348 50.541 67.9679 50.4143C68.1027 53.1022 67.3767 52.4628 67.286 52.6098C67.2682 52.6401 67.4804 52.8003 67.4043 52.919Z"
    fill="#DAD4C9" />
  <path
    d="M114.911 23.0157C125.742 26.3923 134.776 37.4347 122.428 45.5671C122.334 45.4732 122.025 45.8728 122.071 45.4866C125.276 42.082 128.493 39.0397 126.934 33.8964C125.663 29.7029 120.196 25.7414 116.19 24.4327C93.8737 17.1427 79.5596 42.116 63.3888 52.3929C55.1536 56.6635 60.8937 54.1709 66.2194 53.5937C67.561 53.4482 68.9479 53.4982 70.3068 53.3854C72.945 53.1667 81.647 52.6274 83.7215 52.6454C90.8302 52.7053 98.1544 54.3256 105.266 53.3586C105.516 54.4698 104.18 53.7769 103.871 54.5484C101.786 54.978 99.5635 55.3808 97.4449 55.5463C94.2148 55.7978 76.5059 55.4757 75.4796 55.8663C74.695 56.1645 74.403 57.6026 73.7538 58.1096C74.1298 57.0664 74.1299 57.0664 74.5046 56.0229C73.4717 56.2351 72.3615 56.3461 71.3117 56.4324C70.5426 56.4967 69.7672 56.5404 69.0037 56.665C68.3442 56.7732 66.3414 56.9057 66.2089 56.9761C65.8324 57.174 65.1783 58.4345 64.7426 58.9018C62.1141 56.5584 65.3836 59.5591 65.453 56.994C64.0255 57.2834 64.0255 57.2834 62.598 57.5728C62.8367 60.8233 62.4716 57.7323 61.4241 57.7779C60.9086 57.8005 58.0942 58.8329 57.4127 59.319C56.3275 57.6658 56.3275 57.6658 55.244 56.0116C55.0985 55.6949 55.1978 55.4606 55.1858 55.4346C58.8093 52.3793 63.1259 50.2744 66.9592 47.372C69.1716 45.6978 70.9599 43.9694 73.018 42.1576C73.5327 41.7054 74.1146 41.2902 74.6327 40.8292C74.9624 40.5343 75.1836 40.2219 75.3706 40.0554C76.6968 38.8747 77.8877 37.5758 79.1989 36.4068C89.7974 26.9493 99.4704 18.2029 114.911 23.0157Z"
    fill="#090806" />
  <path
    d="M69.8229 55.5308C70.9047 54.3445 75.3381 55.8797 74.6789 53.9917C81.3936 53.7599 88.3533 53.8535 94.9311 54.602C86.5568 54.8501 78.1861 54.9111 69.8229 55.5308Z"
    fill="#D1BEAD" />
  <path
    d="M74.6802 53.992C75.3397 55.8787 70.9063 54.3435 69.8242 55.5311C67.0434 55.7369 64.2871 56.2611 61.5285 56.4843C63.0424 55.6037 63.0424 55.6037 64.5565 54.7219C67.9273 54.1865 71.2895 54.11 74.6802 53.992Z"
    fill="#D1C285" />
  <path
    d="M61.5288 56.4829C61.2367 56.5064 59.5999 56.6774 59.5301 56.5972C58.5449 55.4632 62.0838 55.1137 64.5568 54.7206C63.0426 55.6024 63.0426 55.6024 61.5288 56.4829Z"
    fill="#D1BEAD" />
  <path
    d="M66.9521 50.7511C66.9219 50.7635 66.7569 51.1613 66.3349 50.9881C66.4706 50.9158 66.6052 50.7992 66.7732 50.7108C66.8633 50.7311 66.8633 50.7311 66.9521 50.7511Z"
    fill="#594B07" />
  <path
    d="M67.4044 52.919C67.4805 52.8003 67.2682 52.6401 67.2857 52.6111C67.3764 52.4641 68.1024 53.1035 67.9676 50.4156C70.2028 49.567 72.5029 48.814 74.6654 47.7885C80.775 44.892 88.4465 38.8824 95.8138 40.238C94.171 42.7346 94.171 42.7346 92.5295 45.2314C87.7684 46.2568 83.4711 48.7886 78.8146 50.2271C75.101 51.3715 71.1689 51.9508 67.4044 52.919Z"
    fill="#D1C285" />
  <path
    d="M69.8857 50.6592C70.7977 50.734 68.3664 51.6921 68.3636 51.1619C69.2251 51.0648 69.8063 50.6523 69.8857 50.6592Z"
    fill="#FEFCDD" />
  <path
    d="M73.7545 58.107C73.7345 58.1958 73.7345 58.1958 73.7142 58.2859C73.3819 58.336 72.3216 58.5543 72.6184 58.9792C73.0211 59.5555 73.3952 59.1306 73.4229 59.1602C74.0882 59.8559 72.0056 60.5687 71.8381 60.7766C71.6252 61.0401 71.9139 61.3301 71.8963 61.3536C71.7028 61.6037 71.3388 61.4957 71.2791 61.5906C70.6692 62.5634 70.3619 65.4784 66.0099 69.1436C66.9263 67.1861 68.5511 65.4771 68.4715 63.2146C70.5139 61.6435 70.999 58.8714 71.3133 56.4313C72.3631 56.3451 73.4731 56.2353 74.5062 56.0219C74.1292 57.0635 74.1292 57.0635 73.7545 58.107Z"
    fill="#F6D007" />
  <path
    d="M56.99 73.3159C56.4671 73.3835 56.8199 74.9926 56.9051 75.3644C56.7871 75.3338 56.6643 75.3185 56.5472 75.2839C56.0727 75.1428 56.2481 75.0341 56.2297 75.0245C55.8587 74.8436 55.7484 74.8037 55.3551 74.7344C55.1086 74.0616 56.5895 71.7234 57.0829 71.6465C57.5452 72.2691 57.6657 71.9957 57.8471 72.0064C57.8566 72.0071 57.7957 72.0277 58.026 72.0466C58.5271 72.088 59.0053 72.8775 59.7876 71.3151C60.5358 73.5634 57.9806 74.3098 57.6321 74.2122C57.1349 74.0743 57.2953 73.2762 56.99 73.3159Z"
    fill="#D88D08" />
  <path
    d="M71.3123 56.4298C70.9979 58.8698 70.5125 61.6432 68.4704 63.213C68.55 65.4755 66.9252 67.1845 66.0088 69.142C63.7167 71.0726 64.9428 69.8736 64.189 69.2965C64.1691 69.281 63.9733 69.499 63.881 69.4152C63.4523 67.3265 63.2254 68.5364 63.1475 68.4983C63.0239 68.4376 62.8353 68.4527 62.7009 68.3978C62.1854 68.1885 62.5882 67.6604 62.5941 67.6219C62.5965 67.5991 63.0264 67.8289 63.0122 67.4347C62.9648 66.0904 61.1809 67.9392 60.4249 68.0737C60.7445 67.6105 60.934 66.7133 61.0465 66.146C61.0526 66.113 61.2941 66.3018 61.3662 65.5607C61.2536 63.1398 61.2536 63.1398 61.14 60.7173C61.6317 60.7456 61.5263 60.9703 61.9541 61.2764C61.9776 61.294 62.0091 61.7759 62.3202 61.7347C62.518 61.7092 62.4682 61.2659 62.5298 61.218C63.1056 60.7809 63.6228 60.476 63.6276 59.68C63.9586 59.3675 64.2044 59.5559 64.2246 59.533C63.3058 60.83 64.177 59.842 66.0316 60.6914C65.2767 60.5161 66.0207 61.0937 65.4726 61.5054C64.5745 59.7585 64.3736 61.5299 64.3186 61.6218C64.0383 62.0869 64.2696 62.0347 64.1576 62.3374C64.15 62.359 64.0074 62.2913 63.7395 62.5246C63.4354 64.7118 63.4354 64.7118 63.1316 66.8977C63.3105 66.9379 63.3106 66.9379 63.4895 66.9782C64.0211 64.9629 63.8478 66.794 63.8875 66.8798C63.9971 67.1185 64.4029 67.443 64.6414 67.7066C64.8143 68.1818 64.8067 69.1734 65.0573 68.364C66.0751 66.7614 66.0751 66.7614 67.0945 65.1577C67.6758 63.5007 64.3608 64.4165 66.92 63.4267C66.1474 62.9579 66.7573 62.9182 66.7834 62.3629C66.7863 62.3073 67.4929 62.0204 66.3674 61.7054C66.4038 61.6779 66.5472 60.8513 66.5687 60.8108C66.9355 60.0949 65.971 60.4912 67.6063 59.5406C67.7107 59.479 68.0179 59.8088 68.1833 59.4824C68.4104 59.0341 67.7811 59.1052 67.9662 58.7764C68.0622 58.6059 68.64 59.1049 69.0238 57.4173C69.14 56.9069 69.4575 57.1787 69.0059 56.6614C69.7677 56.5378 70.5435 56.4928 71.3123 56.4298Z"
    fill="#E4A903" />
  <path
    d="M64.7435 58.8978C64.6839 58.9613 64.4527 59.2756 64.2247 59.533C64.2044 59.5559 63.9587 59.3675 63.6277 59.68C63.6229 60.476 63.1053 60.7822 62.5298 61.218C62.2364 61.0586 62.2364 61.0586 61.9445 60.8983C61.9487 61.0872 61.9487 61.0872 61.9528 61.2761C61.5261 60.9716 61.6305 60.7453 61.1388 60.717C60.8185 61.7261 60.8185 61.7261 60.4971 62.7336C60.7707 64.4388 60.7707 64.4388 61.0453 66.1457C60.9327 66.713 60.7432 67.6102 60.4236 68.0734C60.1385 68.4868 60.1347 68.8454 59.3777 68.9659C56.2094 69.4674 57.54 67.4439 57.4904 64.4074C57.4893 64.3208 57.3693 63.4637 57.3159 62.6765C58.591 61.9851 58.8276 62.3182 58.9082 62.2829C59.8766 61.8572 60.4062 60.6373 60.8046 59.702C60.8636 59.5616 60.8411 59.2959 61.0059 58.8075C61.1316 58.4379 61.3346 58.1515 61.4263 57.7743C62.4741 57.7273 62.8393 60.8183 62.6002 57.5691C64.0277 57.2797 64.0277 57.2797 65.4553 56.9904C65.3855 59.5568 62.1148 56.5558 64.7435 58.8978Z"
    fill="#E4A903" />
  <path
    d="M55.1878 55.4323C55.1998 55.4583 55.1005 55.6925 55.246 56.0093C55.1077 59.7828 53.9329 57.3575 53.8484 58.0437C53.8382 58.132 55.0216 59.7387 53.748 58.4904C53.5219 58.2694 53.0245 57.7541 52.8355 57.5332C52.8128 57.5062 52.9995 56.7922 52.3992 56.9658C52.6167 57.2494 52.6167 57.2494 52.8355 57.5332C53.105 58.5735 52.8776 58.8036 53.247 59.8814C53.4068 60.3482 53.9576 60.6504 53.9606 60.8871C53.9695 61.5916 53.3037 61.3554 53.2832 61.3919C52.3206 61.3098 53.201 60.9824 53.0661 60.6859C52.9523 60.4353 51.2429 58.7514 50.8252 58.1141C54.0797 59.3086 52.5851 57.3959 50.9077 56.9116C51.0568 56.6638 51.0568 56.6638 51.2074 56.4151C51.5657 56.6521 51.9152 57.0559 52.1103 56.9941C52.2565 54.246 53.8653 54.5901 54.2572 57.4771C54.1467 56.0899 54.1467 56.0899 54.0362 54.7026C54.0792 54.6519 55.1591 55.3709 55.1878 55.4323Z"
    fill="#944A01" />
  <path
    d="M69.0235 57.4186C68.518 57.7384 66.5317 58.2066 66.3355 58.5055C65.9218 59.1369 66.5984 58.6113 67.6057 59.5432C65.9708 60.4925 66.9353 60.0962 66.5681 60.8134C65.8341 60.8925 66.0563 60.7038 66.0314 60.6927C64.1768 59.8433 63.3052 60.8326 64.2243 59.5343C64.4524 59.2769 64.6836 58.9626 64.7432 58.8991C65.1786 58.4332 65.8327 57.1727 66.2095 56.9734C66.342 56.9031 68.3447 56.7706 69.0043 56.6624C69.4563 57.1784 69.1387 56.9066 69.0235 57.4186Z"
    fill="#D88D08" />
  <path
    d="M47.7907 47.3787C40.1297 48.1028 49.8544 49.3782 51.9983 50.3929C50.4718 50.8905 41.6369 48.0632 49.5211 50.9634C49.4808 51.1423 49.4808 51.1423 49.4406 51.3212C48.3327 51.0253 48.3327 51.0253 47.2248 50.7294C48.2859 52.325 48.9479 52.0473 49.3294 52.236C49.2931 52.4158 49.2424 52.5924 49.2087 52.7728C49.0821 53.4454 51.3744 54.2945 51.7695 54.7579C51.6781 55.2011 50.3248 53.9225 50.0386 54.9324C49.851 55.5954 50.8382 56.1715 51.2084 56.4167C51.0594 56.6644 51.0594 56.6644 50.9087 56.9132C48.8023 56.3048 50.5989 57.5281 50.5086 57.8563C50.383 58.311 49.9364 57.8565 49.6722 58.232C48.8575 59.3892 51.8224 60.402 52.3057 62.3945C52.328 62.4846 51.7504 62.1063 52.3818 63.7274C52.2538 65.3697 50.975 68.6204 50.9936 69.8978C50.9944 69.9611 50.9456 70.0256 50.9533 70.0767C49.0342 69.4776 51.2385 70.8338 50.3055 70.8708C49.8334 70.8895 49.7177 70.3489 49.6703 70.352C49.301 70.3773 46.9259 77.3246 48.9947 73.77C48.7917 74.483 48.8365 75.2903 48.2439 75.8567C48.103 75.8977 45.7441 75.1187 45.4216 75.0338C45.3452 75.0138 45.0826 75.3513 44.8945 75.2911C44.7063 75.2309 42.5917 73.7811 41.3399 73.5516C43.4255 71.2822 46.7603 69.9251 47.4723 62.9974C48.1535 56.3715 43.7277 52.6496 43.2525 49.1758C43.1806 48.6479 42.7622 48.6169 42.937 48.0717C44.2185 47.5532 45.2099 47.1959 46.5786 46.918C47.8509 46.6596 47.8577 46.41 47.9018 46.4638C48.0564 46.655 47.8089 47.1207 47.7907 47.3787Z"
    fill="#944A01" />
  <path
    d="M46.5795 46.9196C45.2108 47.1975 44.2181 47.5545 42.9379 48.0733C42.7629 48.6198 43.1815 48.6494 43.2534 49.1774C39.8932 48.5682 39.7552 48.1571 38.2497 46.36C41.0326 44.998 40.8955 43.6802 42.2969 46.3307C42.6571 46.4981 42.6224 46.0362 42.6451 46.0331C43.8687 45.894 44.2087 45.6508 44.4022 46.9923C45.0358 44.9204 46.8076 44.7043 48.4177 43.7618C48.5867 43.8464 48.5867 43.8464 48.7556 43.9311C46.0072 45.2981 43.2438 47.2626 46.5795 46.9196Z"
    fill="#B87404" />
  <path
    d="M62.0206 73.5078C63.0478 72.29 61.4396 74.1632 60.5631 72.0521C60.0343 74.2134 56.7361 75.6337 56.9901 73.3159C57.2953 73.2762 57.1363 74.0746 57.6335 74.2125C57.9823 74.3088 60.5372 73.5637 59.789 71.3154C59.0067 72.8778 58.5285 72.0883 58.0274 72.0469C58.3616 71.6775 58.5833 71.1128 58.8861 70.7364C59.1817 70.3679 59.9119 69.7749 60.1429 69.3274C60.6096 69.4365 62.0487 68.8698 61.9744 68.7063C61.7195 68.144 60.1143 69.0644 62.5841 67.2464C62.5882 67.4353 62.5882 67.4353 62.5924 67.6242C62.5878 67.663 62.1836 68.1909 62.6991 68.4001C62.8348 68.4554 63.0222 68.4399 63.1457 68.5006C63.1247 69.1366 63.6821 69.2387 63.8793 69.4175C63.9715 69.5014 64.1674 69.2834 64.1872 69.2988C64.941 69.8759 63.7149 71.075 66.007 69.1443C70.359 65.4791 70.6663 62.5641 71.2762 61.5914C71.336 61.4964 71.7 61.6044 71.8934 61.3543C71.9111 61.3308 71.6223 61.0409 71.8353 60.7773C72.0041 60.5697 74.0866 59.8569 73.42 59.1609C73.3911 59.131 73.017 59.5559 72.6156 58.9799C74.7624 58.6095 73.7808 59.7099 72.7254 62.6693C72.1499 63.2574 70.3731 59.8666 72.2647 63.8814C70.7462 65.0572 70.2037 64.8035 70.1536 64.9102C69.8815 65.4856 73.1633 64.9246 69.3128 66.9766C70.0849 68.0696 66.4446 71.1938 64.967 71.2606C65.2411 72.5914 63.2641 73.6888 62.0206 73.5078Z"
    fill="#E4A903" />
  <path
    d="M63.8811 69.4152C63.6852 69.2367 63.1265 69.1343 63.1475 68.4983C63.2251 68.5377 63.452 67.3279 63.8811 69.4152Z"
    fill="#AD6202" />
  <path
    d="M58.8864 70.7351C58.5835 71.1115 58.3621 71.675 58.0276 72.0456C57.7973 72.0267 57.8581 72.0061 57.8487 72.0054C58.0574 71.2607 58.8224 70.2144 58.8864 70.7351Z"
    fill="#944A01" />
  <path
    d="M61.2831 70.5224C61.3448 70.5102 61.5557 71.5304 61.2205 71.6361C61.0152 71.701 60.9844 70.5814 61.2831 70.5224Z"
    fill="#944A01" />
  <path
    d="M60.3081 70.679C60.3736 70.6745 60.6152 71.1432 60.4351 71.3647C60.2221 71.6283 59.9667 70.7023 60.3081 70.679Z"
    fill="#944A01" />
  <path
    d="M52.7362 49.6191C53.4898 51.3006 53.4012 52.4812 53.7788 54.1755C53.5175 54.2635 53.4486 54.2466 53.2018 54.2337C52.5364 53.8493 52.5364 53.8493 51.871 53.465C52.216 52.9925 52.6316 53.8529 52.7655 53.6663C52.8196 53.5906 52.3011 52.3764 52.2628 52.1441C51.7031 53.7113 51.5439 53.3393 49.3294 52.236C48.9495 52.0463 48.2861 52.3237 47.2247 50.7294C48.3326 51.0253 48.3326 51.0253 49.4405 51.3212C49.4807 51.1423 49.4807 51.1423 49.521 50.9634C41.6368 48.0632 50.4717 50.8905 51.9982 50.3929C52.9057 50.0976 52.2612 49.895 52.28 49.1405C52.2966 49.1703 52.464 49.0118 52.7362 49.6191Z"
    fill="#E4A903" />
  <path
    d="M57.0659 52.0969C57.1727 51.6462 57.2989 50.3657 57.062 50.0284C56.8415 49.7154 50.4643 46.2761 51.9637 48.8814C50.808 48.4197 49.0461 48 49.1248 47.3029C50.0121 47.3228 50.9002 47.4855 51.7586 47.7074C46.8459 45.967 58.6529 47.3967 59.0004 50.1818C59.1581 51.4508 57.9764 52.288 57.0659 52.0969Z"
    fill="#D88D08" />
  <path
    d="M49.1232 47.3039C49.0446 48.001 50.8078 48.421 51.9621 48.8824C51.9737 48.9042 52.2679 49.1213 52.2797 49.1418C52.2609 49.8963 52.9057 50.0976 51.998 50.3942C49.8537 49.3808 40.1291 48.1054 47.7903 47.3799C48.2977 47.3322 48.5936 47.2917 49.1232 47.3039Z"
    fill="#E4A903" />
  <path
    d="M57.0659 52.0969C56.9338 52.6599 56.5871 53.2432 56.0781 53.5664C55.5314 53.5024 56.1599 52.6051 56.0922 52.2538C55.9396 51.4621 55.6542 51.2428 55.1215 50.7196C54.5025 50.1111 53.2324 49.0543 52.7375 49.6194C52.4653 49.0121 52.2982 49.1693 52.2813 49.1408C52.2695 49.1203 51.9766 48.9035 51.9637 48.8814C50.4631 46.2758 56.8403 49.7151 57.062 50.0284C57.299 50.3657 57.1715 51.6459 57.0659 52.0969Z"
    fill="#F6D007" />
  <path
    d="M48.4165 43.7615C46.8061 44.7053 45.0345 44.9201 44.401 46.992C44.2075 45.6505 43.8674 45.8937 42.6438 46.0328C41.4336 42.8134 43.381 45.1956 43.6898 45.1403C43.7519 44.3091 47.9012 43.5879 48.4165 43.7615Z"
    fill="#B87404" />
  <path
    d="M55.1202 50.7193C54.7657 51.4353 55.2087 51.5885 54.5567 53.2241C54.5313 53.2883 54.0883 52.9705 54.1163 54.3461C53.9897 54.555 53.9061 54.1341 53.7785 54.1768C53.4022 52.4828 53.4911 51.3009 52.7359 49.6204C53.231 49.054 54.5011 50.1108 55.1202 50.7193Z"
    fill="#D88D08" />
  <path
    d="M56.0909 52.2535C55.4885 53.3761 54.3983 56.3372 54.5568 53.2241C55.2084 51.5898 54.7657 51.4353 55.1203 50.7193C55.6529 51.2425 55.937 51.4615 56.0909 52.2535Z"
    fill="#D88D08" />
  <path
    d="M53.2015 54.2349C51.6151 54.1511 50.7491 53.1399 49.2086 52.7727C49.2423 52.5924 49.293 52.4158 49.3294 52.236C51.5439 53.3393 51.7031 53.7112 52.2628 52.1441C52.3011 52.3764 52.8193 53.5919 52.7655 53.6662C52.6329 53.8532 52.216 52.9924 51.871 53.465C52.5364 53.8493 52.5364 53.8493 53.2015 54.2349Z"
    fill="#944A01" />
  <path
    d="M56.5015 39.5669C56.5739 39.5804 56.6563 39.7691 57.8925 40.0678C58.5405 40.2245 59.225 40.3168 59.8605 40.5105C60.2688 40.6353 60.8719 40.8025 61.2918 40.8325C62.1937 41.3977 63.2433 41.7271 64.171 42.2321C64.3727 42.342 67.662 44.7175 67.8821 44.9467C67.9034 44.968 68.0894 44.9522 68.0208 45.1659C67.5241 45.5988 66.4173 46.3047 66.4264 46.4042C66.4437 46.5837 67.3049 46.7198 66.9611 47.3697C63.1278 50.2721 58.8112 52.377 55.1877 55.4323C55.159 55.371 54.0794 54.6506 54.0358 54.7039C54.1463 56.0912 54.1463 56.0912 54.2568 57.4785C53.865 54.5914 52.2575 54.2476 52.1099 56.9955C51.9136 57.0569 51.5653 56.6534 51.207 56.4164C50.8369 56.1712 49.8499 55.5938 50.0372 54.9321C50.3234 53.9222 51.6767 55.2008 51.7682 54.7576C51.3746 54.2932 49.0807 53.4451 49.2073 52.7725C50.7478 53.1396 51.6138 54.1508 53.2002 54.2347C53.447 54.2476 53.5159 54.2645 53.7772 54.1765C53.9035 54.1336 53.9882 54.556 54.115 54.3458C54.087 52.9702 54.53 53.288 54.5554 53.2238C54.397 56.3369 55.4871 53.3758 56.0896 52.2532C56.1573 52.6045 55.5288 53.5018 56.0755 53.5658C56.5842 53.2439 56.9312 52.6593 57.0633 52.0963C57.9739 52.2874 59.1556 51.4502 58.9976 50.1826C58.649 47.3958 46.8434 45.9664 51.7557 47.7082C50.8974 47.4863 50.0092 47.3235 49.1219 47.3036C48.5923 47.2915 48.2951 47.3316 47.789 47.3797C47.8073 47.1217 48.055 46.6547 47.9015 46.4651C47.8573 46.4113 47.8506 46.6609 46.5782 46.9193C43.2425 47.2623 46.0056 45.2991 48.754 43.9321C48.5851 43.8474 48.5851 43.8474 48.4161 43.7628C47.9009 43.5892 43.7516 44.3104 43.6891 45.1429C43.3803 45.1983 41.4329 42.816 42.6432 46.0354C42.6205 46.0385 42.6552 46.5005 42.295 46.333C40.8936 43.6825 41.031 44.999 38.2478 46.3623C38.1643 46.2639 37.9096 46.1394 37.9705 45.924C38.2143 45.8951 40.756 43.3731 41.6983 42.722C47.586 38.6464 46.7998 40.8239 47.8586 40.8192C48.0811 40.8185 50.3551 39.2117 51.9103 39.0992C52.5142 39.0554 52.8352 39.1592 53.024 39.1618C53.6795 39.1694 55.7457 39.4257 56.5015 39.5669Z"
    fill="#F6D007" />
  <path
    d="M56.2694 44.7763C55.9756 44.8378 55.5735 44.8626 55.433 45.152C55.1121 45.2061 54.415 45.432 54.1097 45.6062C52.6398 44.6265 49.5006 46.346 52.7007 44.3494C54.0576 44.2033 56.1994 43.2514 56.2694 44.7763Z"
    fill="#F6D007" />
  <path
    d="M55.4329 45.152C55.5735 44.8626 55.9756 44.8378 56.2693 44.7763C58.0744 44.4004 58.2615 44.6785 55.4329 45.152Z"
    fill="#E4A903" />
  <path
    d="M50.9086 56.9132C52.586 57.3975 54.0806 59.3102 50.826 58.1157C51.2428 58.7514 52.9532 60.4368 53.067 60.6874C53.2016 60.9853 52.3215 61.3114 53.284 61.3935C53.256 61.4448 53.2738 61.5243 53.2438 61.5724C52.9106 62.108 53.0531 62.4995 53.6598 62.2299C53.6664 62.2492 53.7788 62.1153 53.7582 62.628C52.0617 63.1065 53.0235 65.0091 52.7945 66.0758C52.7668 66.2054 51.5593 67.9438 51.6943 68.4598C51.7531 68.6802 52.9055 68.4853 52.9064 68.9205C52.9068 69.0468 51.2148 70.6034 50.9945 69.8994C50.9762 68.6207 52.255 65.37 52.3827 63.7289C51.751 62.1092 52.3289 62.4861 52.3066 62.3961C51.8223 60.4019 48.8585 59.3908 49.6731 58.2336C49.9373 57.8581 50.3839 58.3125 50.5095 57.8579C50.5988 57.5281 48.8009 56.3045 50.9086 56.9132Z"
    fill="#E4A903" />
  <path
    d="M54.9817 73.052C54.3761 74.7008 54.3761 74.7008 53.7706 76.3495C52.413 73.3947 51.541 77.777 52.0262 74.0774C50.7112 74.9094 50.7112 74.9094 49.3962 75.7413C48.9166 75.2506 49.2912 74.6956 49.2716 74.2096C49.8406 73.0342 51.5379 71.6434 52.418 72.7565C51.4652 71.6064 54.6941 72.4824 54.9817 73.052Z"
    fill="#B87404" />
  <path
    d="M61.0056 58.8088C60.8411 59.2959 60.8633 59.5629 60.8043 59.7033C60.1093 59.9627 59.0642 61.5345 58.9079 62.2841C58.8286 62.3198 58.5907 61.9864 57.3156 62.6778C57.3131 62.6402 56.8275 62.3347 56.8391 62.2893C57.5769 62.041 57.4296 61.8967 57.5166 61.7845C57.7176 61.5252 57.7876 61.4092 58.0354 61.1494C58.9248 60.2148 59.9885 59.5788 61.0056 58.8088Z"
    fill="#E4A903" />
  <path
    d="M53.7475 58.4917C53.4977 59.1874 53.4977 59.1874 53.2466 59.8827C52.8769 58.8062 53.1046 58.5748 52.8351 57.5345C53.0241 57.7554 53.5215 58.2707 53.7475 58.4917Z"
    fill="#D88D08" />
  <path
    d="M61.426 57.7756C61.3343 58.1528 61.1313 58.4392 61.0056 58.8088C59.9886 59.5788 58.9262 60.2151 58.0357 61.1481C57.8313 59.4406 56.6598 60.464 57.5169 61.7832C57.4299 61.8954 57.5782 62.0413 56.8395 62.288C56.8276 62.3348 57.3134 62.6389 57.316 62.6765C57.3694 63.4637 57.4894 64.3208 57.4904 64.4075C56.7842 65.327 56.9674 66.9639 56.8444 68.1147C56.5458 68.6979 54.4597 66.5602 56.3554 69.0378C57.4833 69.2449 57.4833 69.2449 58.6111 69.452C54.5681 70.8776 56.7383 69.751 56.7013 69.5863C56.4548 68.462 54.6593 71.4236 56.4481 71.1263C56.833 71.062 56.7571 70.4906 57.1861 70.3525C57.3385 70.3031 57.9599 70.6817 60.1419 69.3258C59.9109 69.7733 59.1809 70.365 58.8851 70.7348C58.8211 70.2141 58.0561 71.2603 57.8474 72.005C57.666 71.9944 57.5442 72.2675 57.0832 71.6452C56.5885 71.7218 55.1089 74.0603 55.3554 74.7331C55.7474 74.8021 55.8588 74.8436 56.23 75.0232C54.278 76.2044 55.4617 73.9983 54.982 73.0507C54.6944 72.4811 51.464 71.6062 52.417 72.7549C51.5369 71.6418 49.841 73.0329 49.2706 74.208C49.2354 73.3522 49.4655 72.1101 48.9933 73.7697C46.9235 77.3227 49.2984 70.3767 49.669 70.3517C49.7163 70.3486 49.8321 70.8892 50.3041 70.8705C51.2385 70.8338 49.0329 69.4773 50.952 70.0764C51.0131 70.4757 51.9455 72.0946 52.341 71.4221C52.0889 70.1154 53.3348 69.3708 53.1639 68.5997C53.1352 68.4712 52.2137 67.9263 52.2112 67.8215C52.2039 67.5427 53.5892 66.813 53.7562 62.6248C53.7769 62.1122 53.6645 62.246 53.6578 62.2267C53.6404 62.1761 53.8679 61.6771 53.2418 61.5692C53.2719 61.5211 53.2541 61.4416 53.2821 61.3903C53.3027 61.3538 53.9687 61.5887 53.9596 60.8855C53.9568 60.6476 53.4061 60.3453 53.246 59.8798C53.4958 59.1842 53.4958 59.1842 53.7469 58.4888C55.0208 59.7358 53.8371 58.1304 53.8474 58.0422C53.9318 57.3559 55.1067 59.7812 55.2449 56.0077C56.3301 57.6609 56.3301 57.6609 57.4136 59.3151C58.0961 58.8306 60.9105 57.7982 61.426 57.7756Z"
    fill="#D88D08" />
  <path
    d="M60.4245 68.075C61.1806 67.9406 62.9647 66.0905 63.0119 67.436C63.0258 67.8316 62.5962 67.6005 62.5938 67.6233C62.5897 67.4344 62.5897 67.4343 62.5855 67.2454C60.1145 69.0631 61.7206 68.1444 61.9758 68.7053C62.0502 68.8688 60.611 69.4355 60.1444 69.3264C57.9624 70.6823 57.341 70.3037 57.1886 70.3531C56.7596 70.4912 56.8368 71.0629 56.4506 71.1269C54.6618 71.4242 56.4573 68.4626 56.7038 69.5869C56.7395 69.7513 54.5706 70.8782 58.6136 69.4526C57.4858 69.2455 57.4858 69.2455 56.3579 69.0384C54.4625 66.5595 56.5486 68.6972 56.8469 68.1153C56.97 66.9645 56.7864 65.3289 57.4929 64.4081C57.5422 67.4458 56.2116 69.4693 59.3802 68.9665C60.1343 68.8467 60.1398 68.4871 60.4245 68.075Z"
    fill="#944A01" />
  <path
    d="M53.7569 62.6277C53.5899 66.8159 52.2059 67.5459 52.2119 67.8244C52.2144 67.9292 53.1362 68.4728 53.1646 68.6026C53.3358 69.3724 52.0896 70.1183 52.3417 71.425C51.9475 72.0978 51.0138 70.4786 50.9527 70.0794C50.945 70.0282 50.9938 69.9637 50.9929 69.9004C51.2132 70.6045 52.9053 69.0478 52.9049 68.9215C52.904 68.4864 51.7515 68.6813 51.6927 68.4609C51.5565 67.9445 52.7652 66.2064 52.793 66.0768C53.0223 65.0089 52.0605 63.1063 53.7569 62.6277Z"
    fill="#944A01" />
  <path
    d="M53.8641 70.921C53.9693 70.8802 55.5801 71.2275 55.5029 71.5709C55.3827 72.105 52.4824 71.4457 53.8641 70.921Z"
    fill="#672303" />
  <path
    d="M58.0357 61.1481C57.7879 61.408 57.7179 61.5239 57.5168 61.7833C56.6598 60.464 57.8312 59.4406 58.0357 61.1481Z"
    fill="#944A01" />
  <path
    d="M50.4438 71.0913C52.2067 70.7017 50.282 72.4201 50.0234 72.1245C49.8718 71.9505 50.0584 71.1761 50.4438 71.0913Z"
    fill="#672303" />
  <path
    d="M53.788 69.5881C54.1822 69.4888 54.504 70.6808 53.9446 70.5631C53.6143 70.4943 53.6382 69.6257 53.788 69.5881Z"
    fill="#672303" />
  <path
    d="M53.6585 62.2296C53.0518 62.4992 52.9094 62.1077 53.2425 61.5721C53.8673 61.6797 53.6411 62.179 53.6585 62.2296Z"
    fill="#823A01" />
  <path
    d="M61.1397 60.7187C61.2523 63.1395 61.2523 63.1395 61.3659 65.562C61.2938 66.3031 61.0523 66.1143 61.0462 66.1473C60.7727 64.442 60.7727 64.4421 60.4981 62.7352C60.8184 61.7261 60.8184 61.7261 61.1397 60.7187Z"
    fill="#AD6202" />
  <path
    d="M68.1831 59.4837C67.26 58.9948 67.26 58.9948 66.3359 58.5042C66.5308 58.2051 68.5171 57.7368 69.024 57.4173C68.6399 59.1062 68.0623 58.6059 67.9663 58.7764C67.7796 59.1062 68.4099 59.0367 68.1831 59.4837Z"
    fill="#E4A903" />
  <path
    d="M65.4726 61.5055C65.3009 61.6342 64.5944 61.6097 64.3186 61.6218C64.3736 61.5299 64.5745 59.7585 65.4726 61.5055Z"
    fill="#AD6202" />
  <path
    d="M68.183 59.4837C68.0177 59.8101 67.7104 59.4803 67.606 59.5418C66.6 58.6103 65.9234 59.1358 66.3358 58.5042C67.2586 58.9944 67.2586 58.9944 68.183 59.4837Z"
    fill="#944A01" />
  <path
    d="M62.5295 61.2192C62.4667 61.2669 62.5165 61.7102 62.32 61.736C62.0076 61.7769 61.9773 61.2953 61.9539 61.2777C61.9497 61.0888 61.9497 61.0888 61.9456 60.8999C62.2377 61.0589 62.2377 61.0589 62.5295 61.2192Z"
    fill="#AD6202" />
  <path
    d="M60.8043 59.7033C60.4075 60.6376 59.8763 61.8585 58.9079 62.2841C59.0642 61.5345 60.108 59.9624 60.8043 59.7033Z"
    fill="#AD6202" />
  <path
    d="M52.8351 57.5345C52.6176 57.251 52.6176 57.251 52.3988 56.9672C52.9991 56.7935 52.8124 57.5075 52.8351 57.5345Z"
    fill="#D88D08" />
  <path
    d="M66.0317 60.6914C66.0566 60.7025 65.8344 60.8912 66.5684 60.8121C66.5469 60.8526 66.4035 61.6792 66.3671 61.7067C65.8622 62.0788 64.9763 61.9796 64.974 62.0505C65.8786 62.2073 65.8786 62.2073 66.7831 62.3642C66.757 62.9195 66.1468 62.9605 66.9197 63.428C64.3608 64.4164 67.6755 63.502 67.0942 65.159C66.0764 66.7617 66.0764 66.7617 65.0571 68.3654C65.0531 68.0722 64.8145 67.9005 64.6411 67.7079C64.4772 67.2594 63.6976 65.1508 63.9722 64.8326C68.0604 64.2431 63.9872 64.9306 64.075 63.5399C64.0797 63.4642 64.8183 63.5233 64.1576 62.3374C64.2693 62.036 64.0383 62.0869 64.3186 61.6218C64.5944 61.6097 65.3009 61.6342 65.4726 61.5054C66.0207 61.0937 65.2767 60.5161 66.0317 60.6914Z"
    fill="#E4A903" />
  <path
    d="M64.6412 67.7079C64.4027 67.4443 63.9972 67.1185 63.8873 66.8811C63.8476 66.7953 64.0209 64.9642 63.4893 66.9795C63.3104 66.9392 63.3103 66.9392 63.1314 66.899C63.4355 64.7118 63.4355 64.7118 63.7393 62.5259C64.0075 62.2913 64.1498 62.3603 64.1574 62.3387C64.8178 63.5259 64.0792 63.4668 64.0748 63.5412C63.987 64.9319 68.0601 64.2444 63.972 64.8339C63.6976 65.1508 64.4773 67.2594 64.6412 67.7079Z"
    fill="#AD6202" />
  <path
    d="M66.7832 62.3642C65.8786 62.2073 65.8786 62.2073 64.9741 62.0505C64.9753 61.978 65.8623 62.0788 66.3672 61.7067C67.4927 62.0216 66.7848 62.3083 66.7832 62.3642Z"
    fill="#B87404" />
  <path
    d="M65.0571 68.3653C64.8074 69.1763 64.8141 68.1831 64.6411 67.7079C64.8135 67.8989 65.0521 68.0706 65.0571 68.3653Z"
    fill="#AD6202" />
  <path
    d="M64.7745 65.8582C64.906 65.9262 65.4862 66.4395 65.4785 66.4858C65.437 66.7742 64.5958 66.8113 64.7745 65.8582Z"
    fill="#AD6202" />
  <defs>
    <linearGradient id="paint0_linear_6_2356" x1="36.7574" y1="7.21287" x2="48.5904" y2="25.3243"
      gradientUnits="userSpaceOnUse">
      <stop stop-color="#B4A375" />
      <stop offset="1" stop-color="#B1B09D" />
    </linearGradient>
    <linearGradient id="paint1_linear_6_2356" x1="120.336" y1="27.7061" x2="88.3317" y2="50.0836"
      gradientUnits="userSpaceOnUse">
      <stop stop-color="#A49676" />
      <stop offset="1" stop-color="#D6C37E" />
    </linearGradient>
  </defs>
</svg>
