<svg width="203" height="175" viewBox="0 0 203 175" fill="none" xmlns="http://www.w3.org/2000/svg">
<path d="M178.121 65.6273C178.279 64.8255 177.994 63.9732 177.307 63.6398C180.482 57.2072 187.873 60.858 185.53 65.5477C184.402 67.8044 179.551 67.9798 178.121 65.6273Z" fill="#080705"/>
<path d="M195.467 99.0167C193.834 97.8652 192.871 96.2928 190.567 96.2946C190.037 95.9308 190.331 94.8497 189.607 94.3232C192.71 91.746 197.111 95.6088 195.467 99.0167Z" fill="#131816"/>
<path d="M147.634 71.6749C146.644 72.8546 149.297 73.6246 152.274 76.057C153.101 76.7324 153.813 77.9577 154.635 78.6141C152.481 80.7591 149.445 76.3899 147.374 74.6694C146.499 73.5748 147.93 73.1542 146.234 72.4212C146.735 72.2055 147.033 71.5919 147.634 71.6749Z" fill="#372D29"/>
<path d="M156.066 78.1588C155.828 78.5491 155.873 79.0965 155.464 79.4126C154.977 79.1416 154.68 78.6502 154.635 78.6141C153.813 77.9577 153.101 76.7324 152.274 76.057C149.297 73.6246 146.644 72.8546 147.634 71.6748C148.335 71.7705 150.022 73.3709 150.678 73.7121C151.025 73.8903 151.952 71.7187 156.066 78.1588Z" fill="#AB9775"/>
<path d="M146.232 72.4236C147.928 73.1566 146.497 73.5772 147.372 74.6718C144.97 75.0852 144.97 75.0852 142.567 75.5007C142.331 75.4164 142.523 74.9987 141.999 74.3764C141.912 74.2735 141.675 73.3681 141.576 73.2361C144.318 70.0403 143.235 73.1953 144.425 73.5142C145.066 73.6837 145.203 72.8691 146.232 72.4236Z" fill="#372D29"/>
<path d="M145.594 128.28C144.673 130.074 143.019 130.673 146.701 130.235C146.646 130.405 147.099 131.113 145.984 131.798C145.925 131.833 145.177 131.222 144.633 131.651C144.005 132.147 148.283 138.066 147.479 139.941C147.479 139.455 147.057 139.147 146.763 138.833C145.224 137.188 141.496 132.34 142.254 130.281C141.783 129.787 140.933 129.448 140.61 128.832C141.446 128.44 143.187 130.92 143.361 130.901C143.534 130.88 144.506 128.372 145.594 128.28Z" fill="#3C230B"/>
<path d="M146.701 130.232C143.019 130.67 144.672 130.071 145.594 128.277C146.082 127.326 146.2 126.889 146.539 126.095C146.553 126.065 146.971 125.785 147.093 125.737C147.238 127.4 147.224 128.636 146.701 130.232Z" fill="#E6AB01"/>
<path d="M145.984 131.796C146.151 133.149 147.228 134.05 147.839 135.152C148.744 136.785 149.66 138.33 149.596 140.298C149.108 140.211 148.454 140.212 147.985 140.476C147.732 140.207 147.732 140.207 147.481 139.938C148.285 138.064 144.005 132.145 144.635 131.648C145.177 131.22 145.925 131.833 145.984 131.796Z" fill="#E39518"/>
<path d="M53.2919 125.445C46.7304 132.062 39.153 121.779 35.9688 116.384C36.3077 114.318 37.1174 112.279 37.6653 110.262C41.3839 116.512 46.8582 121.948 53.2919 125.445Z" fill="#5E696E"/>
<path d="M75.6256 150.27C75.7598 153.34 73.0453 162.144 71.5503 164.372C70.2839 166.259 66.9311 168.926 64.677 169.289C60.3005 169.99 55.4942 165.128 64.8749 163.036C65.0444 173.663 73.2271 157.819 73.1666 154.847C62.8278 149.09 70.2382 153.092 75.6256 150.27Z" fill="#E6AB01"/>
<path d="M34.9088 77.3323C35.1399 77.4237 35.3063 77.4789 35.5277 77.5606C36.0988 77.7681 37.0375 77.8331 37.6775 78.2129C54.2052 80.464 70.5016 84.2248 86.9848 86.6997C87.4289 87.4239 86.9297 87.5918 87.0983 87.7248C87.7529 87.7281 88.3582 88.1269 88.9386 88.2619C88.9547 88.4075 88.9547 88.4074 88.971 88.5551C88.4165 88.4779 87.9514 88.4839 87.4725 88.4243C87.4395 88.4193 87.6954 88.2848 86.8537 88.196C85.9946 88.107 81.1943 85.6273 84.6197 94.8235C85.0145 95.8847 89.7811 101.973 90.8691 103.033C93.8168 105.902 97.0428 106.823 100.165 109.274C101.276 111.207 106.745 116.297 108.875 116.915C115.992 118.984 123.846 113.827 124.22 106.758C127.673 103.377 126.608 97.8816 127.806 93.6002C128.825 89.9648 132.186 85.927 132.71 84.3026C134.511 81.3519 136.453 80.0904 138.835 77.9873C139.966 76.989 141.704 76.0578 141.996 74.3724C142.52 74.9925 142.33 75.4122 142.565 75.4967C144.967 75.0833 144.967 75.0833 147.369 74.6678C149.442 76.3858 152.478 80.7551 154.63 78.6124C154.675 78.6486 154.975 79.1397 155.46 79.411C155.869 79.0949 155.823 78.5475 156.062 78.1571C161.494 69.2842 160.79 67.1134 177.303 63.6381C177.99 63.9715 178.275 64.8239 178.117 65.6256C167.846 66.6114 159.266 70.4495 157.005 81.3174C156.933 81.9927 156.933 81.9927 156.858 82.6682C159.945 86.3082 160.214 93.4883 161.627 90.8945C167.763 79.6126 182.205 88.9471 189.603 94.3238C190.326 94.8502 190.034 95.9311 190.562 96.2951C192.867 96.2933 193.83 97.8657 195.463 99.0172C195.12 99.7311 194.051 100.606 193.427 100.727C189.339 101.522 189.851 96.8765 182.357 91.8636C181.278 91.1425 177.028 88.76 176.04 88.4079C167.489 85.3709 160.41 88.6896 163.367 98.5659C166.244 99.519 169.35 99.6907 172.209 100.702C172.639 104.214 166.405 97.5536 168.185 101.889C168.342 102.268 174.431 105.883 174.356 101.352C178.11 103.963 173.793 109.762 168.803 104.786C165.488 101.481 168.704 100.219 160.368 99.6368C160.401 99.93 160.401 99.93 160.433 100.223C161.736 100.599 161.736 100.599 163.038 100.972C163.59 110.184 160.046 118.085 154.447 125.217C152.873 124.774 145.574 118.323 144.694 118.879C144.446 119.048 144.642 119.288 144.613 119.482C144.464 120.46 146.36 124.473 146.533 126.094C146.194 126.887 146.075 127.323 145.587 128.276C144.499 128.368 143.527 130.878 143.356 130.897C143.182 130.917 141.441 128.436 140.605 128.828C140.574 128.768 140.011 128.709 139.612 127.9C135.912 120.398 141.875 111.722 134.436 120.016C133.851 118.076 133.851 118.076 133.266 116.139C131.533 117.334 133.376 121.023 133.426 122.946C132.681 123.691 132.737 124.296 132.79 125.241C132.915 127.448 133.74 129.659 133.813 131.805C133.868 133.372 133.886 141.773 132.768 142.454C131.371 143.304 129.836 142.525 128.942 141.393C127.336 139.359 127.668 137.091 127.609 134.717C127.414 126.991 129.545 127.085 129.209 125.044C128.742 122.217 127.833 125.987 124.924 126.556C124.12 124.815 124.315 116.437 122.193 116.623C121.015 116.725 124.584 122.06 117.923 126.294C112.542 122.226 112.466 115.536 109.849 120.364C107.591 118.289 108.764 124.044 105.354 117.3C102.132 123.55 102.077 117.581 99.7537 113.618C96.557 108.168 96.0918 111.695 96.3012 111.923C96.4711 112.108 97.386 111.174 99.9161 115.084C103.127 121.776 106.699 128.289 110.119 134.873C111.515 137.561 116.799 145.403 116.304 147.839C115.678 150.911 110.846 153.842 107.639 152.657C106.615 152.278 106.032 151.277 105.326 150.538C104.92 150.111 104.629 149.641 104.285 149.17C103.12 147.578 102.245 145.897 101.355 144.154C100.726 142.921 99.9195 140.428 99.5976 139.008C101.036 136.076 107.91 134.277 107.888 133.491C102.685 128.913 103.349 125.636 96.0174 130.8C95.8718 130.816 95.8718 130.816 95.7242 130.832C94.1524 126.089 93.1698 121.618 92.8152 116.616C92.6185 126.068 90.4341 130.874 85.3011 138.516C84.308 139.995 81.5434 143.631 80.3816 144.995C79.4804 146.052 76.9338 149.211 76.4381 149.587C76.2003 149.767 75.6705 150.246 75.6234 150.27C70.2339 153.092 62.8255 149.088 73.1621 154.846C73.2226 157.818 65.0397 173.659 64.8704 163.034C64.8523 161.873 66.0005 157.335 66.1274 155.625C65.8854 155.357 64.2455 155.71 63.7657 155.739C60.1771 155.946 58.2135 156.486 54.2554 155.605C53.6113 155.462 52.4846 154.971 51.7799 154.692C49.8603 153.927 47.9311 152.783 46.3755 151.432C44.7648 150.033 42.8876 147.501 41.589 145.731C47.1102 148.188 53.1001 149.985 59.2235 149.565C54.6233 148.872 42.686 145.367 39.7333 142.375C37.0005 139.608 36.6713 134.484 36.0891 130.909C38.6414 133.963 41.3244 135.126 44.75 136.774C46.2649 137.503 47.5091 138.115 49.1146 138.665C52.2899 139.754 55.5598 140.681 58.8846 141.145C59.6615 141.254 60.5269 141.401 61.2952 141.471C63.4818 141.673 66.148 141.98 68.3143 141.881C69.045 141.848 79.0262 140.836 76.6851 139.767C76.0121 139.46 71.6733 141.011 61.98 139.615C60.9431 139.465 58.943 138.874 57.7128 138.603C56.5912 138.355 55.4661 138.094 54.3577 137.788C51.5663 137.016 46.6649 135.442 44.1646 134.168C40.801 132.454 37.8667 129.922 35.3738 127.13C34.9525 122.328 35.2012 121.033 35.9643 116.382C39.1484 121.777 46.7256 132.058 53.2873 125.443C55.4841 126.636 60.6863 128.638 63.2194 129.386C69.4345 131.222 83.0909 132.996 88.217 128.696C89.2379 127.839 92.7063 121.892 91.672 121.043C91.0406 120.525 83.8503 120.741 76.2857 116.07C74.8578 115.188 70.3464 111.541 69.1232 110.335C68.9067 110.121 68.8123 110.09 68.7975 110.075C63.1405 104.338 53.9539 91.1441 58.076 82.9232C57.7677 82.6042 56.7436 83.0404 56.3007 82.9725C47.8126 81.6616 39.9438 81.7553 31.9722 77.6553C32.4937 77.004 32.4937 77.004 33.0152 76.3526C33.6331 76.6698 34.2766 77.0817 34.9088 77.3323Z" fill="#080705"/>
<path d="M172.213 100.702C172.865 100.933 173.743 100.922 174.363 101.354C174.436 105.882 168.346 102.269 168.192 101.89C166.41 97.5552 172.643 104.213 172.213 100.702Z" fill="#131816"/>
<path d="M41.5933 145.731C40.9858 144.901 40.1402 144.308 39.835 143.254C39.755 142.982 39.7972 142.659 39.7376 142.375C42.6901 145.365 54.6274 148.869 59.2278 149.564C53.1023 149.985 47.1145 148.187 41.5933 145.731Z" fill="#D7AD99"/>
<path d="M76.2904 116.073C76.3039 116.763 75.5926 115.817 75.526 115.861C75.4389 115.916 75.5449 116.208 74.8915 116.822C70.6617 112.96 72.5597 115.564 69.0793 115.241C69.1047 112.79 69.1047 112.79 69.1301 110.339C70.349 111.545 74.8626 115.192 76.2904 116.073Z" fill="#BF8003"/>
<path d="M69.3161 83.9076C70.5368 83.4669 70.1373 87.5667 71.0717 90.3901C71.876 92.8205 74.0557 94.4076 75.1729 96.6127C69.7472 93.0043 67.5412 84.5483 69.3161 83.9076Z" fill="#7C8A93"/>
<path d="M44.1691 134.17C44.6886 135.104 43.7164 135.461 44.7545 136.776C41.3289 135.127 38.6459 133.964 36.0936 130.911C35.8855 129.638 35.4964 128.473 35.3783 127.132C37.8712 129.923 40.8055 132.456 44.1691 134.17Z" fill="#DBB16D"/>
<path d="M54.3622 137.789C54.9652 141.631 52.0257 138.347 49.1191 138.667C47.5157 138.117 46.2695 137.505 44.7545 136.776C43.7166 135.463 44.6886 135.104 44.1691 134.17C46.6694 135.444 51.5706 137.015 54.3622 137.789Z" fill="#94734E"/>
<path d="M61.2995 141.471C61.6408 140.543 61.6408 140.543 61.9843 139.614C71.6776 141.011 76.0164 139.46 76.6894 139.767C79.0284 140.836 69.0493 141.848 68.3186 141.881C66.1504 141.982 63.484 141.673 61.2995 141.471Z" fill="#372D29"/>
<path d="M61.9843 139.614C61.6429 140.543 61.643 140.543 61.2995 141.471C60.5312 141.4 59.6657 141.253 58.8889 141.144C57.7667 140.029 54.8742 140.202 57.7171 138.603C58.9475 138.876 60.9452 139.465 61.9843 139.614Z" fill="#534033"/>
<path d="M54.3622 137.789C55.4685 138.096 56.5936 138.357 57.7173 138.605C54.8745 140.205 57.767 140.032 58.8892 141.146C55.5644 140.683 52.2944 139.756 49.1192 138.667C52.0255 138.345 54.965 141.629 54.3622 137.789Z" fill="#6D5641"/>
<path d="M161.632 90.894C160.221 93.4897 159.949 86.3077 156.862 82.6677C156.935 81.9924 156.935 81.9924 157.009 81.3169C159.321 86.1065 159.321 86.1065 161.632 90.894Z" fill="#6D5641"/>
<path d="M147.093 125.739C146.971 125.787 146.553 126.067 146.539 126.097C146.366 124.474 144.471 120.464 144.62 119.486C146.743 120.819 146.901 123.572 147.093 125.739Z" fill="#804E02"/>
<path d="M138.11 106.259C139.969 109.682 143.156 114.383 147.407 111.163C150.985 108.455 150.475 100.23 151.449 103.445C152.852 108.078 147.466 120.433 138.58 110.507C134.904 106.4 132.846 100.105 133.26 94.6275C134.552 99.6036 134.552 99.6036 135.846 104.577C136.765 104.794 136.606 106.608 138.11 106.259Z" fill="#495D6C"/>
<path d="M143.978 89.5865C144.4 90.0163 144.66 90.5074 145.02 90.9551C144.792 90.95 144.709 91.061 144.759 91.2807C144.148 91.1252 144.148 91.1252 143.538 90.9719C144.275 91.9583 141.817 96.8558 140.424 97.6968C138.138 95.0361 136.124 93.2206 136.225 89.26C137.951 89.526 141.135 88.8571 142.463 87.9756C142.975 88.5104 143.46 89.0546 143.978 89.5865Z" fill="#5E696E"/>
<path d="M142.288 85.0248C144.424 86.4152 144.564 86.8569 145.967 88.7725C144.975 89.1792 144.975 89.1792 143.98 89.5862C143.46 89.0567 142.975 88.5103 142.467 87.973C141.139 88.8545 137.957 89.5232 136.229 89.2574C136.242 88.7122 136.842 87.1661 137.11 86.4887C139.698 85.758 139.698 85.758 142.288 85.0248Z" fill="#7C8A93"/>
<path d="M138.11 106.259C136.606 106.608 136.763 104.794 135.846 104.582C134.554 99.6056 134.554 99.6056 133.26 94.6318C135.49 82.6798 134.702 95.0506 135.23 99.013C136.076 101.491 136.852 103.94 138.11 106.259Z" fill="#39404F"/>
<path d="M145.965 88.7728C148.985 92.8926 151.45 99.8228 149.757 98.886C148.376 96.0991 146.982 93.3981 145.02 90.9529C144.66 90.5074 144.4 90.0163 143.978 89.5843C144.973 89.1795 144.973 89.1795 145.965 88.7728Z" fill="#5E696E"/>
<path d="M144.759 91.2807C144.947 92.094 144.982 93.6651 145.149 94.7992C143.38 95.6493 143.849 96.9493 143.682 97.6328C143.412 98.7372 143.651 99.8937 143.094 100.369C142.135 99.5481 141.245 98.6523 140.424 97.6968C141.815 96.856 144.275 91.9583 143.538 90.9719C144.148 91.1252 144.148 91.1252 144.759 91.2807Z" fill="#404B56"/>
<path d="M142.288 85.0249C139.697 85.7559 139.697 85.7559 137.11 86.4887C138.7 82.4455 139.187 83.0069 142.288 85.0249Z" fill="#E2E3E4"/>
<path d="M145.408 97.1427C145.422 97.3058 145.833 98.1615 145.831 98.283C144.821 98.2389 144.015 100.547 144.429 101.703C143.634 101.722 143.166 100.428 143.094 100.367C143.65 99.8916 143.412 98.7351 143.682 97.6307C144.545 97.3856 144.545 97.3856 145.408 97.1427Z" fill="#232B32"/>
<path d="M145.148 94.7971C145.284 95.7114 145.333 96.2303 145.408 97.1427C144.545 97.3856 144.545 97.3856 143.682 97.6307C143.851 96.9469 143.38 95.6472 145.148 94.7971Z" fill="#232B32"/>
<path d="M145.831 98.283C145.811 99.1735 146.197 101.661 144.429 101.703C144.015 100.547 144.821 98.2389 145.831 98.283Z" fill="#232B32"/>
<path d="M68.8021 110.076C68.1379 110.808 65.525 106.444 64.651 106.084C63.8955 105.776 63.3972 106.011 62.7138 106.002C65.9915 105.806 60.7624 101.781 58.8906 96.9298C58.2004 98.6397 59.7299 103.256 60.564 105.35C58.5996 106.704 53.935 96.7442 53.5172 95.3C50.7414 85.7286 57.609 84.8293 54.1241 84.6997C54.8507 84.1209 55.6396 83.6154 56.3073 82.9739C56.7503 83.0418 57.7744 82.6056 58.0827 82.9246C53.9586 91.1479 63.1453 104.342 68.8021 110.076Z" fill="#E6AB01"/>
<path d="M74.8894 116.822C75.5428 116.208 75.4369 115.917 75.5239 115.862C75.5926 115.817 76.304 116.763 76.2883 116.074C83.853 120.745 91.043 120.527 91.6747 121.047C92.7087 121.894 89.2404 127.841 88.2197 128.7C83.0938 133.002 69.4372 131.226 63.2221 129.39C62.6608 128.391 55.1584 125.847 55.0653 125.398C56.6526 124.08 58.053 122.484 59.6419 121.182C60.6271 120.375 65.2944 116.94 66.1414 116.901C68.3962 116.798 63.6722 118.314 69.0075 118.661C72.6123 118.894 73.1998 118.409 74.8894 116.822Z" fill="url(#paint0_linear_6_2541)"/>
<path d="M62.7119 106.004C63.3974 106.013 63.8957 105.778 64.6491 106.086C65.5229 106.445 68.1381 110.811 68.8001 110.079C68.8149 110.094 68.9093 110.125 69.1258 110.339C69.1004 112.79 69.1004 112.79 69.0751 115.241C72.5554 115.564 70.6574 112.96 74.8872 116.822C73.1976 118.409 72.6101 118.894 69.0075 118.661C63.6722 118.314 68.3961 116.798 66.1414 116.901C65.2944 116.94 60.6268 120.373 59.6418 121.182C57.4519 121.498 57.4519 121.498 55.2599 121.815C53.6498 118.074 52.4718 114.186 54.1232 110.22C55.813 109.946 53.1286 114.503 55.9798 110.905C57.0909 111.958 59.1737 111.771 59.8061 111.965C57.5278 114.26 60.321 116.458 62.8168 116.381C62.5033 115.466 62.4479 114.164 62.4115 114.051C63.8103 114.533 63.6486 113.054 66.7285 112.832C64.0843 111.706 62.1274 108.747 60.9508 106.201C61.4853 105.726 62.0891 105.995 62.7119 106.004Z" fill="#D49906"/>
<path d="M62.7119 106.004C62.0891 105.995 61.4854 105.728 60.9526 106.199C60.8134 105.9 60.6908 105.673 60.562 105.352C59.7255 103.256 58.1985 98.6421 58.8887 96.9322C60.7604 101.783 65.9896 105.808 62.7119 106.004Z" fill="#D49906"/>
<path d="M60.5621 105.352C60.6909 105.673 60.8135 105.9 60.9527 106.199C62.1312 108.742 64.0883 111.703 66.7304 112.83C63.6508 113.054 63.8122 114.531 62.4135 114.049C62.2557 113.583 61.9182 113.919 61.7785 113.675C61.6166 113.387 63.3804 113.058 59.8083 111.965C59.1759 111.771 57.093 111.958 55.982 110.905C53.1308 114.503 55.8173 109.946 54.1254 110.22C52.472 114.188 53.6519 118.074 55.2621 121.814C57.452 121.498 57.452 121.498 59.644 121.182C58.0553 122.486 56.6547 124.08 55.0675 125.397C55.1605 125.846 62.663 128.391 63.2243 129.39C60.6911 128.642 55.4888 126.64 53.2921 125.447C46.8584 121.95 41.382 116.514 37.6634 110.264C38.2036 108.276 38.3106 106.328 39.0827 104.321C41.9481 96.8802 47.9337 89.6401 54.1201 84.7023C57.605 84.8319 50.7377 85.7333 53.5132 95.3026C53.9331 96.7466 58.5999 106.707 60.5621 105.352Z" fill="#EEBE03"/>
<path d="M52.1765 105.984C53.3796 109.531 53.3381 113.225 51.586 116.732C49.4324 113.443 50.6062 109.331 52.1765 105.984Z" fill="#D49906"/>
<path d="M62.4156 114.048C62.4541 114.161 62.5073 115.464 62.8209 116.378C60.3253 116.457 57.5318 114.258 59.8102 111.963C63.3825 113.057 61.6185 113.385 61.7803 113.672C61.9206 113.921 62.2579 113.583 62.4156 114.048Z" fill="#E6AB01"/>
<path d="M135.592 137.102C135.27 138.849 134.63 140.432 134.384 142.279C133.846 146.32 134.369 149.007 133.305 153.971C132.886 155.924 130.56 157.122 133.857 158.954C131.375 158.707 131.206 156.262 130.666 154.264C130.404 153.292 129.8 152.154 130.406 151.918C134.699 153.282 132.686 145.335 133.292 143.141C133.037 142.833 131.003 143.44 129.725 143.092C129.665 143.075 128.904 142.442 128.748 142.31C128.845 141.855 128.845 141.855 128.944 141.397C129.839 142.529 131.374 143.308 132.771 142.458C133.889 141.777 133.87 133.373 133.816 131.809C133.743 129.666 132.918 127.452 132.792 125.245C137.853 128.513 136.2 133.809 135.592 137.102Z" fill="#281408"/>
<path d="M127.613 134.721C127.223 135.208 127.223 135.208 126.831 135.698C126.749 130.832 126.357 129.658 129.213 125.048C129.55 127.088 127.416 126.995 127.613 134.721Z" fill="#52330F"/>
<path d="M127.613 134.721C127.673 137.095 127.339 139.365 128.946 141.397C128.849 141.852 128.849 141.852 128.751 142.309C127.494 141.233 127.456 140.338 126.895 138.953C126.451 136.923 126.834 135.86 126.831 135.695C127.221 135.21 127.221 135.21 127.613 134.721Z" fill="#9D6904"/>
<path d="M136.789 158.631C136.544 158.728 134.183 158.989 133.857 158.956C130.56 157.124 132.887 155.926 133.305 153.974C135.672 154.413 141.815 156.673 136.789 158.631Z" fill="#E6AB01"/>
<path d="M129.728 143.091C131.005 143.44 133.038 142.835 133.295 143.141C132.688 145.333 134.702 153.282 130.408 151.918C128.686 151.372 127.392 143.775 129.728 143.091Z" fill="#EEBE03"/>
<path d="M119.139 151.981C119.086 155.278 116.7 158.128 113.698 159.111C110.648 158.038 108.018 155.979 107.644 152.66C110.853 153.847 115.683 150.916 116.309 147.842C117.04 148.641 118.816 151.219 119.139 151.981Z" fill="#E6AB01"/>
<path d="M99.6025 139.01C99.2787 138.922 99.0351 138.464 98.9187 138.195C99.429 136.915 96.9898 132.945 96.0223 130.801C103.353 125.637 102.687 128.915 107.893 133.492C107.913 134.279 101.041 136.078 99.6025 139.01Z" fill="#EEBE03"/>
<path d="M98.9184 138.195C98.8806 138.108 98.9216 137.989 98.8859 137.902C97.8703 135.499 96.5675 133.36 95.7288 130.834C95.8743 130.818 95.8743 130.818 96.022 130.801C96.9895 132.945 99.4287 136.915 98.9184 138.195Z" fill="#3C230B"/>
<path d="M120.798 158.918C118.971 158.447 117.275 159.508 115.587 160.089C115.368 160.026 114.927 159.939 114.675 159.893C114.113 159.626 113.757 159.132 113.698 159.111C116.7 158.128 119.086 155.278 119.139 151.981C120.484 155.166 120.134 156.312 120.798 158.918Z" fill="#3C230B"/>
<path d="M127.603 161.427C126.252 164.036 120.428 161.762 118.386 161.261C119.414 160.837 121.005 159.539 121.156 159.47C121.564 159.282 121.194 158.647 122.409 158.738C124.766 159.56 129.17 158.4 127.603 161.427Z" fill="#E6AB01"/>
<path d="M120.798 158.918C120.871 159.207 121.14 159.212 121.156 159.472C121.005 159.541 119.414 160.839 118.386 161.263C115.974 160.67 115.733 160.131 115.585 160.089C117.273 159.508 118.971 158.447 120.798 158.918Z" fill="#52330F"/>
<path d="M132.713 84.3045C132.188 85.9289 128.825 89.967 127.808 93.6021C126.61 97.8835 127.675 103.377 124.222 106.759C123.848 113.829 115.996 118.984 108.878 116.916C106.749 116.297 101.279 111.209 100.168 109.276C97.873 105.282 105.61 112.073 107.071 109.996C111.083 111.479 118.332 110.267 121.988 108.047C122.329 107.84 123.303 107.617 123.927 106.794C125.185 101.815 125.43 96.2897 127.237 91.1458C127.85 89.4011 127.352 89.8701 127.385 89.795C128.106 88.112 131.463 84.8372 132.077 82.5984C134.114 83.2438 132.442 83.4225 132.369 83.9006C132.294 84.4028 132.721 84.2798 132.713 84.3045Z" fill="#804E02"/>
<path d="M86.8518 88.1984C83.0126 90.4845 87.2691 97.4439 90.4311 99.0782C90.9665 99.3547 90.6382 99.599 90.9672 99.9092C92.1232 98.2972 92.1232 98.2972 93.2813 96.6849C93.7497 102.773 93.5721 96.6701 95.1379 97.3697C95.7761 97.6543 92.9206 101.409 95.9014 100.253C95.1456 105.948 97.869 100.57 98.1643 100.596C98.8184 100.654 101.74 108.023 107.069 109.996C105.605 112.073 97.8708 105.282 100.165 109.276C97.043 106.825 93.8173 105.907 90.8693 103.035C89.7792 101.975 85.0145 95.8847 84.6199 94.8257C81.1924 85.6297 85.9924 88.1072 86.8518 88.1984Z" fill="#9D6904"/>
<path d="M88.9689 88.5554C91.8289 88.9492 94.5994 89.5133 97.4362 89.992C96.8567 92.1338 96.8567 92.1338 96.2793 94.2753C97.9534 93.9188 99.1594 92.6804 100.27 91.459C99.4678 94.076 97.4957 96.4175 96.6509 98.9808C96.3055 100.029 95.9105 100.178 95.9012 100.251C92.9184 101.409 95.7761 97.6543 95.1377 97.3676C93.5719 96.6679 93.7495 102.771 93.2811 96.6828C92.1251 98.2948 92.1251 98.2948 90.967 99.9071C90.638 99.5969 90.9662 99.3526 90.4308 99.0761C90.6032 95.2527 89.7145 91.4148 87.4704 88.4245C87.9493 88.4841 88.4147 88.4803 88.9689 88.5554Z" fill="#E6AB01"/>
<path d="M134.081 77.9224C135.906 77.69 137.88 77.8505 137.47 76.3599C136.691 71.9118 138.631 75.7958 138.837 77.9892C136.455 80.0923 134.513 81.3538 132.713 84.3045C132.721 84.2798 132.297 84.4026 132.371 83.8983C132.441 83.4203 134.113 83.2395 132.079 82.596C131.465 84.8348 128.108 88.1096 127.386 89.7926C127.354 89.8699 127.852 89.3988 127.239 91.1434C126.719 90.4601 126.719 90.4601 126.197 89.7748C126.267 89.6003 126.041 88.8931 126.051 88.4565C127.341 86.9575 128.628 85.2399 128.432 83.1495C132.193 85.2698 130.102 72.7628 131.66 74.7806C133.018 76.5409 133.696 83.7385 134.081 77.9224Z" fill="#9D6904"/>
<path d="M87.4707 88.4266C89.7127 91.4171 90.6035 95.2549 90.4311 99.0782C87.2691 97.4439 83.0127 90.4845 86.8518 88.1984C87.6933 88.285 87.4377 88.4216 87.4707 88.4266Z" fill="#D49906"/>
<path d="M114.017 81.6284C114.023 81.9201 114.101 82.2148 114.114 82.508C114.176 83.8681 114.298 85.0267 113.95 86.3846C116.562 86.9293 119.231 90.0177 118.068 90.0836C112.074 86.1677 114.069 90.1366 116.993 95.0989C113.761 94.0465 113.761 94.0464 110.529 92.9962C110.464 92.7239 111.579 92.9861 110.807 90.1469C109.574 87.5603 108.323 85.1272 106.722 82.7352C106.34 82.1644 105.771 81.662 105.354 81.1059C108.966 81.9169 108.738 83.1814 111.541 80.7175C112.576 79.8078 113.578 78.5313 113.969 77.1839C114.243 77.2142 114.01 81.2132 114.017 81.6284Z" fill="#954C02"/>
<path d="M110.528 95.6654C110.242 97.7747 110.242 97.7747 109.957 99.8837C108.737 96.9036 108.737 96.9036 107.516 93.9234C105.431 96.5288 105.431 96.5288 103.345 99.1342C103.606 96.1372 103.606 96.1372 103.868 93.1424C101.786 94.9372 97.6595 99.2656 96.6514 98.9851C97.4962 96.4218 99.4662 94.0806 100.27 91.4633C100.61 91.0899 101.212 90.8737 101.02 90.1931C103.275 90.5824 105.497 91.2181 107.811 91.2218C108.475 91.5447 109.78 94.5111 110.528 95.6654Z" fill="#954C02"/>
<path d="M127.237 91.1437C125.428 96.2878 125.184 101.813 123.927 106.792C123.305 107.617 122.329 107.838 121.988 108.045C121.754 107.228 119.233 107.154 119.171 106.725C119.128 106.422 120.534 105.987 121.321 104.706C122.105 103.432 124.744 97.9516 122.595 97.4443C124.522 95.3244 125.129 92.4322 126.197 89.7748C126.717 90.4582 126.717 90.4582 127.237 91.1437Z" fill="#BF8003"/>
<path d="M106.528 78.3026C106.591 78.3238 106.605 78.5561 107.765 78.7591C107.48 79.588 110.1 80.3203 111.543 80.7151C108.74 83.179 108.969 81.9167 105.356 81.1036C104.609 80.1096 103.565 79.4864 102.979 78.3988C101.332 75.3403 104.469 77.5947 106.528 78.3026Z" fill="#BF8003"/>
<path d="M114.017 81.6284C114.01 81.2132 114.243 77.2142 113.969 77.1817C113.578 78.5291 112.576 79.8057 111.541 80.7153C110.098 80.3206 107.48 79.5901 107.763 78.7594C108.565 78.9002 109.339 78.8448 110.141 78.7928C110.345 79.106 110.732 79.8041 111.003 79.8845C111.398 79.5202 111.351 79.274 111.377 79.2496C112.265 78.4255 115.831 70.7037 115.302 79.8526C115.26 80.6437 115.091 81.7781 114.017 81.6284Z" fill="#BF8003"/>
<path d="M113.952 86.3822C114.3 85.0243 114.178 83.8658 114.116 82.5056C120.775 80.503 118.624 83.5012 113.952 86.3822Z" fill="#BF8003"/>
<path d="M110.143 78.7926C109.341 78.8446 108.567 78.9 107.765 78.7591C106.605 78.5561 106.59 78.3238 106.527 78.3026C107.112 77.5966 107.321 76.4296 107.408 75.5339C109.173 75.2192 109.48 77.772 110.143 78.7926Z" fill="#D49906"/>
<path d="M110.411 59.7721C123.171 59.5896 133.824 62.8639 141.575 73.234C141.675 73.366 141.911 74.2713 141.999 74.3743C141.706 76.0597 139.97 76.9885 138.837 77.9892C138.631 75.7958 136.691 71.9118 137.47 76.3599C136.183 76.1428 135.819 74.0556 134.132 74.3551C134.008 74.4815 134.178 76.4688 134.083 77.9221C133.698 83.7382 133.018 76.5409 131.658 74.7786C130.1 72.7631 132.193 85.2676 128.429 83.1476C128.626 85.238 127.339 86.9556 126.049 88.4546C126.039 88.8912 126.264 89.5984 126.195 89.7729C125.126 92.4281 124.519 95.3204 122.592 97.4424C124.741 97.9518 122.103 103.43 121.319 104.704C120.531 105.985 119.126 106.42 119.168 106.723C119.229 107.154 121.752 107.226 121.985 108.043C118.327 110.263 111.079 111.476 107.069 109.991C101.74 108.019 98.8179 100.649 98.1638 100.592C97.8685 100.566 95.1451 105.944 95.9009 100.249C95.9102 100.176 96.3052 100.026 96.6506 98.9787C97.6585 99.257 101.785 94.9286 103.868 93.136C103.606 96.133 103.606 96.133 103.344 99.1278C105.43 96.5224 105.43 96.5224 107.516 93.917C108.736 96.8972 108.736 96.8972 109.957 99.8773C110.243 97.768 110.243 97.768 110.527 95.6589C114.581 101.919 111.084 95.3697 110.528 92.9876C113.76 94.0401 113.76 94.0401 116.992 95.0903C114.068 90.1281 112.073 86.1592 118.068 90.0751C119.23 90.0113 116.562 86.9229 113.949 86.376C118.623 83.4926 120.774 80.4944 114.113 82.4994C114.1 82.2062 114.022 81.9116 114.016 81.6198C115.09 81.7695 115.256 80.6354 115.303 79.8459C115.833 70.697 112.268 78.4164 111.378 79.2429C109.809 73.1103 109.809 73.1103 108.239 66.9798C107.055 69.6457 107.678 72.7288 107.405 75.5299C107.318 76.4234 107.11 77.5926 106.525 78.2986C104.466 77.5907 101.329 75.3363 102.974 78.395C96.4465 73.0346 96.4465 73.0346 89.9169 67.6744C89.9137 67.3715 89.2223 67.0755 89.2494 67.0075C89.6255 66.0603 91.3093 65.2628 91.938 64.4848C94.4603 63.7657 96.8126 62.0797 99.2994 61.2952C99.7244 61.1614 100.377 60.9289 100.733 60.8396C103.764 60.075 107.307 59.8169 110.411 59.7721Z" fill="#E6AB01"/>
<path d="M111.381 79.2491C111.353 79.2738 111.402 79.5197 111.007 79.8841C110.736 79.8057 110.349 79.1077 110.145 78.7923C109.482 77.7717 109.176 75.219 107.41 75.5337C107.683 72.7348 107.058 69.6519 108.244 66.9836C109.812 73.1186 109.812 73.1186 111.381 79.2491Z" fill="#E6AB01"/>
<path d="M137.47 76.3599C137.88 77.8505 135.905 77.69 134.081 77.9224C134.178 76.4709 134.006 74.4818 134.13 74.3553C135.819 74.0556 136.183 76.1449 137.47 76.3599Z" fill="#BF8003"/>
<path d="M111.258 106.265C113.553 107.568 113.553 107.568 115.849 108.872C113.68 109.396 111.882 108.421 111.258 106.265Z" fill="#BF8003"/>
<path d="M99.0256 62.8138C99.2762 62.7492 100.304 62.605 100.36 62.8133C100.548 63.4923 96.3067 63.5179 99.0256 62.8138Z" fill="#FFFC6F"/>
<path d="M101.02 90.1888C101.212 90.8694 100.61 91.0856 100.27 91.459C99.1594 92.6803 97.9532 93.9166 96.2793 94.2753C96.8588 92.1335 96.8588 92.1336 97.4362 89.992C98.5775 90.1841 100.284 90.0622 101.02 90.1888Z" fill="#BF8003"/>
<path d="M59.4821 33.9603C59.4148 33.9591 59.3205 34.457 58.1963 34.3995C55.2159 34.2486 52.1003 33.1313 49.0598 33.6305C48.6366 33.4867 48.7546 33.3784 48.7342 33.3698C48.0972 33.1154 46.9505 32.7571 46.5357 32.2787C45.5838 28.6319 40.6441 22.2724 41.5077 19.0377C43.4795 20.195 61.9695 30.9313 61.6472 32.0892C61.5757 32.3441 59.1571 32.6878 59.4821 33.9603Z" fill="#6D5641"/>
<path d="M77.7526 35.4963C77.7599 36.2472 76.8281 36.0493 76.0258 35.9843C72.6088 34.257 64.7402 32.8472 62.0391 31.5995C61.3635 31.2887 59.6983 29.7703 59.2882 29.5298C60.7132 28.3906 59.5671 23.069 58.7374 21.8762C63.3532 24.177 75.3224 31.4326 77.7526 35.4963Z" fill="#726551"/>
<path d="M86.2777 56.2142C85.9307 56.2504 85.9864 56.8509 85.7887 57.1587C84.2869 59.4828 85.6885 58.5823 85.9835 58.918C86.0332 58.9753 85.8455 59.2365 86.3741 59.7651C85.8851 60.7096 85.8851 60.7096 85.3961 61.6542C84.6082 60.0755 85.4586 58.4821 83.7028 59.7641C82.4109 58.486 77.3738 59.9126 79.9571 58.1014C80.5887 58.0336 81.2873 58.1599 81.6677 57.4678C75.6838 55.6456 63.106 58.4857 63.854 50.6861C72.3585 51.0896 78.5827 53.5351 86.2777 56.2142Z" fill="#C0AD94"/>
<path d="M58.7375 21.8762C59.5672 23.069 60.7133 28.3906 59.2883 29.5298C53.3701 26.0517 47.8381 21.7184 41.9986 18.0908C46.0469 15.1099 54.8806 19.9528 58.7375 21.8762Z" fill="#6D5641"/>
<path d="M99.7304 54.4276C98.9521 55.6359 98.3056 54.8063 97.3523 54.3941C94.4926 53.1618 83.5561 46.6627 82.2753 44.1941C81.9146 43.4996 80.6081 39.6451 81.1046 38.9835C87.623 43.7535 93.2826 49.5913 99.7304 54.4276Z" fill="#B6AC86"/>
<path d="M48.7342 33.3698C48.7546 33.3784 48.6366 33.4868 49.0598 33.6305C51.684 34.5163 58.6972 34.6386 59.1387 34.8887C60.8694 35.8647 55.7193 41.0236 54.1542 40.7809C53.4554 40.672 44.744 32.4144 48.7342 33.3698Z" fill="#867D70"/>
<path d="M59.2883 29.5298C59.6984 29.7703 61.3654 31.2863 62.0392 31.5995C64.7402 32.8472 72.6088 34.257 76.0259 35.9843C75.9603 35.9786 76.2069 36.4257 74.7076 36.1303C73.1559 35.7151 63.9077 32.2938 63.3094 32.3492C61.7757 32.4866 63.4792 34.2542 60.1335 34.4817C60.0926 34.4841 59.981 33.9657 59.4821 33.9603C59.1594 32.6897 61.5779 32.3438 61.6493 32.089C61.9717 30.9311 43.4817 20.1947 41.5099 19.0374C41.6539 18.4994 41.3619 18.562 41.9989 18.0929C47.836 21.7186 53.3679 26.0519 59.2883 29.5298Z" fill="#281408"/>
<path d="M88.3279 61.3273C88.58 61.7067 89.0032 61.948 88.9954 61.9943C88.9062 62.5198 87.8986 61.52 87.8387 62.2698C87.4991 62.1579 85.8052 61.9252 85.4281 61.9431C85.412 61.7976 85.412 61.7976 85.3956 61.6499C85.8846 60.7054 85.8846 60.7054 86.3736 59.7608C86.4618 59.8529 87.0659 59.4393 88.3279 61.3273Z" fill="#585245"/>
<path d="M77.0638 48.036C84.9632 47.1612 89.6376 51.1063 96.3272 54.5077C96.4786 54.584 97.4087 54.923 97.3523 54.3941C98.3055 54.8042 98.95 55.6362 99.7304 54.4276C100.742 55.1865 106.567 59.745 107.008 59.8522C107.34 59.9325 108.511 59.6295 109.206 59.6088C109.767 59.5921 109.938 59.8571 110.411 59.7721C107.307 59.8169 103.764 60.075 100.738 60.8434C98.1889 58.9939 94.1083 57.4961 91.0339 56.2811C91.0109 55.937 91.4575 55.8615 91.1145 55.6785C90.6516 55.4308 79.7875 52.3055 82.3552 51.6052C87.7529 52.9659 77.5375 48.6161 76.5748 48.9806C76.5262 48.5418 76.5262 48.5418 76.4774 48.101C76.7706 48.0685 76.7706 48.0685 77.0638 48.036Z" fill="#B6AC86"/>
<path d="M91.0338 56.2811C87.3408 54.8204 78.882 52.3061 76.1182 50.2183C76.0524 49.4089 76.6476 49.2866 76.5748 48.9806C77.5372 48.614 87.7529 52.9659 82.3551 51.6052C79.7875 52.3055 90.6515 55.4308 91.1144 55.6785C91.4575 55.8615 91.0088 55.9372 91.0338 56.2811Z" fill="#867D70"/>
<path d="M82.2752 44.1941C83.556 46.6628 94.4902 53.1599 97.3522 54.3941C97.4086 54.923 96.4764 54.5843 96.3271 54.5077C89.6375 51.1063 84.9652 47.161 77.0637 48.036C74.7422 44.2094 86.362 51.0098 82.7633 45.9208C82.3602 45.3524 81.9464 44.7266 81.3956 44.2915C81.8365 44.2427 81.8365 44.2427 82.2752 44.1941Z" fill="#262017"/>
<path d="M84.7979 52.2229C86.0032 52.3862 86.0032 52.3862 87.2085 52.5495C91.8856 55.5607 86.4513 53.3808 84.7979 52.2229Z" fill="#90917B"/>
<path d="M99.3042 61.299C96.8172 62.0814 94.4651 63.7695 91.9428 64.4886C93.4171 62.6594 90.9257 62.19 88.3279 61.3274C87.0657 59.4372 86.464 59.8526 86.3739 59.763C85.8453 59.2344 86.033 58.9732 85.9833 58.9158C87.4799 58.228 87.3585 57.3662 85.7885 57.1566C85.9862 56.8488 85.9305 56.2483 86.2775 56.2121C90.6895 57.749 95.2801 58.8048 99.3042 61.299Z" fill="#C0AD94"/>
<path d="M91.0149 60.1394C92.2422 59.7587 96.9685 63.0373 94.0109 63.0724C93.8009 63.074 91.138 60.8602 91.0149 60.1394Z" fill="#080705"/>
<path d="M85.9836 58.918C85.6886 58.5823 84.287 59.4828 85.7887 57.1588C87.3585 57.3662 87.4802 58.2301 85.9836 58.918Z" fill="#080705"/>
<path d="M76.0259 35.9843C76.8282 36.0493 77.7579 36.2475 77.7527 35.4963C78.8454 37.3229 77.8312 36.7723 77.9311 37.1079C78.028 37.4351 79.7675 38.0007 81.1066 38.9811C80.6101 39.6427 81.9165 43.4972 82.2772 44.1917C81.8385 44.2403 81.8385 44.2403 81.3976 44.2891C81.3002 44.2111 79.8908 44.1613 79.4436 42.7247C81.7932 40.662 76.8291 40.6745 79.1504 42.7572C76.4773 44.3639 72.3195 42.8139 74.7025 45.4747C76.1979 47.1418 78.2801 46.0685 78.48 46.094C78.7154 46.1264 80.4955 48.0177 82.7629 45.9165C86.3616 51.0055 74.7418 44.2051 77.0633 48.0317C76.7701 48.0642 76.7701 48.0642 76.4769 48.0967C72.2095 45.0683 73.3581 42.3133 70.1443 44.4955C72.7495 45.6411 74.0606 48.6567 76.1178 50.214C76.137 50.4459 76.361 50.4731 76.4759 50.768C71.7422 50.5318 67.0458 49.4401 62.2923 49.9644C60.3877 48.9447 52.5887 41.8837 57.8324 41.8533C58.9364 41.8458 65.6053 44.1012 59.8524 41.3328C53.6771 41.1284 57.8186 41.9631 59.7884 38.0751C62.3928 38.1571 62.3928 38.1571 64.9994 38.2389C63.3476 36.7233 58.8749 37.8469 60.1307 34.4756C63.4764 34.248 61.7731 32.4826 63.3066 32.3431C63.9051 32.2898 73.1509 35.7092 74.7047 36.1242C76.2072 36.4279 75.9603 35.9786 76.0259 35.9843Z" fill="#867D70"/>
<path d="M76.4764 50.7722C76.489 50.8077 77.2775 50.9372 76.9806 51.3105C76.7296 51.0413 76.7296 51.0413 76.4764 50.7722Z" fill="#867D70"/>
<path d="M76.4774 48.1009C76.526 48.5397 76.526 48.5397 76.5748 48.9805C76.6477 49.2866 76.0525 49.4088 76.1183 50.2183C74.0589 48.6612 72.75 45.6454 70.1448 44.4997C73.3585 42.3175 72.2097 45.0705 76.4774 48.1009Z" fill="#080705"/>
<path d="M81.3957 44.2915C81.9465 44.7266 82.3602 45.3523 82.7633 45.9208C80.496 48.022 78.7159 46.1307 78.4805 46.0983C78.2803 46.0706 76.1983 47.1461 74.703 45.4789C72.3178 42.8184 76.4756 44.3684 79.1508 42.7614C79.2322 42.7134 79.3867 42.7787 79.444 42.729C79.8889 44.1637 81.2982 44.2134 81.3957 44.2915Z" fill="#A49E89"/>
<path d="M60.4055 43.648C60.5416 43.5268 63.5641 44.1561 64.0213 44.138C65.2464 44.089 65.5369 42.4081 67.4082 43.9102C64.9794 46.1571 62.6968 42.9567 60.9258 45.6658C60.4164 45.6832 60.1001 43.9223 60.4055 43.648Z" fill="#867D70"/>
<path d="M73.7286 40.6907C79.1231 41.3758 72.7331 44.5532 71.9049 41.6336C72.0387 41.2375 74.1468 42.3537 73.7286 40.6907Z" fill="#262017"/>
<path d="M61.2517 45.9287C64.2277 46.3531 67.1816 46.7929 69.9478 48.081C67.6979 47.8557 61.4535 46.851 61.2517 45.9287Z" fill="#372D29"/>
<path d="M79.4438 42.7268C79.3865 42.7765 79.2319 42.7113 79.1506 42.7593C76.8275 40.679 81.7936 40.6663 79.4438 42.7268Z" fill="#080705"/>
<path d="M70.403 48.1801C70.7917 47.931 71.4967 48.4037 71.4777 48.5056C71.3818 49.0497 69.9433 48.4739 70.403 48.1801Z" fill="#443B2D"/>
<path d="M103.302 84.0021C104.295 84.7653 105.264 85.4184 106.347 86.0394C106.387 85.7381 106.387 85.7381 106.427 85.4369C106.761 83.9527 107.029 84.3 106.721 82.7331C108.323 85.1251 109.571 87.5562 110.807 90.1447C111.579 92.9839 110.466 92.7215 110.529 92.994C111.087 95.3759 114.581 101.926 110.528 95.6653C109.781 94.5111 108.475 91.5468 107.81 91.2175C105.498 91.2136 103.275 90.5781 101.02 90.1888C100.286 90.062 98.5776 90.1841 97.4363 89.992C94.5994 89.5133 91.8292 88.9513 88.969 88.5553C88.9528 88.4098 88.9528 88.4098 88.9365 88.2621C89.9663 88.5034 99.4391 90.119 98.121 88.1354C98.4323 88.1291 98.6628 88.5671 98.8855 88.3475C98.853 88.0543 98.853 88.0543 98.8205 87.7611C98.1806 87.0694 89.8812 85.0552 88.3667 84.4668C87.9502 84.305 87.5897 83.6907 87.5373 83.6683C87.6343 83.2134 87.6343 83.2134 87.7331 82.7562C89.7072 83.4258 91.8921 83.7883 93.8548 84.4527C95.7027 85.0778 106.661 89.5207 107.548 88.87C107.516 88.5768 107.516 88.5768 107.483 88.2836C100.245 84.8 92.9467 81.1628 85.4544 78.2598C85.9758 77.6084 85.9758 77.6085 86.4973 76.9571C87.263 77.4551 100.817 82.7847 103.302 84.0021Z" fill="#361505"/>
<path d="M28.853 68.2107C28.0121 68.5205 24.4922 69.0533 25.5797 69.4636C28.9019 68.6516 28.9019 68.6516 32.2238 67.8374C37.4032 73.3103 42.3304 75.1954 34.7296 74.3841C34.4876 75.0154 36.4799 75.1262 36.4872 75.524C36.4897 75.645 35.396 76.0781 34.9064 77.3304C34.274 77.0776 33.6305 76.6658 33.0173 76.3524C28.0953 73.8298 21.7987 69.2238 21.7693 63.2066C21.9699 62.7294 22.5618 62.6747 22.861 62.3447C24.0117 65.0272 28.1546 63.8014 30.3357 64.1882C35.5861 65.1188 30.1083 67.0448 28.853 68.2107Z" fill="#867D70"/>
<path d="M46.8275 77.7931C46.9193 77.8003 47.0106 78.3513 48.5365 78.4942C51.4097 78.3234 51.4097 78.3234 54.2853 78.1544C61.2138 79.7615 61.2138 79.7615 68.1424 81.3686C73.8264 81.5385 81.4154 83.8675 86.4297 84.3867C85.7663 85.6929 86.3161 85.6103 86.9827 86.6999C70.4997 84.2271 54.2034 80.4664 37.6754 78.2131C35.8005 76.0723 43.7002 77.548 46.8275 77.7931Z" fill="#6D5641"/>
<path d="M45.9813 75.5124C44.5734 76.6887 46.9484 76.2047 46.8275 77.7931C43.7002 77.548 35.8005 76.0723 37.6754 78.2131C37.0354 77.8333 36.0967 77.7683 35.5256 77.5608C39.0018 73.4062 41.5514 74.753 45.9813 75.5124Z" fill="#A09281"/>
<path d="M98.1211 88.1354C99.4391 90.119 89.9663 88.5034 88.9365 88.2621C88.3561 88.1271 87.7506 87.7262 87.0962 87.725C86.9274 87.5899 87.4268 87.4241 86.9827 86.6999C89.8883 87.1342 95.8485 88.1748 98.1211 88.1354Z" fill="#281408"/>
<path d="M84.4484 69.1769C85.6063 69.6943 93.0571 72.3008 93.3225 71.6063C92.1192 70.6 90.7829 69.7623 89.4632 68.9184C89.1661 67.8399 89.9207 67.7477 89.9197 67.6806C96.4472 73.041 96.4472 73.041 102.977 78.4012C103.561 79.489 104.607 80.1119 105.354 81.1059C105.771 81.6599 106.34 82.1644 106.722 82.7353C107.029 84.3021 106.761 83.9527 106.427 85.439C102.309 81.74 102.309 81.74 98.1905 78.043C96.6852 75.7184 94.0902 74.4697 91.7444 73.4167C89.3369 72.3358 70.905 66.6625 69.8767 67.5302C69.8173 67.5802 69.7192 68.4944 69.6004 69.0448C69.583 69.1226 69.6322 69.2341 69.6328 69.338C67.9826 65.9202 70.7185 67.4435 72.8088 67.2055C72.5398 66.7912 72.5397 66.7912 72.2726 66.3745C76.1968 67.7315 80.4076 68.2726 84.4484 69.1769Z" fill="#281408"/>
<path d="M59.7597 73.9865C58.1644 73.3725 46.5889 71.277 51.7155 73.6902C48.8521 72.9718 45.9646 71.7426 42.9874 72.5792C43.4716 71.8648 48.7932 66.8452 49.3248 66.834C51.1017 67.8937 59.5531 71.7888 60.0057 72.1785C60.9525 73.0009 59.6821 72.8166 59.7597 73.9865Z" fill="#A49E89"/>
<path d="M80.4064 80.8986C81.787 81.4715 83.1478 82.2957 84.4778 82.8221C84.0552 83.0162 84.0552 83.0162 83.6307 83.2127C75.0423 81.1136 65.2231 80.0866 56.6492 78.0399C56.9731 77.3065 58.6168 76.2644 58.7839 75.8754C65.9087 77.9049 65.9087 77.9049 73.0313 79.9346C76.1568 79.7726 79.2884 81.915 80.4064 80.8986Z" fill="#7B7B61"/>
<path d="M85.8474 73.7686C85.8635 73.9142 85.8635 73.9142 85.8799 74.0618C84.2727 74.0059 84.8531 74.767 84.772 74.7781C84.6246 74.7966 83.496 74.25 81.8238 74.9573C83.4927 76.6269 83.4927 76.6269 85.1616 78.2966C83.2979 77.5866 81.7094 76.584 79.6264 76.5352C79.8451 76.0647 80.0385 76.3249 80.1478 75.8838C80.5912 74.0973 77.4731 74.7567 76.2566 74.2372C75.9247 74.0963 70.1915 71.0375 69.9401 70.7815C69.1326 69.9654 69.6335 70.2631 69.6322 69.3316C69.6315 69.2277 69.5823 69.1162 69.5997 69.0384C72.3844 69.6334 75.0265 70.9548 77.7582 71.6965C80.327 72.3956 83.8593 72.2102 85.8474 73.7686Z" fill="#90917B"/>
<path d="M79.9895 63.7348C82.5631 64.9858 87.1242 67.4183 89.4651 68.916C90.7826 69.7601 92.1189 70.5979 93.3244 71.6039C93.059 72.2984 85.6082 69.6919 84.4504 69.1746C82.3465 68.2334 81.6455 68.4172 81.5361 68.3101C80.973 67.7637 82.4336 66.7116 78.2144 65.1164C73.9849 64.3868 69.5855 62.1031 65.7912 61.4488C65.3768 60.5241 65.4284 59.953 65.2707 59.4289C69.0246 62.0071 73.8658 63.1348 78.182 64.8232C79.086 64.2811 79.086 64.2811 79.9895 63.7348Z" fill="#B6AC86"/>
<path d="M84.4484 69.1769C80.4057 68.275 76.197 67.7337 72.2679 66.3707C67.3972 64.683 67.4379 65.1291 65.7892 61.4512C69.5838 62.1076 73.983 64.3891 78.2125 65.1188C82.4317 66.7139 80.9687 67.7642 81.5342 68.3125C81.6433 68.4174 82.3467 68.2355 84.4484 69.1769Z" fill="#AAAC8E"/>
<path d="M79.9895 63.7348C79.0857 64.279 79.0857 64.279 78.1822 64.8253C73.8639 63.1371 69.0248 62.0092 65.2709 59.431C65.2132 59.2424 63.7606 57.668 64.8981 57.3947C69.9101 59.5758 75.058 61.3411 79.9895 63.7348Z" fill="#B6AC86"/>
<path d="M51.7155 73.6902C54.4674 74.3798 57.4298 74.8772 57.2507 75.4516C57.0985 75.5443 56.899 77.0092 54.3031 76.9652C48.4746 75.2363 48.4746 75.2363 42.644 73.5077C41.9724 72.4707 42.9482 72.6356 42.9853 72.5795C45.9646 71.7426 48.8523 72.9739 51.7155 73.6902Z" fill="#727165"/>
<path d="M28.8531 68.2107C30.1083 67.0448 35.5862 65.1188 30.3357 64.1881C28.1546 63.8014 24.0117 65.0271 22.861 62.3447C25.5127 59.4102 31.2033 62.985 34.798 62.9509C32.7472 66.3821 32.2581 66.9541 28.8531 68.2107Z" fill="#A09281"/>
<path d="M84.4777 82.8221C85.3137 83.152 86.6997 83.3429 87.5396 83.6702C87.5938 83.6902 87.9524 84.3069 88.369 84.4687C89.8832 85.055 98.1829 87.0713 98.8228 87.763C98.8553 88.0562 98.8553 88.0562 98.8878 88.3494C98.663 88.5693 98.4346 88.131 98.1233 88.1373C95.8508 88.1766 89.8884 87.1363 86.9847 86.6996C86.3181 85.6101 85.7686 85.6948 86.4318 84.3865C89.3224 84.6859 85.0981 83.5723 83.6306 83.2127C84.0532 83.0186 84.0532 83.0186 84.4777 82.8221Z" fill="#895E3A"/>
<path d="M80.1478 75.8839C80.0385 76.3249 79.845 76.0647 79.6263 76.5352C79.4021 77.015 77.7652 77.1594 79.773 79.1901C78.9154 79.036 75.2068 77.7872 75.0021 77.6409C74.8001 77.4986 74.1958 76.2289 71.9412 74.1215C74.6512 74.7854 77.2931 75.9097 80.1478 75.8839Z" fill="#B6AC86"/>
<path d="M54.2874 78.1542C51.4142 78.3251 51.4142 78.325 48.5386 78.494C47.0128 78.351 46.9214 77.8001 46.8296 77.7929C46.9505 76.2045 44.5758 76.6907 45.9835 75.5122C47.7701 75.8191 54.61 77.2129 54.2874 78.1542Z" fill="#867D70"/>
<path d="M85.1616 78.2966C85.2432 78.3287 85.3733 78.232 85.4548 78.2641C92.9471 81.1671 100.246 84.8043 107.484 88.2878C107.516 88.581 107.516 88.581 107.549 88.8743C106.661 89.525 95.7031 85.082 93.8552 84.4569C90.616 82.164 86.4461 81.7181 82.7503 80.6434C80.1604 79.8903 75.1563 78.0354 74.7395 77.9689C74.8689 77.8073 74.8689 77.8073 75.0003 77.6433C75.2047 77.7874 78.9135 79.0383 79.7711 79.1925C77.7633 77.1618 79.4026 77.0192 79.6244 76.5376C81.7112 76.5816 83.2998 77.5842 85.1616 78.2966Z" fill="#DBB16D"/>
<path d="M85.8798 74.0618C88.9024 76.4134 92.1882 77.0136 94.6391 78.1352C96.0197 78.7665 97.3415 78.9061 98.678 79.7655C99.5272 80.3127 101.643 82.728 103.302 84.0021C100.819 82.7866 87.2632 77.4572 86.4998 76.9612C86.3831 76.8853 86.0554 75.7647 84.7741 74.7779C84.8552 74.7668 84.2726 74.0059 85.8798 74.0618Z" fill="#E6AB01"/>
<path d="M74.7414 77.9666C75.1582 78.0331 80.162 79.8858 82.7522 80.641C84.3758 81.4122 86.0295 82.1823 87.7357 82.7603C87.6388 83.2151 87.6388 83.2151 87.5399 83.6724C86.6999 83.3451 85.3139 83.1541 84.478 82.8243C83.148 82.2978 81.7872 81.4736 80.4066 80.9008C77.6632 79.7596 70.7323 77.3295 74.7414 77.9666Z" fill="#3C230B"/>
<path d="M106.427 85.4369C106.387 85.7381 106.387 85.7381 106.347 86.0394C105.264 85.4205 104.295 84.7653 103.302 84.0021C101.643 82.7279 99.5294 80.3124 98.6781 79.7655C98.9083 79.1052 98.5088 78.5299 98.1901 78.0387C102.309 81.7378 102.309 81.7378 106.427 85.4369Z" fill="#FCF093"/>
<path d="M84.772 74.7781C86.0533 75.7649 86.381 76.8855 86.4978 76.9614C85.9763 77.6127 85.9763 77.6128 85.4548 78.2641C85.3733 78.232 85.2432 78.3287 85.1616 78.2966C83.4927 76.6269 83.4927 76.6269 81.8238 74.9573C83.4981 74.2498 84.6267 74.7964 84.772 74.7781Z" fill="#080705"/>
<path d="M93.8571 84.4546C91.8944 83.7902 89.7095 83.4278 87.7354 82.7581C86.0314 82.1799 84.3758 81.4122 82.752 80.6389C86.448 81.7157 90.6179 82.1616 93.8571 84.4546Z" fill="#9D834C"/>
<path d="M91.7439 73.4124C91.7763 73.7056 91.7763 73.7056 91.8088 73.9988C89.9448 72.7971 87.7931 72.4808 85.8495 73.7684C83.8614 72.2099 80.3269 72.3956 77.756 71.6967C75.0243 70.9551 72.3823 69.6337 69.5975 69.0387C69.7164 68.4882 69.8166 67.5737 69.8739 67.5241C70.9045 66.6582 89.3364 72.3315 91.7439 73.4124Z" fill="#B6AC86"/>
<path d="M98.1901 78.0387C98.5088 78.5299 98.908 79.1031 98.6781 79.7655C97.3437 78.9059 96.0221 78.7684 94.6392 78.1352C95.2315 77.4002 92.5415 74.4723 91.8065 73.9969C91.774 73.7037 91.774 73.7037 91.7415 73.4105C94.0898 74.4655 96.685 75.7162 98.1901 78.0387Z" fill="#EEBE03"/>
<path d="M109.206 59.6088C108.511 59.6295 107.34 59.9325 107.008 59.8522C106.567 59.745 100.742 55.1865 99.7304 54.4276C93.2826 49.5913 87.6252 43.7532 81.1068 38.9833C79.7677 38.0028 78.0304 37.437 77.9313 37.11C77.8313 36.7745 78.8456 37.3251 77.7529 35.4985C75.3246 31.4324 63.3535 24.1791 58.7377 21.8783C54.8808 19.9549 46.0471 15.112 41.9991 18.095C41.3643 18.564 41.6542 18.5015 41.5101 19.0396C40.6465 22.2744 45.584 28.6341 46.5381 32.2807C46.9531 32.7611 48.0974 33.1175 48.7365 33.3717C44.7466 32.4184 53.458 40.6761 54.1566 40.7829C55.7237 41.0253 60.8739 35.8664 59.141 34.8906C58.6996 34.6406 51.6844 34.5206 49.0622 33.6324C52.1003 33.1313 55.2183 34.2505 58.1986 34.4014C59.3229 34.4589 59.4172 33.961 59.4845 33.9622C59.9834 33.9676 60.0949 34.486 60.1358 34.4837C58.8779 37.8553 63.3506 36.7317 65.0046 38.247C62.4002 38.1649 62.4002 38.1649 59.7936 38.0832C57.8235 41.9691 53.6821 41.1344 59.8575 41.3409C65.6103 44.1072 58.9416 41.8539 57.8376 41.8614C52.5918 41.892 60.3908 48.9531 62.2974 49.9724C67.0508 49.446 71.7474 50.5399 76.4811 50.7761C76.7341 51.0448 76.734 51.0448 76.9848 51.3139C77.2815 50.9409 76.4937 50.8115 76.4811 50.7761C76.3662 50.4812 76.1422 50.454 76.123 50.2221C78.8867 52.3099 87.3434 54.8245 91.0386 56.2849C94.1132 57.502 98.1936 58.9978 100.742 60.8472C100.386 60.9365 99.7339 61.1691 99.3089 61.3028C95.2848 58.8086 90.6942 57.7528 86.2824 56.218C78.5876 53.5411 72.3633 51.0934 63.8609 50.6897C63.1126 58.4872 75.6906 55.6492 81.6746 57.4714C81.2941 58.1634 80.5956 58.0372 79.964 58.1049C79.2553 58.1813 72.2781 57.249 72.1968 57.6306C80.5186 61.7243 79.3385 62.962 83.7097 59.7677C85.4653 58.4836 84.6151 60.0791 85.403 61.6578C85.4191 61.8033 85.4191 61.8033 85.4355 61.951C85.0412 61.9708 81.6513 62.6214 81.6724 62.8118C85.5207 62.9554 86.9812 66.9684 90.7262 64.1836C89.7572 63.4156 89.0677 62.6861 87.8439 62.2779C87.9036 61.526 88.9112 62.5258 89.0006 62.0024C89.0085 61.9561 88.5851 61.7127 88.3331 61.3354C90.9307 62.196 93.4222 62.6675 91.948 64.4967C91.3193 65.2747 89.6355 66.0721 89.2594 67.0194C89.2323 67.0874 89.9237 67.3834 89.9269 67.6863C89.9276 67.7513 89.1733 67.8456 89.4704 68.9241C87.1294 67.4264 82.5681 64.9917 79.9948 63.7429C75.0654 61.349 69.9174 59.5837 64.9012 57.403C63.7659 57.6761 65.2184 59.2505 65.274 59.4393C65.4317 59.9635 65.3799 60.5325 65.7945 61.4593C67.4434 65.1394 67.4046 64.6909 72.2731 66.3788C72.5421 66.7931 72.5421 66.7931 72.8093 67.2098C70.719 67.4478 67.9831 65.9245 69.6333 69.3423C69.6368 70.2735 69.1337 69.9761 69.9412 70.7922C70.1948 71.048 75.9277 74.1046 76.2577 74.2479C77.4743 74.7674 80.5922 74.1058 80.149 75.8946C77.2943 75.9204 74.6527 74.7983 71.9424 74.1322C71.4947 74.0215 69.5398 72.8991 68.9957 72.9746C66.2843 73.355 68.8945 76.7553 62.628 73.0862C71.7809 72.2436 71.0112 64.1983 59.4561 64.5356C56.2797 64.6296 53.2697 65.7364 50.1082 65.8677C50.705 66.718 52.8637 67.0985 53.7063 67.5468C56.0155 68.7772 58.4085 70.1977 60.6742 71.5239C61.0426 71.7409 61.8527 72.5611 62.3025 72.8276C61.2556 73.2728 60.2371 74.8349 59.7611 73.9994C59.6833 72.8273 60.9537 73.0116 60.005 72.1916C59.5546 71.8017 51.101 67.9068 49.3241 66.8471C48.7924 66.8583 43.4709 71.8779 42.9867 72.5923C42.9496 72.6484 41.9716 72.4838 42.6454 73.5205C48.4739 75.2494 48.4739 75.2494 54.3045 76.9781C56.9025 77.0218 57.1021 75.5569 57.2522 75.4645C58.151 74.9143 59.5509 74.0963 58.7831 75.8885C58.6161 76.2775 56.9723 77.3196 56.6484 78.053C65.2223 80.0997 75.0413 81.1245 83.6299 83.2258C85.0972 83.5833 89.3218 84.6991 86.4311 84.3996C81.4166 83.8782 73.8278 81.5514 68.1438 81.3814C61.2152 79.7743 61.2152 79.7743 54.2867 78.1673C54.6092 77.226 47.7693 75.8322 45.9827 75.5253C41.5506 74.7661 39.0011 73.4193 35.527 77.5736C35.3056 77.492 35.1392 77.4368 34.9081 77.3454C35.3955 76.0934 36.4912 75.6579 36.4888 75.539C36.4816 75.1412 34.4871 75.0306 34.7313 74.3991C42.3342 75.2101 37.4049 73.3253 32.2255 67.8524C28.9033 68.6645 28.9033 68.6645 25.5814 69.4786C24.4941 69.0704 28.0138 68.5355 28.8547 68.2257C32.2598 66.9691 32.7468 66.3974 34.7999 62.968C31.2052 63.0022 25.5146 59.4274 22.8629 62.3619C22.5658 62.6916 21.9718 62.7465 21.7712 63.2237C21.8006 69.2409 28.0972 73.847 33.0192 76.3695C32.4978 77.0209 32.4978 77.0209 31.9763 77.6722C26.518 74.8646 20.1749 69.8001 20.5659 63.0604C9.59789 59.3876 -5.71131 39.6182 7.64643 36.1523C21.9349 32.4446 49.5204 46.0841 62.0974 53.5649C63.2643 52.5019 55.4482 48.0836 54.4798 42.3914C49.2823 40.5493 36.4161 20.7346 40.2567 17.1116C46.9063 10.84 71.0897 25.4693 76.6647 31.0327C87.2203 40.8409 98.8977 49.706 109.206 59.6088Z" fill="#080705"/>
<path d="M79.9592 58.1011C77.3757 59.9102 82.4131 58.4858 83.705 59.7639C79.3338 62.9581 80.5139 61.7204 72.1921 57.6268C72.2733 57.2451 79.2506 58.1774 79.9592 58.1011Z" fill="#CFCAB2"/>
<path d="M85.4284 61.9452C85.8055 61.9273 87.4992 62.1578 87.8389 62.2719C89.0627 62.6801 89.7522 63.4096 90.7212 64.1776C86.9765 66.9645 85.516 62.9516 81.6675 62.8058C81.6464 62.6154 85.0341 61.9651 85.4284 61.9452Z" fill="#A49E89"/>
<path d="M12.9701 37.3305C13.0314 37.5902 12.9213 38.0638 13.2131 38.194C13.5868 38.3606 20.2548 40.393 21.0458 40.5913C21.3319 41.3157 22.3337 41.2069 22.6093 41.3086C22.6906 41.3386 23.7374 41.8314 24.1727 42.0258C30.1071 46.0416 30.1071 46.0416 36.0418 50.0595C35.9207 50.9611 27.7447 52.5468 26.4012 52.7584C23.9923 50.9411 4.82869 42.8076 4.25864 41.7095C2.78562 38.8743 7.89788 37.3441 12.9701 37.3305Z" fill="#726551"/>
<path d="M3.93076 42.7814C12.3485 47.1157 12.3485 47.1157 20.7663 51.45C20.8754 52.8071 23.2934 59.4025 23.0424 59.9524C22.9886 60.0732 21.102 61.387 20.8266 61.385C20.3237 61.3822 13.904 57.3466 12.3598 55.9426C9.11011 52.9879 5.07844 47.0413 3.93076 42.7814Z" fill="#867D70"/>
<path d="M21.8402 51.7774C23.9796 53.2541 37.8026 57.1198 38.5129 57.6455C40.1102 58.8248 36.7115 61.5669 35.4491 62.14C30.0112 61.2583 30.0112 61.2583 24.5712 60.3767C23.2069 56.078 23.2069 56.078 21.8402 51.7774Z" fill="#867D70"/>
<path d="M36.2 63.5409C37.0062 63.2501 45.6963 65.3879 47.3045 66.02C45.7229 67.6228 41.997 73.5338 39.9405 73.2156C39.5172 73.1498 34.3076 68.4992 33.2654 67.8716C32.95 67.2544 35.9458 63.6319 36.2 63.5409Z" fill="#A09281"/>
<path d="M38.0146 43.7555C40.7142 51.4853 48.9701 51.795 49.3619 52.4384C50.8753 54.9333 47.0533 52.3279 46.1528 52.9411C43.9557 52.1748 38.6642 50.9324 37.408 50.3479C34.2397 48.8725 31.2762 45.7041 28.2412 43.9453C29.3131 43.9999 29.8902 42.1097 30.2946 41.0467C32.9654 41.9035 35.4226 42.6517 38.0146 43.7555Z" fill="#726551"/>
<path d="M33.8416 51.6355C35.4098 53.6477 48.1332 57.2669 49.3593 56.4443C49.8956 56.0838 48.5029 55.5383 48.7257 54.7337C50.5325 55.9656 50.4679 57.5933 50.6283 59.8632C41.9534 58.9976 36.4291 55.907 28.4187 53.5684C29.8024 52.7609 32.2707 52.0044 33.8416 51.6355Z" fill="#727165"/>
<path d="M40.6952 58.5911C41.1763 58.4554 50.0148 60.5053 50.4327 60.7774C50.9134 61.0882 52.172 63.8258 52.1244 64.0022C51.4017 66.7881 40.0292 62.495 37.8921 62.7599C37.6311 62.4183 37.6311 62.4183 37.3723 62.0765C38.1086 61.8 40.4641 58.6556 40.6952 58.5911Z" fill="#867D70"/>
<path d="M46.1531 52.9432C47.0533 52.3279 50.8755 54.9354 49.3622 52.4405C48.9701 51.795 40.7145 51.4874 38.0148 43.7577C42.0026 45.4543 45.8615 47.6504 49.6566 49.7389C49.6581 56.6972 52.7577 55.2447 46.1531 52.9432Z" fill="#726551"/>
<path d="M30.2969 41.0486C29.8925 42.1116 29.3176 44.0016 28.2435 43.9472C27.042 43.2506 25.4598 42.5982 24.1721 42.0237C23.7368 41.8293 22.69 41.3365 22.6087 41.3065C21.9616 40.2169 21.2569 40.6416 21.0453 40.5892C20.2545 40.393 13.5884 38.3582 13.2125 38.1919C12.921 38.0639 13.0308 37.5881 12.9695 37.3284C18.8084 37.3122 24.803 39.2892 30.2969 41.0486Z" fill="#6D5641"/>
<path d="M48.7257 54.7337C48.505 55.5381 49.8957 56.0838 49.3593 56.4444C48.1351 57.2645 35.4098 53.6477 33.8416 51.6355C34.9608 51.3729 36.0129 50.8772 37.1475 50.6758C39.8106 52.3436 47.4439 53.8596 48.7257 54.7337Z" fill="#867D70"/>
<path d="M63.6394 60.7989C59.6002 60.7306 55.7517 58.3751 51.9144 59.4262C51.6215 58.6202 52.0142 57.0407 51.2804 56.3811C51.5095 55.3007 61.8354 57.9678 62.3199 58.2738C63.2608 58.8672 63.3923 60.2695 63.6394 60.7989Z" fill="#A49E89"/>
<path d="M63.6395 60.7989C63.6792 60.8833 64.4291 61.669 64.6976 62.313C64.5015 62.5578 64.5016 62.5579 64.3074 62.8003C61.6356 61.6794 52.8706 62.0543 51.9164 59.4238C55.7537 58.3727 59.6024 60.7304 63.6395 60.7989Z" fill="#867D70"/>
<path d="M53.2212 55.1263C53.8271 53.1636 55.2545 55.3127 54.7207 52.5858C56.1232 53.1801 63.2527 55.2328 62.0953 57.5556C61.8897 57.9683 54.0013 55.5187 53.2212 55.1263Z" fill="#A09281"/>
<path d="M54.7187 52.5882C55.2525 55.3151 53.8251 53.1659 53.2192 55.1286C52.0127 54.5235 51.9059 56.0042 50.9893 51.0731C51.4555 50.1571 54.2458 52.3871 54.7187 52.5882Z" fill="#867D70"/>
<path d="M52.615 61.723C56.1965 62.5872 56.1965 62.5872 59.7801 63.4512C57.4554 63.1952 55.2256 64.0314 53.7544 63.9712C53.4453 63.9578 52.1929 63.1931 52.615 61.723Z" fill="#867D70"/>
<path d="M22.6109 41.3062C22.3353 41.2046 21.3335 41.3134 21.0475 40.589C21.257 40.6416 21.9638 40.2167 22.6109 41.3062Z" fill="#262017"/>
<path d="M59.7597 73.9865C60.2335 74.8223 61.2523 73.2623 62.3011 72.8147C62.3196 72.8256 62.3141 72.8934 62.6268 73.0754C68.8933 76.7446 66.2831 73.3443 68.9945 72.9638C69.5386 72.8884 71.4935 74.0107 71.9412 74.1215C74.1937 76.2291 74.7999 77.4965 75.0022 77.6409C74.8727 77.8025 74.8727 77.8025 74.7414 77.9665C70.7345 77.3293 77.6632 79.7596 80.4066 80.9007C79.2886 81.9171 76.1568 79.7726 73.0294 79.937C65.9046 77.9075 65.9046 77.9075 58.7819 75.8778C59.5497 74.0856 58.15 74.9057 57.251 75.4537C57.43 74.8793 54.4676 74.382 51.7157 73.6923C46.5913 71.2789 58.1644 73.3725 59.7597 73.9865Z" fill="#B6AC86"/>
<path d="M69.3517 76.1891C73.4969 77.058 73.6521 78.5573 69.3841 76.4823C69.3033 76.4176 69.3033 76.4175 69.2225 76.3528C69.2848 76.2701 69.2848 76.2701 69.3517 76.1891Z" fill="#3C230B"/>
<path d="M62.6268 73.0754C62.3142 72.8934 62.3197 72.8256 62.3011 72.8147C61.8513 72.5482 61.0412 71.728 60.6727 71.511C71.2383 70.9237 64.0367 70.7442 60.9166 69.7032C59.2723 69.1552 53.4649 65.093 53.7027 67.5342C52.8602 67.0859 50.7015 66.7053 50.1047 65.855C53.2661 65.7237 56.2762 64.617 59.4526 64.523C71.0101 64.1876 71.7776 72.2331 62.6268 73.0754Z" fill="#90917B"/>
<path d="M60.673 71.5132C58.4074 70.187 56.0124 68.7689 53.7051 67.5361C53.467 65.0927 59.2723 69.1553 60.919 69.7052C64.0368 70.7442 71.2383 70.9237 60.673 71.5132Z" fill="#7B7B61"/>
<path d="M57.6623 67.0978C58.5591 66.901 59.4393 66.9855 60.3336 67.0988C66.7956 67.917 64.2837 69.7658 59.2582 68.1083C59.0288 68.0319 57.9178 67.3512 57.6623 67.0978Z" fill="#A49E89"/>
<path d="M91.8088 73.9988C92.5437 74.4721 95.2336 77.3999 94.6415 78.1371C92.1906 77.0155 88.9046 76.4132 85.8822 74.0637C85.8661 73.9182 85.8661 73.9182 85.8497 73.7705C87.791 72.481 89.9426 72.7973 91.8088 73.9988Z" fill="#F6CE78"/>
<defs>
<linearGradient id="paint0_linear_6_2541" x1="83.9285" y1="120.588" x2="62.3118" y2="128.457" gradientUnits="userSpaceOnUse">
<stop stop-color="#5C2D06"/>
<stop offset="1" stop-color="#CF9102"/>
</linearGradient>
</defs>
</svg>
